<?xml version="1.0" standalone="no"?>
<!DOCTYPE svg PUBLIC "-//W3C//DTD SVG 1.1//EN" "http://www.w3.org/Graphics/SVG/1.1/DTD/svg11.dtd" >
<!--
2013-8-14: Created.
-->
<svg xmlns="http://www.w3.org/2000/svg" xmlns:xlink="http://www.w3.org/1999/xlink" version="1.1">
<metadata>
Created by FontForge 20150107 at Mon Sep 14 15:52:44 2015
 By serge

</metadata>
<defs>
<font id="pr-ui-icons" horiz-adv-x="1024" >
  <font-face 
    font-family="pr-ui-icons"
    font-weight="400"
    font-stretch="normal"
    units-per-em="1024"
    panose-1="5 3 1 2 1 0 0 0 0 0"
    ascent="820"
    descent="-204"
    bbox="-85 -218 1323 832"
    underline-thickness="50"
    underline-position="-100"
    unicode-range="U+E001-E0FC"
  />
    <missing-glyph />
    <glyph glyph-name="uniE001" unicode="&#xe001;" 
d="M0 819h1024v-1024h-1024v1024z" />
    <glyph glyph-name="uniE00E" unicode="&#xe00e;" 
d="M85 -128v853h512v-853h-512zM853 725h86v-853h-86v853zM683 -128v853h85v-853h-85z" />
    <glyph glyph-name="uniE00F" unicode="&#xe00f;" 
d="M512 213v-85h-171v85h171zM683 469v-170h-342v170h342zM85 725h854v-853h-854v853zM853 -43v683h-682v-683h682z" />
    <glyph glyph-name="uniE00D" unicode="&#xe00d;" 
d="M512 768q95 0 182 -37t150 -100t100 -150t37 -182.5t-37 -182.5t-100 -149.5t-150 -100t-182 -37.5t-182 37.5t-150 100t-100 149.5t-37 182.5t37 182.5t100 150t150 100t182 37zM512 -85q104 0 192.5 51t140 139.5t51.5 193t-51.5 193t-140 140t-192.5 51.5
t-192.5 -51.5t-140 -140t-51.5 -193t51.5 -193t140 -139.5t192.5 -51zM597 555v-256h128l-213 -299l-214 299h129v256h170z" />
    <glyph glyph-name="uniE00C" unicode="&#xe00c;" 
d="M512 726q79 0 144 -19.5t110 -52t80 -72t60 -83t43.5 -81.5t38 -71t36.5 -48q-17 -16 -36.5 -49.5t-38 -71.5t-43.5 -81.5t-60 -82.5t-79.5 -71.5t-110 -51.5t-144.5 -19q-78 0 -143.5 19t-110 51.5t-80 72t-60.5 83t-44 81t-38 71t-36 49.5q17 15 36 48.5t38 71t44 81.5
t60 83t80 71.5t110 52t144 19.5zM512 43q106 0 181 75t75 181t-75 181t-181 75q-68 0 -126 -34l54 -117q33 22 72 23q53 0 90.5 -37.5t37.5 -90.5t-37.5 -90.5t-90.5 -37.5t-90.5 37.5t-37.5 90.5q0 39 22 72l-117 54q-33 -59 -33 -126q0 -106 75 -181t181 -75z" />
    <glyph glyph-name="uniE00B" unicode="&#xe00b;" 
d="M448 43v128h128v-128h-128zM645 529q20 -20 29 -43.5t9 -43.5q0 -33 -9 -54.5t-21.5 -37t-28.5 -26.5t-29 -21q-14 -11 -25 -25t-14 -34v-27h-93v32q2 30 11 49.5t22 34t26.5 25t25.5 21t19 23t7 30.5q0 32 -16 47.5t-43 15.5q-19 0 -32.5 -7.5t-22 -19.5t-13 -28.5
t-4.5 -34.5h-102q1 37 13 68t34 54t53 36t69 13q49 0 82 -13.5t53 -33.5zM512 768q95 0 182 -37t150 -100t100 -150t37 -182.5t-37 -182.5t-100 -149.5t-150 -100t-182 -37.5t-182 37.5t-150 100t-100 149.5t-37 182.5t37 182.5t100 150t150 100t182 37zM512 -85
q104 0 192.5 51t140 139.5t51.5 193t-51.5 193t-140 140t-192.5 51.5t-192.5 -51.5t-140 -140t-51.5 -193t51.5 -193t140 -139.5t192.5 -51z" />
    <glyph glyph-name="uniE00A" unicode="&#xe00a;" 
d="M1024 213h-94q-16 -81 -62 -150l66 -66l-120 -121l-67 67q-69 -46 -150 -62v-94h-170v94q-81 16 -150 62l-67 -67l-120 121l66 66q-46 69 -62 150h-94v171h94q16 81 62 150l-66 66l120 121l67 -66q69 46 150 62v94h170v-94q81 -16 150 -62l67 66l120 -121l-66 -66
q46 -69 62 -150h94v-171zM512 -0q124 0 211.5 87.5t87.5 211.5q0 61 -24 116t-64 95t-95 63.5t-116 23.5q-124 0 -211.5 -87.5t-87.5 -211t87.5 -211t211.5 -87.5z" />
    <glyph glyph-name="uniE009" unicode="&#xe009;" 
d="M171 811h682v-1024l-341 256l-341 -256v1024zM683 299v85h-342v-85h342zM683 469v86h-342v-86h342z" />
    <glyph glyph-name="uniE008" unicode="&#xe008;" 
d="M555 768v-64h-86v64h86zM85 683h854v-598h-854v598zM683 256v85h-342v-85h342zM768 427v85h-512v-85h512zM469 -171v235h86v-235h-86z" />
    <glyph glyph-name="uniE007" unicode="&#xe007;" 
d="M0 725h1024v-853h-1024v853zM939 555v85h-854v-85l427 -342z" />
    <glyph glyph-name="uniE006" unicode="&#xe006;" 
d="M597 811v-512h-170v512h170zM683 736q133 -52 215.5 -171t82.5 -266q0 -95 -37 -182.5t-100 -150t-150 -100t-182 -37.5t-182 37.5t-150 100t-100 149.5t-37 183q0 147 82.5 266t215.5 171v-93q-96 -48 -154.5 -140.5t-58.5 -203.5q0 -104 51.5 -193t140 -140t192.5 -51
q78 0 149 30t122.5 81.5t82 123t30.5 149.5q0 111 -58.5 203.5t-154.5 140.5v93z" />
    <glyph glyph-name="uniE005" unicode="&#xe005;" 
d="M512 768q95 0 182 -37t150 -100t100 -150t37 -182.5t-37 -182.5t-100 -149.5t-150 -100t-182 -37.5t-182 37.5t-150 100t-100 149.5t-37 182.5t37 182.5t100 150t150 100t182 37zM664 552q-45 124 -117 151h-1v-169q61 4 118 18zM645 682q42 -45 72 -114q36 13 67 31
q-61 56 -139 83zM469 535v164q-67 -32 -109 -148q52 -12 109 -16zM469 471q-65 4 -127 21q-19 -75 -21 -160h148v139zM469 256h-148q4 -79 21 -149q62 17 127 21v128zM469 64q-57 -4 -109 -16q42 -117 109 -150v166zM546 256v-127q70 -4 136 -22q17 70 21 149h-157zM546 332
h157q-3 85 -21 160q-66 -19 -136 -22v-138zM307 568q30 69 72 114q-78 -27 -139 -83q31 -18 67 -31zM287 511q-47 18 -89 44q-80 -97 -90 -223h149q4 95 30 179zM257 256h-148q12 -119 88 -212q42 26 89 44q-24 79 -29 168zM307 31q-36 -13 -69 -31q62 -57 141 -84
q-42 45 -72 115zM546 -105h1q73 27 118 152q-57 14 -119 18v-170zM717 31q-30 -70 -72 -115q79 27 141 84q-33 18 -69 31zM738 88q47 -18 89 -44q76 93 88 212h-148q-5 -89 -29 -168zM767 332h149q-10 125 -90 223q-42 -25 -89 -44q26 -84 30 -179z" />
    <glyph glyph-name="uniE004" unicode="&#xe004;" 
d="M939 -128h-854v56q0 24 8.5 46.5t23 40.5t31 33.5t36.5 27.5t36 20.5t32 14.5q25 10 49 21t36 17l11 7q1 24 20 33q12 6 37 15q-40 33 -56 68q-17 37 -20 86q-15 -10 -20 6q-3 10 -8 19.5t-9 20.5q-5 12 -8 42q-1 7 -8 39q-1 5 0 8.5t4 4.5t6.5 1t5.5 -1h2q-1 2 -2.5 5.5
t-5.5 15.5t-6 25t-2 31.5t4 37.5q20 93 94 108q37 47 136 47q35 0 66 -6t53 -16t40 -24t30 -28t21 -29.5t14 -28.5q5 -14 6 -23q3 -27 3 -42q0 -8 -1 -17q-1 -23 -8 -41l-6 -15q1 0 2.5 0.5t5 0.5t6.5 -1t4.5 -4t-0.5 -9q-8 -32 -8 -39q-3 -31 -8 -42q-4 -10 -9 -20t-8 -20
q-5 -16 -20 -6q-2 -49 -20 -86q-16 -35 -56 -68q25 -9 37 -15q8 -4 13 -12.5t6 -14.5l1 -6q41 -23 96 -45q25 -10 50 -24.5t53.5 -37t46 -54.5t17.5 -67v-56z" />
    <glyph glyph-name="uniE003" unicode="&#xe003;" 
d="M740 768l284 -939h-195l-55 214h-268l-55 -214h-195l280 939h204zM549 213h182l-59 235q-9 35 -17.5 87t-12.5 75h-3q-4 -19 -8.5 -41.5t-7.5 -39t-7.5 -38.5t-8.5 -43zM297 109l-39 126h-138l-38 -128h-82l140 469h102l98 -323zM133 299h112l-34 122q-2 6 -22 91h-2
q-2 -10 -9 -42.5t-11 -48.5z" />
    <glyph glyph-name="uniE002" unicode="&#xe002;" 
d="M740 768l284 -939h-195l-55 214h-268l-55 -214h-195l280 939h204zM549 213h182l-59 235q-9 35 -17.5 87t-12.5 75h-3q-4 -19 -8.5 -41.5t-7.5 -39t-7.5 -38.5t-8.5 -43zM341 789v-64h-213v64h213zM360 322q-46 33 -80 78t-45 91q-16 -62 -71.5 -120.5t-120.5 -86.5
l-43 79q15 2 36.5 10t50 26.5t52 43.5t41.5 65.5t20 88.5h-157v86h384v-86h-158q6 -127 115 -195z" />
    <glyph glyph-name="uniE010" unicode="&#xe010;" 
d="M669 461q9 9 18 0l72 -72q9 -9 0 -19l-238 -238q-9 -9 -18 0l-238 238q-9 9 0 19l72 72q9 9 18 0l157 -157z" />
    <glyph glyph-name="uniE011" unicode="&#xe011;" 
d="M669 136l-157 157l-157 -157q-9 -9 -18 0l-72 73q-9 9 0 18l238 238q9 9 18 0l238 -238q9 -9 0 -18l-72 -73q-9 -9 -18 0z" />
    <glyph glyph-name="uniE012" unicode="&#xe012;" 
d="M171 384h682l-341 -341z" />
    <glyph glyph-name="uniE014" unicode="&#xe014;" 
d="M768 43v85l85 85v-256h-768v683h363l-85 -85h-192v-512h597zM292 192q0 103 52.5 187t136.5 130t180 46h22v170l341 -257l-341 -255v171q-78 0 -139 -13.5t-106 -40.5t-77.5 -59.5t-61.5 -78.5q-3 -2 -7 0z" />
    <glyph glyph-name="uniE015" unicode="&#xe015;" 
d="M900 597q8 0 15 -3t12.5 -8t8.5 -12.5t3 -14.5v-51q0 -16 -11.5 -27.5t-27.5 -11.5h-776q-16 0 -27.5 11.5t-11.5 27.5v51q0 16 11.5 27t27.5 11h776zM900 341q8 0 15 -3t12.5 -8t8.5 -12.5t3 -14.5v-51q0 -16 -11.5 -27.5t-27.5 -11.5h-776q-16 0 -27.5 11.5t-11.5 27.5
v51q0 16 11.5 27t27.5 11h776zM900 85q8 0 15 -3t12.5 -8t8.5 -12.5t3 -14.5v-51q0 -16 -11.5 -27.5t-27.5 -11.5h-776q-16 0 -27.5 11.5t-11.5 27.5v51q0 16 11.5 27t27.5 11h776z" />
    <glyph glyph-name="uniE016" unicode="&#xe016;" 
d="M384 299l410 -411q11 -11 11.5 -27t-11.5 -27l-35 -36q-11 -11 -27.5 -11t-27.5 11l-462 462l-11 11q-2 2 -3 4q-9 11 -8 26t11 25l473 473q11 11 27 11.5t28 -11.5l35 -35q11 -11 11.5 -27.5t-11.5 -27.5z" />
    <glyph glyph-name="uniE017" unicode="&#xe017;" 
d="M512 789l134 -356l378 -23l-295 -234l95 -367l-312 208l-312 -208l95 367l-295 234l378 23z" />
    <glyph glyph-name="uniE018" unicode="&#xe018;" 
d="M213 469l278 256h21v-853h-21l-278 256h-148q-13 0 -25 5t-21 14t-14 21t-5 25v211q0 27 19 46t46 19h148zM768 298.5q0 -76.5 -41 -139t-108 -93.5l-29 46q56 23 90.5 73.5t34.5 113t-35 113.5t-90 74l29 45q67 -31 108 -93.5t41 -139zM758 748q121 -66 193.5 -186
t72.5 -263t-72.5 -263t-193.5 -186l-29 45q110 59 176 167t66 237t-66 237t-176 167zM896 298.5q0 -109.5 -56.5 -201t-150.5 -139.5l-29 45q54 27 95 71.5t64.5 102.5t23.5 122q0 96 -50.5 175t-132.5 120l29 46q94 -49 150.5 -140.5t56.5 -201z" />
    <glyph glyph-name="uniE019" unicode="&#xe019;" 
d="M811 213q88 0 150.5 -62.5t62.5 -150.5t-62.5 -150.5t-150.5 -62.5q-58 0 -107.5 28.5t-78 77.5t-28.5 107q0 31 9 61l-146 83q-36 -47 -89.5 -74t-114.5 -27q-106 0 -181 75t-75 181t75 181t181 75q61 0 114.5 -27t89.5 -74l146 82q-9 30 -9 61q0 88 62.5 151t151 63
t151 -62.5t62.5 -151t-62.5 -151t-150.5 -62.5q-32 0 -62.5 9.5t-55.5 26t-45 39.5l-146 -88q10 -35 10 -72.5t-10 -72.5l146 -88q20 23 45 40t55.5 26t62.5 9zM810.5 683q-35.5 0 -60.5 -25t-25 -61q0 -23 11.5 -42.5t31 -31t43.5 -11.5q35 0 60 25t25 60.5t-25 60.5
t-60.5 25zM256 192q44 0 75.5 31t31.5 75.5t-31.5 75.5t-75.5 31t-75.5 -31t-31.5 -75.5t31.5 -75.5t75.5 -31zM810.5 -85q35.5 0 60.5 25t25 60t-25 60t-60.5 25t-60.5 -25t-25 -60t25 -60t60.5 -25z" />
    <glyph glyph-name="uniE01A" unicode="&#xe01a;" 
d="M900 725q6 0 12 -2t11 -5.5t8.5 -8t5.5 -10.5t2 -12v-776q0 -16 -11.5 -27.5t-27.5 -11.5h-776q-16 0 -27.5 11.5t-11.5 27.5v776q0 16 11.5 27t27.5 11h89v-86q0 -35 25 -59.5t59 -24.5h3q35 0 59.5 24.5t24.5 59.5v86h256v-86q0 -35 24.5 -59.5t59.5 -24.5h3q10 0 19 2
t17.5 6t15.5 10t13 13t10 15.5t6.5 18t2.5 19.5v86h89zM853 -23v473q0 8 -5.5 13.5t-13.5 5.5h-644q-8 0 -13.5 -5.5t-5.5 -13.5v-473q0 -8 5.5 -14t13.5 -6h644q8 0 13.5 6t5.5 14zM298.5 597q-17.5 0 -30 12.5t-12.5 30.5v128q0 18 12.5 30.5t30 12.5t30 -12.5t12.5 -30.5
v-128q0 -18 -12.5 -30.5t-30 -12.5zM725.5 597q-17.5 0 -30 12.5t-12.5 30.5v128q0 18 12.5 30.5t30 12.5t30 -12.5t12.5 -30.5v-128q0 -18 -12.5 -30.5t-30 -12.5z" />
    <glyph glyph-name="uniE01B" unicode="&#xe01b;" 
d="M358 43h27q11 0 54 -12t73 -47q51 59 154 59q56 0 108.5 -13.5t78.5 -26.5v397l86 88v-571q-3 -11 -12.5 -16.5t-20.5 -2.5q-53 33 -113 46t-102 13q-128 0 -179 -64q-51 64 -179 64q-43 0 -103 -13t-112 -46q-11 -3 -20.5 2.5t-12.5 16.5v674q46 53 110.5 83t119.5 30
h54q14 0 63.5 -17t79.5 -47q64 64 186 64q39 0 88 -14l-74 -74q-20 3 -27 3h-10q-12 -1 -25.5 -1t-42.5 -8q-57 -17 -95 -55q-64 64 -162.5 64t-178.5 -64v-552q26 13 78 26.5t109 13.5zM990 701q9 -9 12 -20t-3 -16l-30 -31l14 -14l-386 -387l-98 -36l-22 22l36 99l385 388
l14 -15l30 30q5 5 12 5q10 0 25 -13z" />
    <glyph glyph-name="uniE01C" unicode="&#xe01c;" 
d="M919 -9q19 -19 19 -46l1 -1q0 -26 -20 -46l-7 -7q-19 -19 -46 -19t-46 19l-204 203q-20 20 -20 46q0 6 1 10l-36 36q-79 -58 -177 -58q-124 0 -211.5 87.5t-87.5 211t87.5 211t211.5 87.5t211.5 -87.5t87.5 -210.5q0 -98 -58 -177l37 -37q5 1 9 1q28 -3 44 -20z
M171 426.5q0 -88.5 62.5 -151t150.5 -62.5t150.5 62.5t62.5 151t-62.5 151t-150.5 62.5t-150.5 -62.5t-62.5 -151z" />
    <glyph glyph-name="uniE020" unicode="&#xe020;" 
d="M512 811q104 0 199 -40.5t163.5 -109.5t109 -163.5t40.5 -199t-40.5 -199t-109 -163t-163.5 -109t-199 -40.5t-199 40.5t-163.5 109t-109 163t-40.5 199t40.5 199t109 163.5t163.5 109.5t199 40.5zM714.5 375.5q10.5 25.5 10.5 64.5q0 24 -10 51q-11 27 -36.5 50.5
t-66.5 39.5t-103 16q-48 0 -86 -15t-65.5 -42t-42.5 -63q-16 -39 -16 -93h128q0 36 4.5 53t15.5 32q9 12 28 22q16 8 41 8q36 0 54 -17q19 -18 19 -53v-4v-4q1 -14 -8 -29t-24 -27t-32 -24.5t-33 -28.5q-20 -22 -29 -40q-14 -29 -14 -57v-23h128v18q0 24 13 40q12 15 26 25
q4 3 11 8t13 10t12 9q20 13 36 30.5t26.5 43zM512 128q-35 0 -60 -25t-25 -60.5t25 -60.5t60 -25t60 25t25 60.5t-25 60.5t-60 25z" />
    <glyph glyph-name="uniE01D" unicode="&#xe01d;" 
d="M512 768q95 0 182 -37t150 -100t100 -150t37 -182.5t-37 -182.5t-100 -149.5t-150 -100t-182 -37.5t-182 37.5t-150 100t-100 149.5t-37 182.5t37 182.5t100 150t150 100t182 37zM512 -85q78 0 149 30t122.5 81.5t82 123t30.5 149.5q0 104 -51.5 192.5t-140 140
t-192.5 51.5t-192.5 -51.5t-140 -140t-51.5 -193t51.5 -193t140 -139.5t192.5 -51zM663 404l59 -59q9 -9 0 -18l-201 -200q-9 -9 -18 0l-201 200q-9 9 0 18l59 59q9 9 19 0l132 -132l132 132q10 9 19 0z" />
    <glyph glyph-name="uniE01E" unicode="&#xe01e;" 
d="M512 -171q-95 0 -182 37.5t-150 100t-100 149.5t-37 182.5t37 182.5t100 150t150 100t182 37t182 -37t150 -100t100 -150t37 -182.5t-37 -182.5t-100 -149.5t-150 -100t-182 -37.5zM512 683q-104 0 -192.5 -51.5t-140 -140t-51.5 -193t51.5 -193t140 -139.5t192.5 -51
q78 0 149 30t122.5 81.5t82 123t30.5 149.5q0 104 -51.5 192.5t-140 140t-192.5 51.5zM663 193q-9 -9 -19 0l-132 132l-132 -132q-9 -9 -19 0l-59 59q-9 9 0 18l201 201q9 9 18 0l201 -201q9 -9 0 -18z" />
    <glyph glyph-name="uniE01F" unicode="&#xe01f;" 
d="M512 811q104 0 199 -40.5t163.5 -109.5t109 -163.5t40.5 -199t-40.5 -199t-109 -163t-163.5 -109t-199 -40.5t-199 40.5t-163.5 109t-109 163t-40.5 199t40.5 199t109 163.5t163.5 109.5t199 40.5zM811 256v85h-598v-85h598z" />
    <glyph glyph-name="uniE021" unicode="&#xe021;" 
d="M639 105q0 46 -30 76t-100 55q-114 39 -170.5 93.5t-56.5 148.5q0 89 54.5 147t147.5 68v118h86v-119q92 -14 144 -79t52 -172h-130q0 68 -30.5 107.5t-82.5 39.5q-55 0 -82.5 -29.5t-27.5 -78.5q0 -47 28.5 -76t103.5 -56q114 -41 169.5 -94.5t55.5 -147.5
q0 -93 -56.5 -148.5t-154.5 -65.5v-105h-86v104q-98 10 -159 69q-60 58 -60 169v7l1 3h128q0 -77 37 -110t93 -33q60 0 93 29.5t33 79.5z" />
    <glyph glyph-name="uniE040" unicode="&#xe040;" 
d="M395 305q0 10 -16 18q-17 8 -17 23t11 24q12 10 28 10q17 0 25 -6l-6 -17q-8 5 -21 5t-13 -12q0 -7 17 -16t17 -25t-12 -25t-30 -9q-19 0 -29 7l7 17q11 -6 25 -6t14 12zM323 362q-12 0 -12 -12q0 -6 17 -16q15 -8 16 -25q1 -15 -12 -25q-12 -9 -30 -9t-28 7l6 17
q12 -6 26 -6q12 0 13 12q1 7 -16 17q-15 8 -16 24q-1 14 11 24q13 11 28 10q17 -1 25 -6l-6 -17q-9 5 -22 5zM276 351q0 -33 -62 -33h-4q0 -6 5 -16q4 -8 19 -8t27 6l3 -17q-16 -8 -36 -8q-21 0 -31 11t-10 28q0 18 7 32t20 24t29 10t24.5 -8t8.5 -21zM241 362q-7 0 -13 -4
q-3 -2 -10 -10q-4 -5 -5 -12q40 0 41 15q0 11 -13 11zM183 356q-25 0 -32 -39l-7 -40h-24l11 62q2 9 6 38h20q-1 -14 -2 -21h1q12 23 31 24h3l2 -1l-4 -23h-5zM64 275q-19 0 -26 4l-9 -43h-24l20 104q2 13 6 38h21l-2 -17q14 18 29.5 18.5t22.5 -5t10.5 -13.5t3.5 -27
t-16.5 -39t-35.5 -20zM56.5 293q9.5 0 17.5 7t12.5 18t4.5 23q0 19 -16 19q-6 0 -12 -4.5t-11 -13t-7 -19.5l-4 -25q6 -5 15.5 -5zM680 297q-13 0 -12.5 16t10.5 29t19.5 13t12.5 -1l-4 -23q-3 -16 -10.5 -25t-15.5 -9zM614 356q10 0 10 -9q0 -14 -35 -14q2 9 8.5 16t16.5 7
zM876 356q10 0 10 -9q0 -14 -35 -14q2 9 8.5 16t16.5 7zM991 427q14 0 22 -10q6 -8 6 -18v-5l-22 -127q-2 -13 -13.5 -22.5t-25.5 -9.5h-280q-73 0 -118 -9.5t-69 -37.5q1 6 9 47h-19q-14 -1 -22 9q-6 7 -6 16q0 3 1 7l21 127q1 9 7 16.5t14.5 12t17.5 4.5h477zM567 371
q-17 0 -27 -20h-1q1 6 2 18h-18q-3 -25 -4 -33l-10 -54h20l7 35q6 34 28 34h4l4 20h-2.5h-2.5zM611.5 371q-17.5 0 -31.5 -17t-14 -33t4 -24t12 -12.5t23 -4.5t28 7l-2 15q-11 -6 -24 -5.5t-17 7.5t-3 14h4q53 0 53 29q0 11 -7.5 17.5t-25 6.5zM700 371q-21 0 -37.5 -18.5
t-16.5 -37t7 -27t22.5 -8.5t27.5 22q-1 -15 -1 -20h19v6q0 16 4 34l9 45q-13 4 -34 4zM791 371q-23 0 -38.5 -17.5t-15.5 -36.5t7 -28t22.5 -9t26.5 18l-1 -16h19q1 15 4 31l18 96h-21l-7 -40q-6 2 -14 2zM873 371q-17 0 -31 -17t-14 -35.5t9 -28.5t26.5 -10t31.5 7l-2 15
q-11 -6 -24 -5.5t-17 7.5t-3 14h4q53 0 53 29q0 11 -8 17.5t-25 6.5zM965 371q-17 0 -27 -20h-1q1 6 2 18h-18q-3 -25 -5 -33l-10 -54h21l7 35q6 34 27 34h4l4 20h-2h-2zM772 297q-14 0 -14 14.5t4 23.5t11.5 14.5t15.5 5.5t12 -3l-5 -27q-2 -13 -9.5 -20.5t-14.5 -7.5z" />
    <glyph glyph-name="uniE022" unicode="&#xe022;" 
d="M768 384q36 -3 60.5 -30t24.5 -63v-326q0 -39 -27 -66t-66 -27h-496q-39 0 -66 27.5t-27 65.5v326q0 36 24.5 63t60.5 30v85q0 106 75 181t181 75t181 -75t75 -181v-85zM555 97q13 7 22.5 18.5t14.5 25.5t5 30q0 35 -25 60t-60 25t-60 -25t-25 -60q0 -16 5 -30t15 -25.5
t22 -18.5v-54q0 -18 12.5 -30.5t30.5 -12.5t30.5 12.5t12.5 30.5v54zM683 384v85q0 71 -50 121t-121 50q-46 0 -85.5 -23t-62.5 -62t-23 -86v-85h342z" />
    <glyph glyph-name="uniE023" unicode="&#xe023;" 
d="M512 768q95 0 182 -37t150 -100t100 -150t37 -182.5t-37 -182.5t-100 -149.5t-150 -100t-182 -37.5t-182 37.5t-150 100t-100 149.5t-37 182.5t37 182.5t100 150t150 100t182 37zM512 -85q104 0 192.5 51t140 139.5t51.5 193t-51.5 193t-140 140t-192.5 51.5
t-192.5 -51.5t-140 -140t-51.5 -193t51.5 -193t140 -139.5t192.5 -51zM555 341h256v-128h-384v384h128v-256z" />
    <glyph glyph-name="uniE024" unicode="&#xe024;" 
d="M512 740q-26 0 -51.5 -5t-48.5 -14.5t-43.5 -23.5t-38 -31.5t-30.5 -37.5l-58 40q45 66 116 104.5t154 38.5q85 0 158 -41t118 -110l-59 -39q-23 36 -56 63t-74.5 41.5t-86.5 14.5zM357 587q26 38 66.5 60.5t88.5 22.5q49 0 91 -23.5t67 -63.5l-57 -38q-16 26 -42.5 41.5
t-58.5 15.5q-31 0 -57 -15t-42 -39zM896 320q17 0 37 -7.5t41.5 -23t35.5 -44.5t14 -67q0 -41 -14 -74.5t-36 -55.5t-49.5 -37.5t-54 -22t-50.5 -6.5q-96 -152 -308 -153q-71 0 -128.5 17.5t-97 46t-69 70t-46 83.5t-27 93t-13.5 93t-3 88q0 52 51.5 96.5t140 70t192.5 25.5
t192.5 -25.5t140 -70t51.5 -96.5zM512 256q115 0 196 25t81 60.5t-81 60.5t-196 25q-75 0 -139 -11.5t-101 -31t-37 -43t37 -43t101 -31t139 -11.5zM909 73q22 15 36 45t14 60q0 33 -19.5 54.5t-45.5 22.5q-6 -107 -34 -188q-1 -7 4.5 -10t14.5 1q15 5 30 15z" />
    <glyph glyph-name="uniE025" unicode="&#xe025;" 
d="M959 41q23 -41 23 -74q0 -24 -12 -45q-28 -50 -109 -50h-698q-79 0 -109 50q-12 20 -12 45q1 35 23 74l351 615q40 70 96 70t96 -70zM478 512q-20 0 -34 -15q-12 -13 -12 -31v-5l22 -235q2 -21 18.5 -36t37.5 -15h5q10 0 20 4t17.5 11t12.5 16.5t6 19.5l22 234
q1 10 -2.5 20t-10 17t-15.5 11t-19 4h-68zM573.5 -18.5q23.5 24.5 23.5 62t-24 62t-61 24.5t-61 -24.5t-24 -62.5q0 -37 24 -61.5t61 -24.5q38 0 61.5 24.5z" />
    <glyph glyph-name="uniE026" unicode="&#xe026;" 
d="M852 768q53 0 91 -38t38 -91v-680q0 -53 -38 -91.5t-91 -38.5h-680q-53 0 -91 38t-38 92v680q0 53 38 91t91 38h680zM896 -40v677q0 19 -13.5 32.5t-31.5 13.5h-678q-19 0 -32 -13.5t-13 -32.5v-677q0 -19 13.5 -32t31.5 -13h678q19 0 32 13t13 32z" />
    <glyph glyph-name="uniE027" unicode="&#xe027;" 
d="M852 768q53 0 91 -38t38 -91v-680q0 -53 -38 -91.5t-91 -38.5h-680q-53 0 -91 38t-38 92v680q0 53 38 91t91 38h680zM445 43l408 407l-109 109l-299 -300l-145 145l-108 -109z" />
    <glyph glyph-name="uniE028" unicode="&#xe028;" 
d="M512 811q104 0 199 -40.5t163.5 -109.5t109 -163.5t40.5 -199t-40.5 -199t-109 -163t-163.5 -109t-199 -40.5t-199 40.5t-163.5 109t-109 163t-40.5 199t40.5 199t109 163.5t163.5 109.5t199 40.5zM512 -118q113 0 209 56t151.5 152t55.5 209t-55.5 209t-151.5 151.5
t-209 55.5t-209 -55.5t-151.5 -151.5t-55.5 -209t55.5 -209t151.5 -152t209 -56z" />
    <glyph glyph-name="uniE029" unicode="&#xe029;" 
d="M512 811q104 0 199 -40.5t163.5 -109.5t109 -163.5t40.5 -199t-40.5 -199t-109 -163t-163.5 -109t-199 -40.5t-199 40.5t-163.5 109t-109 163t-40.5 199t40.5 199t109 163.5t163.5 109.5t199 40.5zM512 -118q113 0 209 56t151.5 152t55.5 209t-55.5 209t-151.5 151.5
t-209 55.5t-209 -55.5t-151.5 -151.5t-55.5 -209t55.5 -209t151.5 -152t209 -56zM512 555q106 0 181 -75t75 -181t-75 -181t-181 -75t-181 75t-75 181t75 181t181 75z" />
    <glyph glyph-name="uniE02A" unicode="&#xe02a;" 
d="M512 -128l-171 299h342zM512 725l171 -298h-342z" />
    <glyph glyph-name="uniE02B" unicode="&#xe02b;" 
d="M998 384q11 0 18.5 -7.5t7.5 -18.5v-119q0 -7 -3.5 -13t-9.5 -9.5t-13 -3.5h-68q-16 -81 -62 -150l48 -48q8 -8 8 -18.5t-8 -17.5l-84 -84q-8 -8 -18.5 -8t-18.5 8l-48 48q-69 -46 -150 -62v-68q0 -11 -7.5 -18.5t-18.5 -7.5h-118q-11 0 -18.5 7.5t-7.5 18.5v68
q-81 16 -150 62l-48 -48q-8 -8 -18.5 -8t-18.5 8l-84 84q-8 8 -8 18.5t8 17.5l48 48q-46 69 -62 150h-68q-11 0 -18.5 7.5t-7.5 18.5v119q0 11 7.5 18.5t18.5 7.5h68q16 81 62 150l-48 48q-8 8 -8 18.5t8 18.5l84 84q8 8 18.5 7.5t18.5 -7.5l48 -48q69 46 150 62v68
q0 11 7.5 18.5t18.5 7.5h118q11 0 18.5 -7.5t7.5 -18.5v-68q81 -16 150 -62l48 48q8 8 18.5 7.5t18.5 -7.5l84 -84q8 -8 8 -18.5t-8 -18.5l-48 -48q46 -69 62 -150h68zM512 43q106 0 181 75t75 181t-75 181t-181 75t-181 -75t-75 -181t75 -181t181 -75z" />
    <glyph glyph-name="uniE02C" unicode="&#xe02c;" 
d="M512 811q104 0 199 -40.5t163.5 -109.5t109 -163.5t40.5 -199t-40.5 -199t-109 -163t-163.5 -109t-199 -40.5t-199 40.5t-163.5 109t-109 163t-40.5 199t40.5 199t109 163.5t163.5 109.5t199 40.5zM597 -43v171h-170v-171h170zM714.5 375.5q10.5 25.5 10.5 64.5
q0 24 -10 51q-11 27 -36.5 50.5t-66.5 39.5t-103 16q-48 0 -86 -15t-65.5 -42t-42.5 -63q-16 -39 -16 -93h128q0 36 4.5 53t15.5 32q9 12 28 22q16 8 41 8q36 0 54 -17q19 -18 19 -53v-4v-4q1 -14 -8 -29t-24 -27t-32 -24.5t-33 -28.5q-20 -22 -29 -40q-14 -29 -14 -57v-23
h128v18q0 24 13 40q12 15 26 25q4 3 11 8t13 10t12 9q20 13 36 30.5t26.5 43z" />
    <glyph glyph-name="uniE02D" unicode="&#xe02d;" 
d="M193 85q-9 0 -15.5 6.5t-6.5 16.5v703h682v-703q0 -9 -6.5 -16t-15.5 -7h-638zM299 640v-85h426v85h-426zM299 469v-85h426v85h-426zM299 299v-86h426v86h-426zM959 299q27 0 46 -19t19 -46v-383q0 -27 -19 -45.5t-46 -18.5h-894q-27 0 -46 19t-19 45v383q0 27 19 46
t46 19h63v-218q0 -16 11.5 -27t27.5 -11h690q16 0 27.5 11t11.5 27v218h63zM939 -102v33q0 11 -7.5 18.5t-18.5 7.5h-119q-11 0 -18.5 -7.5t-7.5 -18.5v-33q0 -7 3.5 -13t9.5 -9.5t13 -3.5h119q11 0 18.5 7.5t7.5 18.5z" />
    <glyph glyph-name="uniE02E" unicode="&#xe02e;" 
d="M890 744q18 0 31.5 -13t13.5 -32v-22q0 -18 -13 -31t-32 -13h-756q-18 0 -31.5 13t-13.5 31v22q0 18 13 31.5t32 13.5h244q-9 0 -15.5 6.5t-6.5 15.5v22q0 8 16.5 15.5t28.5 7.5h267q7 0 17 -3t18.5 -8.5t8.5 -11.5v-22q0 -9 -6.5 -15.5t-15.5 -6.5h200zM868 588
q9 0 15.5 -6.5t6.5 -15.5v-668q0 -46 -32.5 -78.5t-78.5 -32.5h-534q-46 0 -78.5 32.5t-32.5 78.5v668q0 9 6.5 15.5t15.5 6.5h712zM312 -57v489q0 9 -6.5 15.5t-16.5 6.5h-22q-9 0 -15.5 -6.5t-6.5 -15.5v-489q0 -9 6.5 -16t15.5 -7h22q5 0 9 2t7 5t5 7t2 9zM467 -57v489
q0 9 -6.5 15.5t-15.5 6.5h-22q-9 0 -15.5 -6.5t-6.5 -15.5v-489q0 -9 6.5 -16t15.5 -7h22q5 0 9 2t7 5t4.5 7t1.5 9zM623 -57v489q0 9 -6.5 15.5t-15.5 6.5h-22q-9 0 -15.5 -6.5t-6.5 -15.5v-489q0 -9 6.5 -16t15.5 -7h22q9 0 15.5 7t6.5 16zM779 -57v489q0 9 -6.5 15.5
t-15.5 6.5h-22q-9 0 -16 -6.5t-7 -15.5v-489q0 -9 6.5 -16t16.5 -7h22q6 0 11 3t8 8.5t3 11.5z" />
    <glyph glyph-name="uniE02F" unicode="&#xe02f;" 
d="M895 811q54 0 91.5 -38t37.5 -92v-594q0 -54 -38 -92t-91 -38h-212l-171 -170l-171 170h-212q-54 0 -91.5 38t-37.5 92v594q0 54 38 92t91 38h766zM683 341v86h-128v128h-86v-128h-128v-86h128v-128h86v128h128z" />
    <glyph glyph-name="uniE030" unicode="&#xe030;" 
d="M396 -103q23 0 39 -16t16 -39q0 -15 -7.5 -28t-20 -20.5t-27.5 -7.5h-203q-15 0 -28 7.5t-20.5 20.5t-7.5 28q0 11 4.5 21.5t12 18t17.5 11.5t22 4h203zM585 671q0 -52 17 -93t44.5 -68t60.5 -50.5t66.5 -47.5t61 -51.5t44.5 -69.5t17 -95q-1 -27 -1 -252q0 -54 -52 -106
q-53 -52 -117 -52h-86h-160q13 26 13 56q0 28 -12 52q26 17 41.5 44.5t15.5 59.5q0 33 -17 61l4 38q14 26 14 56q0 34 -18 64q-8 62 -28 128t-39.5 110.5t-34.5 87.5t-15 66l-2 99q0 44 25 73.5t66.5 29.5t66.5 -29.5t25 -73.5v-37zM148 98q-23 0 -39 16t-16 39t16 39.5
t39 16.5h292q23 0 39.5 -16.5t16.5 -39.5t-16.5 -39t-39.5 -16h-292zM440 53q23 0 39.5 -16t16.5 -39.5t-16.5 -39.5t-39.5 -16h-292q-23 0 -39 16t-16 40q0 11 4 21.5t11.5 17.5t18 11.5t21.5 4.5h292zM193 253q-23 0 -39.5 16.5t-16.5 39.5q0 11 4.5 21.5t12 18t17.5 12
t22 4.5h203q23 0 39 -16.5t16 -39.5t-16 -39.5t-39 -16.5h-203z" />
    <glyph glyph-name="uniE031" unicode="&#xe031;" 
d="M629 700q-23 0 -39.5 16.5t-16.5 39.5t16.5 39t39.5 16h203q23 0 39 -16t16 -39t-16 -39.5t-39 -16.5h-203zM584 544q-23 0 -39 16.5t-16 39.5t16 39t39 16h292q11 0 21.5 -4t18 -11.5t12 -18t4.5 -21.5q0 -23 -16.5 -39.5t-39.5 -16.5h-292zM503 381q8 -62 28 -128.5
t39.5 -111t35 -87.5t15.5 -66l1 -99q0 -44 -24.5 -73t-66.5 -29q-28 0 -48.5 13.5t-31.5 37t-11 51.5v37q0 46 -13.5 83.5t-35.5 62t-50 48t-57 41.5t-57 42t-50 49.5t-35.5 64t-13.5 85.5q1 27 1 251q0 54 52 106q49 49 117 52q24 1 86 1t161 -1q-13 -26 -13 -55
q0 -28 11 -53q-26 -17 -41 -44t-15 -59q0 -33 16 -62l-4 -38q-13 -24 -13 -52v-4q0 -34 17 -63zM876 500q23 0 39.5 -16.5t16.5 -39.5t-16.5 -39.5t-39.5 -16.5h-292q-15 0 -27.5 7.5t-20 20.5t-7.5 28q0 23 16 39.5t39 16.5h292zM832 344q23 0 39 -16.5t16 -39.5
q0 -15 -7.5 -28t-20 -20.5t-27.5 -7.5h-203q-23 0 -39.5 16.5t-16.5 39.5t16.5 39.5t39.5 16.5h203z" />
    <glyph glyph-name="uniE032" unicode="&#xe032;" 
d="M668 677h-312q-18 0 -31 -13t-13 -31h-201v-45h201v-66h-201v-45h201v-67h-201v-45h201v-66h-201v-45h201v-66h-201v-45h201v-178h-290q-9 0 -15.5 6.5t-6.5 15.5v801q0 9 6.5 16t15.5 7h624q9 0 15.5 -6.5t6.5 -16.5v-111zM1002 633q9 0 15.5 -6.5t6.5 -16.5v-801
q0 -9 -6.5 -15.5t-15.5 -6.5h-624q-9 0 -15.5 6.5t-6.5 15.5v801q0 9 6.5 16t15.5 7h624zM913 -35v45h-446v-45h446zM913 76v45h-446v-45h446zM913 187v45h-446v-45h446zM913 298v46h-446v-46h446zM913 410v45h-446v-45h446z" />
    <glyph glyph-name="uniE033" unicode="&#xe033;" 
d="M236 -119l559 559l47 -47l-566 -567l-23 -9h-178l-44 2l-1 43v178l9 22l567 567l47 -47l-558 -559q-8 -8 0 -16l3 -4l-1 -97v-22q12 -1 22 0q28 2 97 2l4 -5q8 -8 16 0zM165 -64l-15 16q-14 14 -23 40l558 558l79 -79l-558 -557q-27 8 -41 22zM638 660l47 48l236 -237
l-47 -47l-55 55l-16 16zM976 605q18 -18 18 -37v-7q0 -17 -10 -27l-32 -31l-236 236l32 32q10 10 26 10q5 -1 8 -1q19 0 37 -17z" />
    <glyph glyph-name="uniE034" unicode="&#xe034;" 
d="M935 423q47 -5 79.5 -40.5t32.5 -84t-32.5 -84t-79.5 -39.5v-166q0 -46 -32.5 -78.5t-78.5 -32.5h-624q-46 0 -78.5 32.5t-32.5 78.5v166q-47 5 -79.5 40t-32.5 83.5t32.5 84t79.5 40.5v165q0 46 32.5 78.5t78.5 32.5h624q46 0 78.5 -32.5t32.5 -78.5v-165zM922 232
q28 0 47.5 19.5t19.5 47.5q0 14 -5 26t-14 21t-21.5 14t-26.5 5q-34 0 -54 -28v207q0 37 -26 63t-63 26h-534q-37 0 -63 -26.5t-26 -62.5v-207q-20 28 -54 28q-18 0 -33.5 -9t-24.5 -24t-9 -33q0 -28 19.5 -47.5t47.5 -19.5q34 0 54 28v-206q0 -37 26 -63t63 -26h534
q37 0 63 26t26 63v206q20 -28 54 -28zM646 321q9 0 15.5 -6.5t6.5 -15.5v-23q0 -9 -6.5 -15.5t-15.5 -6.5h-112v-111q0 -9 -6.5 -15.5t-15.5 -6.5h-22q-9 0 -16 6.5t-7 15.5v111h-111q-9 0 -15.5 6.5t-6.5 15.5v23q0 6 3 11t8 8t11 3h111v111q0 6 3 11.5t8.5 8t11.5 2.5h22
q5 0 9 -1.5t7 -4.5t4.5 -7t1.5 -9v-111h112z" />
    <glyph glyph-name="uniE035" unicode="&#xe035;" 
d="M-2 300l561 422v-305h34q213 0 323 -127.5t110 -379.5q0 -1 -2 -2t-5 -0.5t-3 2.5q-5 20 -11.5 38.5t-22 47t-35.5 53t-53.5 50t-74 43.5t-99 29.5t-127.5 11.5h-34v-307z" />
    <glyph glyph-name="uniE036" unicode="&#xe036;" 
d="M267 388q37 0 63 -26t26 -63q0 -24 -12 -45t-32.5 -32.5t-44.5 -11.5q-37 0 -63 26t-26 63t26 63t63 26zM512 388q37 0 63 -26t26 -63t-26 -63t-63 -26q-24 0 -44.5 11.5t-32.5 32t-12 45.5q0 37 26 63t63 26zM757 388q37 0 63 -26t26 -63t-26 -63t-63 -26t-63 26t-26 63
q0 24 12 44.5t32.5 32.5t44.5 12z" />
    <glyph glyph-name="uniE037" unicode="&#xe037;" 
d="M-85 768h554v-939h-554v939zM555 768h554v-939h-554v939z" />
    <glyph glyph-name="uniE038" unicode="&#xe038;" 
d="M-85 768h554v-256h-554v256zM-85 427h554v-86h-554v86zM-85 256h554v-85h-554v85zM-85 85h554v-85h-554v85zM-85 -85h554v-86h-554v86zM555 768h554v-256h-554v256zM555 427h554v-86h-554v86zM555 256h554v-85h-554v85zM555 85h554v-85h-554v85zM555 -85h554v-86h-554v86
z" />
    <glyph glyph-name="uniE039" unicode="&#xe039;" 
d="M939 384v-171h-342v-341h-170v341h-342v171h342v341h170v-341h342z" />
    <glyph glyph-name="uniE050" unicode="&#xe050;" 
d="M471 724q8 0 14 -5.5t6 -13.5v-814q0 -8 -6 -13.5t-14 -5.5h-452q-8 0 -13.5 5.5t-5.5 13.5v814q0 8 5.5 13.5t13.5 5.5h452zM405 -0v43h-320v-43h320zM405 107v42h-320v-42h320zM405 213v43h-320v-43h320zM405 320v43h-320v-43h320zM405 427v42h-320v-42h320zM405 533
v43h-320v-43h320zM1005 724q8 0 13.5 -5.5t5.5 -13.5v-814q0 -8 -5.5 -13.5t-13.5 -5.5h-452q-5 0 -9.5 2.5t-7.5 7t-3 9.5v814q0 8 6 13.5t14 5.5h452zM939 -0v43h-320v-43h320zM939 107v256h-320v-256h320zM939 427v42h-320v-42h320zM939 533v43h-320v-43h320z" />
    <glyph glyph-name="uniE051" unicode="&#xe051;" 
d="M43 640v85h426v-85h-426zM43 512v64h426v-64h-426zM43 384v64h426v-64h-426zM43 256v64h426v-64h-426zM43 128v64h426v-64h-426zM43 -0v64h426v-64h-426zM43 -128v64h426v-64h-426zM555 512v64h426v-64h-426zM555 384v64h426v-64h-426zM555 -0v320h426v-320h-426z
M555 -128v64h426v-64h-426zM555 640v85h426v-85h-426z" />
    <glyph glyph-name="uniE052" unicode="&#xe052;" 
d="M275 128q-8 0 -13.5 5.5t-5.5 13.5v559q0 8 5.5 13.5t13.5 5.5h474q8 0 13.5 -5.5t5.5 -13.5v-559q0 -8 -5.5 -13.5t-13.5 -5.5h-474zM341 577v-43h342v43h-342zM341 470v-42h342v42h-342zM341 364v-43h342v43h-342zM900 299q8 0 15 -3t12.5 -8.5t8.5 -12.5t3 -15v-349
q0 -16 -11.5 -27.5t-27.5 -11.5h-47v-8q0 -3 -1 -5.5t-2.5 -4t-4 -2.5t-5.5 -1h-59q-4 0 -7 1.5t-4.5 4.5t-1.5 7v8h-512v-8q0 -5 -4 -9t-9 -4h-59q-5 0 -9 3.5t-4 9.5v8h-47q-16 0 -27.5 11.5t-11.5 27.5v349q0 16 11.5 27.5t27.5 11.5h89v-175q0 -16 11.5 -27.5
t27.5 -11.5h520q11 0 19.5 5.5t14 14.5t5.5 19v175h89zM853 -30v17q0 5 -3.5 9t-9.5 4h-59q-5 0 -9 -4t-4 -9v-17q0 -3 1 -5t3 -4t4 -3t5 -1h59q5 0 9 4t4 9z" />
    <glyph glyph-name="uniE053" unicode="&#xe053;" 
d="M853 299q0 -73 -26 -140t-72.5 -118t-108.5 -83l-29 45q83 41 133 120.5t50 175t-50 175t-133 120.5l29 46q94 -49 150.5 -140t56.5 -201zM725 298.5q0 -76.5 -41 -139t-108 -93.5l-29 46q27 11 50 30t39.5 43t26 53.5t9.5 60.5q0 41 -16 78.5t-44 65.5t-65 43l29 45
q67 -31 108 -93.5t41 -139zM715 748q121 -66 193.5 -186t72.5 -263t-72.5 -263t-193.5 -186l-29 45q110 59 176 167t66 237q0 86 -30.5 164.5t-85 139.5t-126.5 100zM64 427h139l287 297v-852l-287 299h-139q-5 0 -9.5 1.5t-7.5 5t-5 8t-2 9.5v208q0 10 7 17t17 7z" />
    <glyph glyph-name="uniE054" unicode="&#xe054;" 
d="M213 725h598v-896l-299 256l-299 -256v896zM683 363v64h-342v-64h342zM683 491v64h-342v-64h342z" />
    <glyph glyph-name="uniE055" unicode="&#xe055;" 
d="M762 725l262 -853h-159l-69 213h-265l-63 -213h-151l258 853h187zM560 213h210l-65 228q-11 36 -41 159h-2q-2 -8 -16 -68.5t-22 -90.5zM341 747v-64h-213v64h213zM418 341l-25 -83q-56 33 -100.5 84.5t-57.5 105.5q-16 -62 -71.5 -120.5t-120.5 -86.5l-43 79
q15 2 36.5 10t50 26.5t52 43.5t41.5 65.5t20 89.5h-179v85h427v-85h-179q7 -146 149 -214z" />
    <glyph glyph-name="uniE056" unicode="&#xe056;" 
d="M768 213q71 0 121 -50t50 -120.5t-50 -120.5t-121 -50t-121 50t-50 121q0 26 8 50l-136 77q-30 -39 -74.5 -62t-95.5 -23q-88 0 -151 62.5t-63 151t62.5 151t151.5 62.5q51 0 95.5 -22.5t74.5 -61.5l136 76q-8 24 -8 51q0 71 50 120.5t121 49.5t121 -50t50 -120.5
t-50 -120.5t-121 -50q-77 0 -128 57l-137 -82q9 -30 9 -60.5t-9 -60.5l137 -82q51 57 128 57zM768 619q-27 0 -45.5 -19t-18.5 -45.5t18.5 -45t45.5 -18.5t45.5 18.5t18.5 45t-18.5 45.5t-45.5 19zM299 213q35 0 60 25t25 60.5t-25 60.5t-60.5 25t-60.5 -25t-25 -60
q0 -17 7 -33t18.5 -27.5t27.5 -18.5t33 -7zM768 -21q27 0 45.5 18.5t18.5 45t-18.5 45.5t-45.5 19t-45.5 -19t-18.5 -45.5t18.5 -45t45.5 -18.5z" />
    <glyph glyph-name="uniE057" unicode="&#xe057;" 
d="M502 21h-278q-22 0 -37.5 15.5t-15.5 37.5v1q0 22 15.5 37.5t37.5 15.5h278q22 0 37.5 -15.5t15.5 -37.5v-1q0 -22 -15.5 -37.5t-37.5 -15.5zM224 171q-14 0 -26.5 7t-19.5 19t-7 27q0 23 15.5 38t37.5 15h278q22 0 37.5 -15.5t15.5 -37.5q0 -23 -15.5 -38t-37.5 -15
h-278zM266 320q-22 0 -37.5 15.5t-15.5 37.5v1q0 22 15.5 37.5t37.5 15.5h193q22 0 37.5 -15.5t15.5 -37.5v-1q0 -22 -15.5 -37.5t-37.5 -15.5h-193zM459 -21q22 0 37.5 -15.5t15.5 -37.5v-1q0 -22 -15.5 -37.5t-37.5 -15.5h-193q-22 0 -37.5 15.5t-15.5 37.5v1
q0 22 15.5 37.5t37.5 15.5h193zM896 247v-230q0 -50 -48 -97.5t-108 -47.5h-201q16 24 16 53v1q0 33 -21 58q28 10 45.5 35t17.5 55v1q0 46 -35 74q35 28 35 73v2q0 30 -16 53.5t-42 34.5l-2 6q17 25 18 55v1q0 33 -20.5 58.5t-51.5 33.5q-2 5 -7 15l-19.5 46.5t-14.5 39
t-11.5 41t-3.5 32.5v77q0 40 24 67t63 27q38 0 60.5 -27t22.5 -67v-34q0 -42 13 -76.5t34 -57t48 -44t55 -38t54.5 -38.5t47.5 -45t34 -58.5t13 -78.5z" />
    <glyph glyph-name="uniE058" unicode="&#xe058;" 
d="M565 619q-22 0 -37.5 15.5t-15.5 37.5q0 23 15.5 38t37.5 15h193q11 0 20.5 -4t16.5 -11t11.5 -17t4.5 -21q0 -23 -15.5 -38t-37.5 -15h-193zM758 277q22 0 37.5 -15.5t15.5 -37.5q0 -23 -15.5 -38t-37.5 -15h-193q-22 0 -37.5 15.5t-15.5 37.5q0 23 15.5 38t37.5 15h193
zM800 427q22 0 37.5 -15.5t15.5 -37.5v-1q0 -22 -15.5 -37.5t-37.5 -15.5h-278q-22 0 -37.5 15.5t-15.5 37.5v1q0 22 15.5 37.5t37.5 15.5h278zM800 576q22 0 37.5 -15.5t15.5 -37.5v-1q0 -11 -4 -20.5t-11 -16.5t-17 -11.5t-21 -4.5h-278q-22 0 -37.5 15.5t-15.5 37.5v1
q0 22 15.5 37.5t37.5 15.5h278zM469 224q0 -33 20.5 -59t51.5 -34q2 -5 7 -15l25.5 -61.5t16 -49t7.5 -48.5v-76q0 -40 -24 -67t-63 -27q-38 0 -60.5 26.5t-22.5 67.5v34q0 47 -16.5 84.5t-43 62.5t-58.5 46.5t-63.5 43.5t-58 47t-43 63.5t-16.5 87.5v231q0 32 21 65t58 56
t77 23h202q-16 -24 -17 -53q0 -33 21 -59q-28 -10 -45.5 -34.5t-17.5 -55.5v-1q0 -46 35 -74q-35 -28 -35 -72v-2v-1q0 -29 16 -53t42 -35l2 -6q-18 -24 -18 -55z" />
    <glyph glyph-name="uniE059" unicode="&#xe059;" 
d="M919 596q8 0 14 -5.5t6 -13.5v-686q0 -8 -6 -13.5t-14 -5.5h-516q-8 0 -13.5 5.5t-5.5 13.5v686q0 8 5.5 13.5t13.5 5.5h516zM853 -0v43h-384v-43h384zM853 107v42h-384v-42h384zM853 213v43h-384v-43h384zM853 320v43h-384v-43h384zM853 427v42h-384v-42h384zM640 640
h-237q-10 0 -19.5 -3t-17 -9t-13.5 -13.5t-9 -17.5h-173v-42h170v-64h-170v-43h170v-64h-170v-43h170v-64h-170v-42h170v-64h-170v-43h170v-128h-236q-8 0 -14 5.5t-6 13.5v686q0 8 6 13.5t14 5.5h516q8 0 13.5 -5.5t5.5 -13.5v-65z" />
    <glyph glyph-name="uniE05A" unicode="&#xe05a;" 
d="M848 725q37 0 64 -26.5t27 -63.5v-587q0 -37 -26.5 -64t-64.5 -27h-229l-107 -128l-107 128h-229q-37 0 -64 26.5t-27 64.5v587q0 25 12.5 45.5t33 32.5t45.5 12h672zM683 299v85h-128v128h-86v-128h-128v-85h128v-128h86v128h128z" />
    <glyph glyph-name="uniE03A" unicode="&#xe03a;" 
d="M926 329q12 -12 12 -31q1 0 1 -1q0 -17 -13 -29l-385 -383q-13 -13 -30.5 -13t-30.5 13l-60 60q-13 12 -13 30t13 30l178 177l34 31h-504q-18 0 -30.5 12.5t-12.5 30.5v85q0 18 12.5 30.5t30.5 12.5h504l-34 31l-178 177q-13 12 -13 30t13 30l60 61q12 13 29 13h1
q18 -1 31 -13z" />
    <glyph glyph-name="uniE03B" unicode="&#xe03b;" horiz-adv-x="1214" 
d="M1202 329q12 -12 12 -30.5t-12 -30.5l-386 -383q-13 -13 -30.5 -13t-29.5 13l-61 60q-13 12 -13 29v1q1 18 13 30l178 177l128 117l-128 116l-178 177q-13 12 -13 29v1q1 18 13 30l61 61q12 13 29 13h1q18 -1 30 -13zM555 380q19 -7 30.5 -23.5t11.5 -37.5v-297
q0 -27 -19 -46t-45 -19h-468q-27 0 -46 19t-19 46v297q0 21 12 37.5t31 23.5v19q0 100 75 170.5t181 70.5t181 -70.5t75 -170.5v-19zM341 128v85q0 18 -12.5 30.5t-30 12.5t-30 -12.5t-12.5 -30.5v-85q0 -18 12.5 -30.5t30 -12.5t30 12.5t12.5 30.5zM448 384v20q0 53 -44 91
t-105.5 38t-105.5 -38t-44 -91v-20h299z" />
    <glyph glyph-name="uniE03D" unicode="&#xe03d;" 
d="M926 329q12 -12 12 -31q1 0 1 -1q0 -17 -13 -29l-300 -298q-13 -13 -30.5 -13t-29.5 13l-61 60q-8 8 -11 19t0 22t11 20l93 91l99 91q12 11 12 26t-12 26l-99 90l-93 92q-13 12 -13 28v1q1 18 13 31l61 60q12 13 30 13t30 -13zM542 329q12 -12 12 -31q1 0 1 -1
q0 -17 -13 -29l-300 -298q-13 -13 -30.5 -13t-29.5 13l-61 60q-13 12 -13 29v1q1 18 13 31l93 91l99 91q12 11 12 26t-12 26l-99 90l-93 92q-13 12 -13 28v1q1 18 13 31l61 60q12 13 30 13t30 -13z" />
    <glyph glyph-name="uniE044" unicode="&#xe044;" 
d="M156 275l-12 -63h-36l18 96q3 14 8 59h32q-2 -22 -4 -32h1q18 36 49 36q1 0 4 -0.5t4 -0.5l-7 -36h-7q-19 0 -32 -16.5t-18 -42.5zM274 209q-63 0 -63 68q0 33 24.5 63.5t62.5 30.5q23 0 36.5 -12t13.5 -32q0 -51 -94 -51h-7q-1 -12 6 -25t30 -13t42 10l4 -27
q-24 -12 -55 -12zM492 283q-7 -38 -7 -71h-34q0 9 3 35h-1q-21 -38 -55 -38q-21 0 -33.5 14.5t-12.5 40t11.5 50t37 41t55.5 16.5t52 -7zM645 212h-34l3 28h-1q-20 -31 -53 -31q-21 0 -34 15.5t-13 49.5t27.5 65.5t69.5 31.5q13 0 24 -5l13 72h37l-32 -170q-5 -29 -7 -56z
M739 209q-63 0 -63 68q0 33 25 63.5t63 30.5q23 0 36.5 -12t13.5 -32q0 -51 -95 -51h-7q-1 -12 6.5 -25t30 -13t42.5 10l3 -27q-24 -12 -55 -12zM920 334h-11q-9 0 -19 -8q-20 -16 -27 -51l-11 -63h-37l18 96q3 14 8 59h32q-2 -22 -4 -32h1q18 36 49 36q1 0 4 -0.5t4 -0.5z
M568 320.5q-16 -21.5 -16 -51.5t25 -30q13 0 25.5 13.5t16.5 36.5l9 47q-8 6 -26 6t-34 -21.5zM779 327q0 16 -18 16t-29.5 -12t-15.5 -27h5q58 0 58 23zM412 239q14 0 27.5 16.5t18.5 44.5l8 41q-8 2 -19.5 2t-23.5 -10q-33 -26 -33 -60t22 -34zM313 327q0 16 -18 16
t-29.5 -12t-14.5 -27h5q57 0 57 23z" />
    <glyph glyph-name="uniE046" unicode="&#xe046;" 
d="M432 555l256 -257l-256 -256l-91 90l166 166l-166 166z" />
    <glyph glyph-name="uniE048" unicode="&#xe048;" 
d="M830 810q80 0 137 -57t57 -137v-635q0 -80 -57 -137t-137 -57h-636q-80 0 -137 56.5t-57 137.5v635q0 80 57 137t137 57h636zM808 111l-188 188l188 187l-109 108l-187 -187l-187 187l-109 -108l188 -187l-188 -188l109 -108l187 187l187 -187z" />
    <glyph glyph-name="uniE049" unicode="&#xe049;" 
d="M512 -171q-15 0 -27 6t-16 16h85q-2 -6 -8 -11t-15 -8t-19 -3zM597 43q9 0 15.5 -6.5t6.5 -15.5t-6.5 -15t-15.5 -6h-170q-9 0 -15.5 6t-6.5 15t6.5 15.5t15.5 6.5h170zM597 -21q9 0 15.5 -6.5t6.5 -15.5t-6.5 -15t-15.5 -6h-170q-9 0 -15.5 6t-6.5 15t6.5 15.5t15.5 6.5
h170zM597 -85q9 0 15.5 -6.5t6.5 -15.5t-6.5 -15t-15.5 -6h-170q-9 0 -15.5 6t-6.5 15t6.5 15.5t15.5 6.5h170zM512 555q106 0 181 -75t75 -181q0 -78 -42.5 -141.5t-111.5 -93.5h-81v152q28 7 46 30t18 53q0 35 -25 60t-60 25q-23 0 -42.5 -11.5t-31 -31t-11.5 -42.5
q0 -30 18 -53t46 -30v-152h-81q-69 30 -111.5 93.5t-42.5 141.5q0 106 75 181t181 75zM555 298.5q0 -17.5 -12.5 -30t-30.5 -12.5t-30.5 12.5t-12.5 30t12.5 30t30.5 12.5t30.5 -12.5t12.5 -30zM533 811v-86h-42v86h42zM368 701l-39 -16l-33 79l40 16zM135 646l30 30l60 -61
l-30 -30zM799 -18l30 30l60 -60l-30 -30zM126 482l-16 -40l-79 33l16 39zM898 116l16 39l79 -33l-16 -39zM85 320v-43h-85v43h85zM939 277v43h85v-43h-85zM31 122l79 33l16 -39l-79 -33zM993 475l-79 -33l-16 40l79 32zM135 -48l60 60l30 -30l-60 -60zM799 615l60 61l30 -30
l-60 -61zM728 764l-33 -79l-39 16l32 79z" />
    <glyph glyph-name="uniE04A" unicode="&#xe04a;" 
d="M512 -171q-15 0 -27 6t-16 16h85q-2 -6 -8 -11t-15 -8t-19 -3zM597 43q9 0 15.5 -6.5t6.5 -15.5t-6.5 -15t-15.5 -6h-170q-9 0 -15.5 6t-6.5 15t6.5 15.5t15.5 6.5h170zM597 -21q9 0 15.5 -6.5t6.5 -15.5t-6.5 -15t-15.5 -6h-170q-9 0 -15.5 6t-6.5 15t6.5 15.5t15.5 6.5
h170zM597 -85q9 0 15.5 -6.5t6.5 -15.5t-6.5 -15t-15.5 -6h-170q-9 0 -15.5 6t-6.5 15t6.5 15.5t15.5 6.5h170zM512 555q106 0 181 -75t75 -181q0 -78 -42.5 -141.5t-111.5 -93.5h-81v152q28 7 46 30t18 53q0 35 -25 60t-60 25q-23 0 -42.5 -11.5t-31 -31t-11.5 -42.5
q0 -30 18 -53t46 -30v-152h-81q-69 30 -111.5 93.5t-42.5 141.5q0 106 75 181t181 75zM555 298.5q0 -17.5 -12.5 -30t-30.5 -12.5t-30.5 12.5t-12.5 30t12.5 30t30.5 12.5t30.5 -12.5t12.5 -30z" />
    <glyph glyph-name="uniE04B" unicode="&#xe04b;" 
d="M533 811v-86h-42v86h42zM368 701l-39 -16l-33 79l40 16zM135 646l30 30l60 -61l-30 -30zM799 -18l30 30l60 -60l-30 -30zM126 482l-16 -40l-79 33l16 39zM898 116l16 39l79 -33l-16 -39zM85 320v-43h-85v43h85zM939 277v43h85v-43h-85zM31 122l79 33l16 -39l-79 -33z
M993 475l-79 -33l-16 40l79 32zM135 -48l60 60l30 -30l-60 -60zM799 615l60 61l30 -30l-60 -61zM728 764l-33 -79l-39 16l32 79z" />
    <glyph glyph-name="uniE04C" unicode="&#xe04c;" 
d="M512 -171q-15 0 -27 6t-16 16h85q-4 -9 -15.5 -15.5t-26.5 -6.5zM597 43q9 0 15.5 -6.5t6.5 -15.5t-6.5 -15t-15.5 -6h-170q-9 0 -15.5 6t-6.5 15q0 6 3 11t8 8t11 3h170zM597 -21q9 0 15.5 -6.5t6.5 -15.5t-6.5 -15t-15.5 -6h-170q-4 0 -8.5 1.5t-7 4.5t-4.5 7t-2 8
q0 9 6.5 15.5t15.5 6.5h170zM597 -85q9 0 15.5 -6.5t6.5 -15.5t-6.5 -15t-15.5 -6h-170q-9 0 -15.5 6t-6.5 15t6.5 15.5t15.5 6.5h170zM512 555q106 0 181 -75t75 -181q0 -78 -42.5 -141.5t-111.5 -93.5h-38q2 51 10.5 102t20.5 88t19.5 55.5t12.5 30.5l1 1l-98 -58l-30 37
l-30 -37l-98 58l1 -1q9 -18 19.5 -45.5t26 -95.5t17.5 -135h-38q-69 30 -111.5 93.5t-42.5 141.5q0 106 75 181t181 75zM570 256q-29 -72 -32 -192h-52q-3 120 -32 192l37 -21l21 31l21 -31z" />
    <glyph glyph-name="uniE060" unicode="&#xe060;" 
d="M1018 482q6 -6 6 -14t-6 -14l-46 -46l-181 180l47 47q6 6 14 6t13 -6zM171 -32l590 590l181 -180l-591 -591h-180v181zM261 -62l515 515l-30 30l-515 -515zM768 811v-86h-768v86h768zM597 640v-85h-597v85h597zM427 469v-85h-427v85h427zM256 299v-86h-256v86h256z" />
    <glyph glyph-name="uniE061" unicode="&#xe061;" 
d="M749 85h-47q-8 0 -13.5 6t-5.5 14v132q0 5 2.5 9.5t7 7t9.5 2.5h47q8 0 13.5 -5.5t5.5 -13.5v-132q0 -8 -5.5 -14t-13.5 -6zM811 85v64h213v-192q0 -35 -25 -60t-60 -25h-854q-35 0 -60 25t-25 60v192h213v-64q0 -18 12.5 -30t30.5 -12h85q18 0 30.5 12.5t12.5 29.5v64
h256v-64q0 -18 12.5 -30t30.5 -12h85q18 0 30.5 12t12.5 30zM939 639q35 0 60 -25t25 -60v-362h-213v64q0 18 -12.5 30.5t-30.5 12.5h-85q-18 0 -30.5 -12.5t-12.5 -30.5v-64h-256v64q0 18 -12.5 30.5t-30.5 12.5h-85q-12 0 -21.5 -6t-15.5 -15.5t-6 -21.5v-64h-213v362
q0 35 25 60t60 25h185q27 76 93 124t149 48q55 0 104 -22t84.5 -61t53.5 -89h185zM364 639h296q-22 39 -61.5 62.5t-86.5 23.5t-86.5 -23.5t-61.5 -62.5zM322 85h-47q-5 0 -9.5 3t-7 7t-2.5 10v132q0 8 5.5 13.5t13.5 5.5h47q8 0 13.5 -5.5t5.5 -13.5v-132q0 -8 -5.5 -14
t-13.5 -6z" />
    <glyph glyph-name="uniE062" unicode="&#xe062;" 
d="M427 43v341h-86v85l256 86v-512h-170zM939 810q35 0 60 -25t25 -61v-852q0 -35 -25 -60t-60 -25h-854q-35 0 -60 25t-25 60v852q0 35 25 60.5t60 25.5h854zM939 -128v853h-854v-853h854z" />
    <glyph glyph-name="uniE063" unicode="&#xe063;" 
d="M512 811q104 0 199 -40.5t163.5 -109.5t109 -163.5t40.5 -199t-40.5 -199t-109 -163t-163.5 -109t-199 -40.5t-199 40.5t-163.5 109t-109 163t-40.5 199t40.5 199t109 163.5t163.5 109.5t199 40.5zM957 270q1 15 1 29q0 158 -100 281q-6 -6 -6 -7q-113 -113 -258 -180
q17 -35 33 -70q1 -1 1.5 -4t1.5 -3q43 6 87 6q118 0 226 -46q6 -2 14 -6zM814 627q-61 56 -138.5 87t-163.5 31q-74 0 -144 -24q116 -123 196 -270q141 64 250 176zM304 693q-87 -46 -147.5 -125.5t-81.5 -177.5q73 -13 148 -13q145 0 280 49q-82 146 -199 267zM66 299
q0 -89 33 -168.5t92 -141.5q43 91 114 163q81 81 185 124q37 15 75 26q-15 34 -31 66q-150 -56 -311 -56q-79 0 -156 14q-1 -14 -1 -27zM241 -56q120 -91 271 -91q80 0 154 27q-12 187 -77 361q-117 -30 -209 -108.5t-139 -188.5zM728 -91q83 46 141 123t79 171
q-107 54 -227 54h-4q-32 0 -63 -4q59 -166 74 -344z" />
    <glyph glyph-name="uniE064" unicode="&#xe064;" 
d="M912 -17q27 -47 27 -87q0 -28 -14 -52q-32 -57 -124 -57h-3h-572q-94 0 -127 57q-14 24 -14 52q0 39 27 87l229 401v427h342v-427zM427 725v-341h170v341h-170zM384 -43q18 0 30.5 12.5t12.5 30.5t-12.5 30.5t-30.5 12.5q-12 0 -21.5 -6t-15.5 -15.5t-6 -21.5
q0 -18 12.5 -30.5t30.5 -12.5zM469.5 128q17.5 0 30 12.5t12.5 30.5q0 12 -5.5 21.5t-15.5 15t-22 5.5q-18 0 -30 -12.5t-12 -30t12.5 -30t30 -12.5zM597.5 -43q35.5 0 60.5 25t25 60.5t-25 60.5t-61 25q-23 0 -42.5 -11.5t-31 -31t-11.5 -42.5q0 -35 25 -60.5t60.5 -25.5z
" />
    <glyph glyph-name="uniE065" unicode="&#xe065;" 
d="M663 275q-29 -124 -91.5 -202.5t-128.5 -90.5q-12 -2 -24 -2q-56 0 -126 43q-86 52 -156 159q-60 92 -96 208q-29 94 -40 201q-1 12 -1 23q0 52 28 82q42 45 124 50h20q24 0 61 -2q19 -1 34 -1q29 0 41 4q19 3 38 10t33.5 13.5t35.5 15t40 13.5q36 11 68 11q37 0 67 -15
q44 -22 60 -89q26 -103 32 -201q1 -25 1 -50q0 -95 -20 -180zM397 495q0 -3 -1 -7q0 -28 36 -29h3q48 0 106 36q41 25 41 43q0 5 -3 9l-4 4q-13 9 -34 15q-18 5 -38 5h-6q-24 -1 -45 -8t-36.5 -24.5t-18.5 -43.5zM125 472q-4 -5 -4 -10q0 -16 40 -27q35 -10 68 -11
q25 0 48 6q40 9 40 32q0 8 -5 18q-15 29 -43 39q-17 6 -34 6q-11 0 -21 -2q-28 -6 -53 -20t-36 -31zM410 173q42 7 73.5 32.5t49.5 59t26 74.5q1 7 -1.5 8t-6.5 -5q-60 -70 -156 -87q-22 -4 -43 -4h-8q-67 0 -125 33q-6 3 -8 1l-1 -1q0 -2 3 -7q32 -55 84 -84q38 -22 81 -22
h8zM717 196q-4 -24 -42 -25q-4 0 -8 1q13 33 23 69q27 -16 27 -37v-8zM701 41q41 -11 64 -43.5t28 -74.5q1 -5 -1 -5.5t-5 3.5q-37 50 -101 67q-26 7 -50 7q-36 0 -70 -15q-4 -2 -5.5 -0.5t1.5 5.5q25 34 61 51q22 10 46 10q16 -1 32 -5zM1008 310q17 -21 17 -54
q0 -14 -3 -29q-29 -154 -104 -267q-65 -98 -147 -144q-61 -34 -108 -34q-16 0 -31 4q-40 11 -77 55t-59 112q19 9 36 24q17 -59 48 -97t64 -47q11 -3 24 -3q39 0 89 29q66 38 119 121q62 95 87 223q3 14 2 26q0 27 -13 44q-25 32 -77 39q-16 2 -35 2.5t-34.5 1.5t-30.5 5
q-16 4 -64 29q3 26 5 53q51 -26 73 -33q18 -5 38 -6t43 -2t42 -4q65 -10 96 -48zM909 128q-3 -10 -34.5 -10t-60.5 11q-52 20 -52 45q0 5 2 9q7 17 30 24q10 2 20 2q14 0 27 -5q31 -12 52 -38q17 -21 17 -33q0 -3 -1 -5z" />
    <glyph glyph-name="uniE066" unicode="&#xe066;" 
d="M384 -85l-384 384l149 149l235 -235l491 512l149 -151z" />
    <glyph glyph-name="uniE013" unicode="&#xe013;" 
d="M448 43v128h128v-128h-128zM512 768q95 0 182 -37t150 -100t100 -150t37 -182.5t-37 -182.5t-100 -149.5t-150 -100t-182 -37.5t-182 37.5t-150 100t-100 149.5t-37 182.5t37 182.5t100 150t150 100t182 37zM512 -85q78 0 149 30t122.5 81.5t82 123t30.5 149.5
q0 104 -51.5 192.5t-140 140t-192.5 51.5t-192.5 -51.5t-140 -140t-51.5 -193t51.5 -193t140 -139.5t192.5 -51zM469 213l-42 342h170l-42 -342h-86z" />
    <glyph glyph-name="uniE03E" unicode="&#xe03e;" 
d="M85 213v171h86v-171h-86zM853 597h86v-597h-86v597zM213 213v171l598 213v-597l-164 59q-20 -45 -62.5 -73.5t-93.5 -28.5q-71 0 -121 50t-50 121q0 23 6 45zM387 151q-3 -12 -3 -23q0 -44 31 -75.5t76 -31.5q12 0 24 3t22.5 8t19.5 12.5t16.5 16.5t12.5 19z" />
    <glyph glyph-name="uniE05B" unicode="&#xe05b;" 
d="M256 725h683v-682h-299v384h-384v298zM85 -128v427h427v-427h-427z" />
    <glyph glyph-name="uniE067" unicode="&#xe067;" horiz-adv-x="256" 
d="M85 -213v1024h43v-1024h-43z" />
    <glyph glyph-name="uniE068" unicode="&#xe068;" horiz-adv-x="512" 
d="M302 600q59 -59 92 -137t33 -164.5t-33 -164.5t-92 -137l-38 38q52 52 80.5 120t28.5 144t-28.5 144t-80.5 120zM211 510q88 -88 88 -212q0 -123 -88 -211l-38 38q72 72 72 173.5t-72 173.5zM83 382l38 37q50 -50 50 -120.5t-50 -120.5l-38 38q34 34 34 83t-34 83z" />
    <glyph glyph-name="uniE069" unicode="&#xe069;" 
d="M512 811q104 0 199 -40.5t163.5 -109.5t109 -163.5t40.5 -199t-40.5 -199t-109 -163t-163.5 -109t-199 -40.5t-199 40.5t-163.5 109t-109 163t-40.5 199t40.5 199t109 163.5t163.5 109.5t199 40.5zM811 256v85h-256v256h-86v-256h-256v-85h256v-256h86v256h256z" />
    <glyph glyph-name="uniE06A" unicode="&#xe06a;" 
d="M512 811q104 0 199 -40.5t163.5 -109.5t109 -163.5t40.5 -199t-40.5 -199t-109 -163t-163.5 -109t-199 -40.5t-199 40.5t-163.5 109t-109 163t-40.5 199t40.5 199t109 163.5t163.5 109.5t199 40.5zM445 43l408 407l-109 109l-299 -300l-145 145l-108 -109z" />
    <glyph glyph-name="uniE06B" unicode="&#xe06b;" 
d="M512 725q116 0 214 -57t155.5 -155t57.5 -214t-57.5 -214.5t-155.5 -155.5t-214 -57t-214 57t-155.5 155.5t-57.5 214.5t57.5 214t155.5 155t214 57zM768 256v85h-213v214h-86v-214h-213v-85h213v-213h86v213h213z" />
    <glyph glyph-name="uniE06C" unicode="&#xe06c;" 
d="M512 725q116 0 214 -57t155.5 -155t57.5 -214t-57.5 -214.5t-155.5 -155.5t-214 -57t-214 57t-155.5 155.5t-57.5 214.5q0 87 34 165.5t91 136t136 91t166 33.5zM469 85l339 338l-94 95l-245 -245l-118 118l-94 -94z" />
    <glyph glyph-name="uniE03F" unicode="&#xe03f;" 
d="M512 811q104 0 199 -40.5t163.5 -109.5t109 -163.5t40.5 -188.5t-26 -172q-50 -151 -182.5 -250.5t-303.5 -99.5q-104 0 -199 40.5t-163.5 109t-109 163t-40.5 199t40.5 199t109 163.5t163.5 109.5t199 40.5zM804 -38.5q125 108.5 149 271.5q-19 -22 -38 -33.5
t-25.5 -11.5t-12.5 1.5t-14 13t-13 30.5t-10 28t-5 20t2.5 30.5t12.5 48t27 53t33 31.5q4 -18 10 -18t14 17q-8 24 -19 48q-21 6 -25 9q2 -7 10.5 -17t7.5 -22q-15 16 -24 10t-12 -24q-8 -51 -21 -51q-7 0 -19 16t-1 23q3 2 9 5.5t10.5 7.5t-3 9.5t-19 10.5t-12.5 6
q3 7 14 18t15.5 20.5t-6 24t-11.5 21.5q8 -12 23 -11v2q0 12 8 30q-23 28 -50 52q-20 14 -25 11q8 -5 35 -39q25 -32 25 -42v-1q-11 7 -21 8.5t-16 6t-11.5 14t-24.5 39t-19 37v9.5q-110 70 -250 70q-1 0 -1 1q-139 0 -253 -87q-116 -87 -160 -219q-23 -67 -23 -137
q1 -2 1 -4q0 -72 22 -140q43 -131 159 -218t274 -87t283 108.5zM416 634q0 23 64 23q21 0 29 -6q-2 -21 -67 -34q-11 -2 -14 -3q0 6 10 8.5t13.5 5t3 5t-3.5 3.5t-7.5 0t-9 -3l-9 -4t-7.5 -3q-2 4 -2 8zM500 582q4 7 13 6.5t34.5 -17.5t30.5 -28.5t-8 -11.5q-10 0 -22 9
q3 -12 2.5 -17.5t-8 -7t-14.5 -0.5t-16 2.5t-13 1.5q1 9 26 8q-7 14 -37 34t-31 21q-1 5 8 10t20 3.5t15 -13.5zM723 552q2 9 -7 6q-3 -1 -4 2t12 16.5t19 -1.5q3 -8 -5 -18t-15 -5zM589 399l4 13q4 14 11 15q-1 -3 -1 -8v-7q7 3 16 0.5t7 -10.5q-8 -9 -13.5 -3.5t-10.5 1
t-13 -0.5zM587 587q-15 9 -39 15.5t-39 15.5q8 12 45.5 36t62.5 24t28 -6q20 -37 39 -49.5t17.5 -20t-21.5 -11t-20.5 -6.5t5 -10t0.5 -16t-6.5 -29t0.5 -30q-15 -2 -21 5q-17 16 -26.5 44.5t-24.5 37.5zM496 197q-5 -7 -12.5 -7t-23 12t-25 12h-12.5q6 7 18 6.5t24.5 -7
t19.5 -10.5t11 -6zM776 517q10 -4 11.5 -17t-1.5 -15q-1 2 -8 8.5t-7 10.5q6 4 5 13zM821 518q3 -4 3.5 -12t-17.5 -20q-5 0 -3.5 10.5t0.5 13.5t-9 7.5t-19.5 7t-7.5 23.5q2 -1 23.5 -11.5t29.5 -18.5zM155 565q6 4 46 39.5t59 35.5q16 0 16 -31v-10q7 6 16.5 5.5
t22.5 -13.5q42 -42 69 -42q16 0 33 15q-18 8 -4 22t27 10q-10 -11 -10 -25t8 -30q0 4 11.5 15t17.5 3q2 -4 -10 -14t-27 -20q-41 -27 -42 -44q0 -8 19.5 -19t37.5 -22t15 -20q13 10 17.5 23.5t3 21.5t-1.5 13q0 15 11 15q1 0 2 1q31 0 70 -24q17 -10 17 -18.5t-5 -14.5
q7 3 16.5 2.5t12.5 -4.5q-6 -3 -20.5 -10t-35 -17.5t-30.5 -23.5q16 10 22 10t11.5 -2.5t12.5 -9t11 -2.5q0 -12 -10.5 -15.5t-11 0t5.5 9.5q-9 -1 -41 -21t-33 -23q-15 -4 -18.5 -23.5t-4.5 -41.5t-9 -29q-4 -3 -21 16t-19 20q-7 8 -17 1t-23 -2.5t-26.5 -6t-13.5 -24.5
t5 -26q8 -14 19.5 -14t24 4.5t14.5 0.5t-1 -12.5t4.5 -12t15 -4.5t13 -2.5t12.5 -17.5t29.5 -16t48.5 19q2 -4 -1 -11t6 -9q7 14 24.5 14t38.5 -6q51 -16 61 -40q4 -11 -2 -19q27 3 52 3q80 0 81 -13q0 -1 -2 -3.5t-20 -41t-29.5 -49t-29.5 -17.5t-25 -17t-27.5 -24
t-27.5 -14t-8 7q-3 -14 -37 -39.5t-47 -25.5t-13 22q0 7 10.5 29t10.5 36.5t-5.5 25.5t-29 27.5t-32.5 27t-10.5 23.5t1.5 22.5t9.5 26t6.5 22.5q0 14 -85 41q-36 11 -47 15.5t-29 19t-35.5 38.5t-29.5 53q-12 28 -17 28v0q0 -2 8.5 -21.5t8.5 -28.5t-3 -14q-4 11 -25 56
t-21 67.5t12.5 42.5t12.5 52l-3 36q0 14 4 32q-13 -1 -14 1.5t5 23.5q1 3 -6 7.5t-3 14.5q-2 -1 -16.5 -8t-33.5 -7zM361 602q-18 10 -18.5 15.5t13 5.5t17.5 -2q17 -7 22 -37q-2 1 -17.5 0t-28 2.5t-12.5 10.5q0 10 11.5 4.5t12.5 0.5zM497 189q2 2 8 2.5t2 5.5
q18 -5 36 -7q-22 -6 -33 -6t-13 5z" />
    <glyph glyph-name="uniE041" unicode="&#xe041;" horiz-adv-x="768" 
d="M406 199q-73 0 -73 79q0 38 28.5 73t71 35t55.5 -30q4 -9 4 -21q0 -59 -108 -59h-9q-2 -14 6.5 -28.5t35 -14.5t48.5 12l4 -32q-27 -14 -63 -14zM451 335q-1 19 -21 19h-1q-20 0 -32 -14q-13 -14 -18 -32h3q69 0 69 27zM343 385l-9 -42q-2 0 -8 1q-22 0 -36.5 -19.5
t-20.5 -49.5l-13 -72h-43l21 110q3 17 9 69h37q-2 -25 -4 -38h1q21 41 56 42q2 0 5.5 -0.5t4.5 -0.5zM585 354q-32 0 -32 -21q0 -13 23 -25q37 -20 37 -48.5t-21 -44.5t-54 -16t-51 13l11 31q21 -12 38 -12q32 0 33 22q0 15 -24 27q-35 19 -35 50.5t35 47.5q16 8 40 8h2
q22 0 37 -10l-11 -30q-15 8 -28 8zM146 385q61 0 61 -67q0 -30 -13 -57.5t-37.5 -44.5t-50 -17t-39.5 8l-15 -76h-42l35 184q4 23 10 67h38l-4 -30h1q24 33 56 33zM144 258.5q18 26.5 18 59.5t-28 33q-17 0 -32 -18t-21 -48l-8 -44q11 -9 32 -9t39 26.5zM748 346
q-15 8 -31 8q-30 0 -30 -21q0 -13 23 -25q37 -20 37 -48.5t-21 -44.5t-53.5 -16t-50.5 13l11 31q21 -12 38 -12q32 0 32 22q0 15 -23 27q-36 19 -36 46v1q0 27 20 43t50 16t44 -10z" />
    <glyph glyph-name="uniE042" unicode="&#xe042;" 
d="M577 239q-25 0 -25 30t16 51.5t34.5 21.5t25.5 -6l-9 -47q-4 -23 -16.5 -36.5t-25.5 -13.5zM731.5 331q11.5 12 29.5 12t18 -16q0 -23 -55 -23h-5h-3q4 15 15.5 27zM412 239q-22 0 -22 28.5t18 51.5t43 23q9 0 15 -1l-8 -41q-7 -38 -28 -54q-9 -7 -18 -7zM965 469
q24 0 37 -15t13 -26t-1 -17l-38 -225q-4 -24 -24 -41t-45 -17h-499q-130 -1 -209.5 -17t-122.5 -66q2 9 16 83h-33q-24 0 -37 15t-13 26.5t1 16.5l38 225q4 24 24 41t45 17h848zM220 370l-8 1q-30 0 -49 -36h-1q2 11 4 32h-32q-5 -45 -8 -59l-18 -96h36l12 63q5 26 18 42.5
t32 16.5h7zM348 327q0 44 -55 44q-20 0 -41 -15q-41 -29 -41 -81v-2q0 -29 16 -46.5t47 -17.5t55 12l-4 27q-20 -10 -42.5 -10t-30 13t-5.5 25h8q93 0 93 51zM492 283l16 81q-22 7 -47 7q-51 0 -80 -33t-29 -76q0 -24 12.5 -38.5t33.5 -14.5q35 0 55 38h1q-3 -26 -3 -35h34
v21t7 50zM645 212q2 27 7 56l32 170h-37l-13 -72q-10 4 -24 5q-42 0 -69.5 -31.5t-27.5 -65.5t13 -49.5t34 -15.5q33 0 53 31h1l-3 -28h34zM712 276h8q94 0 94 51q0 20 -13.5 32t-38 12t-44.5 -15q-42 -30 -42 -83q0 -29 16 -46.5t47.5 -17.5t54.5 12l-3 27
q-20 -10 -42.5 -10t-30 13t-6.5 25zM927 370l-8 1q-30 0 -49 -36h-1q2 11 4 32h-32q-5 -45 -8 -59l-18 -96h37l11 63q5 26 18 42.5t32 16.5h7zM265.5 331q11.5 12 29.5 12t18 -16q0 -23 -55 -23h-5h-2q3 15 14.5 27z" />
    <glyph glyph-name="uniE06D" unicode="&#xe06d;" 
d="M512 811q104 0 199 -40.5t163.5 -109.5t109 -163.5t40.5 -199t-40.5 -199t-109 -163t-163.5 -109t-199 -40.5t-199 40.5t-163.5 109t-109 163t-40.5 199t40.5 199t109 163.5t163.5 109.5t199 40.5zM841 268q12 12 12 30.5t-12 30.5l-301 299q-13 13 -30.5 13t-30.5 -13
l-60 -60q-13 -13 -13 -30.5t13 -29.5l93 -93l34 -31h-333q-18 0 -30 -12.5t-12 -30.5v-85q0 -18 12.5 -30.5t29.5 -12.5h333l-34 -31l-93 -92q-8 -8 -11 -19.5t0 -22.5t11 -19l60 -60q12 -13 30 -13t31 13z" />
    <glyph glyph-name="uniE06E" unicode="&#xe06e;" 
d="M512 811q104 0 199 -40.5t163.5 -109.5t109 -163.5t40.5 -199t-40.5 -199t-109 -163t-163.5 -109t-199 -40.5t-199 40.5t-163.5 109t-109 163t-40.5 199t40.5 199t109 163.5t163.5 109.5t199 40.5zM760 280q8 8 8 18.5t-8 18.5l-230 230q-4 4 -8.5 6t-9.5 2t-10 -2t-8 -6
l-50 -49q-8 -8 -7.5 -18.5t7.5 -18.5l30 -30l81 -74h-273q-11 0 -18.5 -7.5t-7.5 -18.5v-65q0 -11 7.5 -18t18.5 -7h274l-82 -76l-29 -29q-5 -5 -7 -11.5t0 -13.5t7 -12l49 -49q8 -8 18.5 -7.5t17.5 7.5z" />
    <glyph glyph-name="uniE03C" unicode="&#xe03c;" 
d="M641 299l-410 410q-12 11 -11.5 27.5t11.5 27.5l35 35q12 12 28 11.5t27 -11.5l473 -473q10 -10 11 -25t-8 -26q-1 -2 -3 -4l-11 -11l-462 -462q-11 -11 -27.5 -11t-27.5 11l-35 36q-12 11 -11.5 27t11.5 27z" />
    <glyph glyph-name="uniE06F" unicode="&#xe06f;" 
d="M56 438v0zM981 640q18 0 30.5 -12.5t12.5 -30.5v-554q0 -18 -12.5 -30.5t-30.5 -12.5t-30 13q-129 131 -254 194q28 -45 28 -96v-4q0 -64 -40 -118t-108.5 -85.5t-149.5 -31.5q-124 0 -211.5 68.5t-87.5 166.5q0 84 68 149h-47q-47 0 -93 -54q-10 -10 -23.5 -10t-23 9.5
t-9.5 22.5v192q0 13 9.5 22.5t23 9.5t23.5 -10q47 -54 93 -54h363q196 0 439 243q12 13 30 13zM426.5 -43q88.5 0 151 44t62.5 105.5t-62.5 105.5t-150.5 44t-151 -43.5t-63 -105.5t62.5 -106t151 -44zM56 202v0z" />
    <glyph glyph-name="uniE04D" unicode="&#xe04d;" 
d="M1024 299q0 -25 -11 -47.5t-30.5 -37.5t-43.5 -20v-193q0 -54 -38 -91.5t-92 -37.5h-594q-54 0 -92 38t-38 91v193q-37 7 -61 36.5t-24 68t24 68t61 36.5v193q0 54 38 91.5t92 37.5h594q54 0 92 -37.5t38 -91.5v-193q37 -7 61 -36.5t24 -67.5zM768 85v86h-512v-86h512z
M768 256v85h-512v-85h512zM768 427v85h-512v-85h512z" />
    <glyph glyph-name="uniE070" unicode="&#xe070;" 
d="M512 811q104 0 199 -40.5t163.5 -109.5t109 -163.5t40.5 -199t-40.5 -199t-109 -163t-163.5 -109t-199 -40.5t-199 40.5t-163.5 109t-109 163t-40.5 199t40.5 199t109 163.5t163.5 109.5t199 40.5zM768 103l-196 196l196 196l-60 60l-196 -196l-196 196l-60 -60l196 -196
l-196 -196l60 -61l196 196l196 -196z" />
    <glyph glyph-name="uniE090" unicode="&#xe090;" 
d="M1024 616q-43 -64 -105 -108q1 -14 1 -28q0 -178 -100 -330q-109 -167 -288 -232q-98 -35 -210 -35q-175 0 -322 94q25 -3 50 -3q146 0 261 90q-68 1 -122 42t-74 104q20 -4 44 -4t51 7q-73 15 -121 73t-48 133v3q44 -25 95 -26q-43 29 -68 75t-25 101.5t28 103.5
q79 -97 191.5 -155t241.5 -64q-5 23 -5 48q0 87 61.5 148.5t150.5 61.5t151 -67q71 14 134 51q-24 -75 -93 -116q64 7 121 33z" />
    <glyph glyph-name="uniE091" unicode="&#xe091;" 
d="M967 811q23 0 40 -16.5t17 -40.5v-911q0 -23 -16.5 -39.5t-40.5 -16.5h-263v405h139l21 149h-160v96q0 37 16 56t61 19h72v137q-52 7 -100 7q-90 0 -144 -55t-54 -153v-107h-128v-149h128v-405h-498q-33 0 -49 28q-8 13 -8 28v911q0 23 16.5 40t40.5 17h910z" />
    <glyph glyph-name="uniE071" unicode="&#xe071;" 
d="M939 640h42v-683h-42v683zM811 384q18 0 30 -12.5t12 -30.5v-85q0 -28 -26 -39q-8 -3 -16 -4h-419l34 -31l94 -92q13 -13 13 -29l-1 -1q0 -18 -12 -31l-61 -60q-12 -13 -29.5 -13t-30.5 13l-301 299q-12 12 -12 30q0 1 -1 2q0 18 13 29l301 299q13 13 30.5 13t29.5 -13
l61 -60q13 -13 13 -29l-1 -1q0 -18 -12 -30l-94 -93l-34 -31h419z" />
    <glyph glyph-name="uniE092" unicode="&#xe092;" 
d="M906 129q-56 -124 -129 -199q-44 -45 -92 -45h-3q-26 0 -67 19q-42 19 -84 20h-2q-43 0 -87 -19.5t-72 -19.5q-45 0 -83 35t-82.5 102.5t-68.5 156.5q-18 70 -18 131q0 18 2 34q6 76 34.5 119t60.5 70q65 53 137 53q37 0 92.5 -19.5t82 -19.5t79 19.5t90.5 19.5
q108 0 183 -93q-45 -25 -72 -64.5t-31 -83.5q-1 -11 -1 -22q0 -33 9 -65q12 -42 44 -77t78 -52zM640 652q-26 -32 -64 -52q-37 -20 -73 -20h-4q-2 13 -2 26q1 25 9 50q14 39 39 69.5t64 51.5t76 24q2 -13 2 -25q0 -64 -47 -124z" />
    <glyph glyph-name="uniE093" unicode="&#xe093;" 
d="M822 501q21 0 35.5 -15t14.5 -35v-225q0 -33 -30 -46q-9 -4 -25 -4t-30.5 14.5t-14.5 35.5v225q0 21 14.5 35.5t35.5 14.5zM202 501q21 0 35.5 -15t14.5 -35v-225q0 -21 -14.5 -35.5t-35.5 -14.5t-35.5 14.5t-14.5 35.5v225q0 21 14.5 35.5t35.5 14.5zM625 689
q93 -42 116 -149l4 -28h-466q2 78 62 139q24 24 57 38l-40 56q-2 2 2.5 5t6.5 1l41 -58q45 17 103.5 17t104.5 -17l41 58q2 2 6 -1t3 -5zM409.5 586q11.5 0 20 8t8.5 19.5t-8.5 20t-20 8.5t-19.5 -8.5t-8 -20t8 -19.5t19.5 -8zM614.5 586q11.5 0 19.5 8t8 19.5t-8 20
t-19.5 8.5t-20 -8.5t-8.5 -20t8.5 -19.5t20 -8zM277 88v397h470v-397q0 -12 -8.5 -20t-19.5 -8h-60v-125q0 -21 -15 -35.5t-35.5 -14.5t-35.5 14.5t-15 35.5v125h-92v-125q0 -21 -15 -35.5t-35.5 -14.5t-35.5 14.5t-15 35.5v125h-60q-12 0 -20 8t-8 20z" />
    <glyph glyph-name="uniE094" unicode="&#xe094;" 
d="M475 650l451 62v-401h-451v339zM442 311h-344v287l344 48v-335zM475 279h451v-394l-451 58v336zM442 279v-332l-344 44v288h344z" />
    <glyph glyph-name="uniE095" unicode="&#xe095;" 
d="M305.5 637q24.5 -23 24.5 -48q0 -46 -31 -76.5t-110 -30.5h-140l38 178h135q59 0 83.5 -23zM688 609q5 -13 5 -29q0 -37 -31 -67.5t-110 -30.5h-140l38 178h135q83 -1 103 -51zM256.5 370q24.5 -23 24.5 -48q0 -45 -31 -76t-110 -31h-140l38 178h135q59 0 83.5 -23z
M619.5 370q24.5 -23 24.5 -60t-32.5 -66t-108.5 -29h-140l38 178h135q59 0 83.5 -23zM999.5 478q24.5 -23 24.5 -48q0 -46 -31 -76t-110 -30h-140l38 177h135q59 0 83.5 -23zM972 146q0 -42 -33 -71t-108 -29h-141l39 177h134q84 0 104 -50q5 -13 5 -27zM567.5 92
q24.5 -23 24.5 -59.5t-32.5 -65.5t-108.5 -29h-140l38 177h135q59 0 83.5 -23z" />
    <glyph glyph-name="uniE096" unicode="&#xe096;" 
d="M967 811q23 0 40 -16.5t17 -40.5v-911q0 -23 -16.5 -39.5t-40.5 -16.5h-910q-33 0 -49 28q-8 13 -8 28v911q0 23 16.5 40t40.5 17h910zM171 299q0 -100 52.5 -182.5t139.5 -125.5l-163 447q-29 -66 -29 -139zM416 -29q47 -14 100.5 -14t108.5 20q-2 2 -2 4l-105 288z
M559 459l123 -367l34 114q26 83 26 121t-33 91q-12 19 -13.5 23t-4.5 9t-4 8l-2.5 7.5t-2.5 11.5t-1 18t7 25q16 31 50 31l4 -1q-98 90 -230 90q-88 0 -163.5 -41.5t-121.5 -112.5h22l91 4q14 1 15 -12.5t-15.5 -15.5t-36.5 -3l124 -370l75 224l-53 146l-36 3q-9 1 -12 8
t1 14t13 6q56 -4 90 -4l91 4q14 1 15 -12.5t-13 -15.5q-18 -2 -39 -3zM684 4q77 45 123 123.5t46 168.5t-42 166q2 -17 3 -35q0 -57 -26 -122z" />
    <glyph glyph-name="uniE097" unicode="&#xe097;" 
d="M379 609q56 -2 85 -59.5t29 -106t-18 -74.5q-25 -25 -57 -26h-2q-57 0 -88 57q-33 60 -33 108q0 39 21 70q25 30 63 31zM282 153q36 30 108 38q18 2 33 2q11 0 21 -1q52 -36 77 -62q23 -26 23 -65.5t-34.5 -67.5t-104 -28t-112.5 31.5t-43 78t32 74.5zM967 811
q23 0 40 -16.5t17 -40.5v-911q0 -23 -16.5 -39.5t-40.5 -16.5h-910q-23 0 -40 16.5t-17 39.5v911q0 23 16.5 40t40.5 17h910zM392 282q0 -28 27 -64q-108 -3 -174 -41q-43 -25 -58.5 -57t-15.5 -58q0 -53 48 -92q48 -41 146 -41q117 2 178 55t61 121q-1 48 -22.5 77.5
t-51.5 53.5l-31 26q-7 7 -15 16t-8 27t24 43q33 29 52 55.5t19 65t-9 67t-27 47t-27 23.5h57l58 34h-186q-100 0 -162 -51q-58 -56 -58 -119t41 -106q39 -46 113 -47q14 0 30 2q-9 -26 -9 -37zM896 311v57h-100v101h-58v-101h-97v-57h97v-98h58v98h100z" />
    <glyph glyph-name="uniE098" unicode="&#xe098;" 
d="M967 811q23 0 40 -16.5t17 -40.5v-911q0 -23 -16.5 -39.5t-40.5 -16.5h-910q-33 0 -49 28q-8 13 -8 28v911q0 23 16.5 40t40.5 17h910zM783 438q41 30 70 72q-38 -17 -80 -22q46 27 61 78q-42 -25 -88 -34q-42 44 -101.5 44t-100.5 -41t-41 -99q0 -16 4 -32
q-86 4 -161 43t-128 103q-19 -33 -19 -69.5t17 -67t46 -50.5q-34 1 -64 18v-2q0 -50 32 -88.5t80 -48.5q-18 -5 -34 -5t-29 2q14 -42 50 -69t81 -28q-76 -60 -174 -60q-16 0 -33 2q98 -63 214 -63q75 0 140 24q119 43 189 149.5t70 225.5q-1 8 -1 18z" />
    <glyph glyph-name="uniE099" unicode="&#xe099;" 
d="M437 204v205l196 -103zM967 811q23 0 40 -16.5t17 -40.5v-911q0 -23 -16.5 -39.5t-40.5 -16.5h-910q-33 0 -49 28q-8 13 -8 28v911q0 23 16.5 40t40.5 17h910zM875 271v55q0 52 -5 102l-2 16q-13 92 -88 101q-62 8 -227 9h-41q-258 0 -295.5 -16.5t-52.5 -61.5t-15 -150
v-55q0 -52 5 -101l2 -16q13 -90 89 -101q58 -8 247 -10h20q256 0 299 17.5t54 80.5l3 13q7 58 7 117z" />
    <glyph glyph-name="uniE0B0" unicode="&#xe0b0;" 
d="M967 832q23 0 40 -16.5t17 -40.5v-910q0 -23 -16.5 -40t-40.5 -17h-910q-23 0 -40 16.5t-17 40.5v910q0 23 16.5 40t40.5 17h910zM875 293v55q0 52 -5 101l-2 16q-10 70 -53 91q-20 9 -34 11q-80 8 -228 8h-41q-258 0 -295.5 -16t-52.5 -61.5t-15 -149.5v-55
q0 -153 36 -190q23 -24 73.5 -30t204.5 -8h49q256 0 299 17.5t54 79.5l3 13q7 59 7 118zM416 194v250l241 -126z" />
    <glyph glyph-name="uniE0B1" unicode="&#xe0b1;" 
d="M967 832q23 0 40 -16.5t17 -40.5v-910q0 -23 -16.5 -40t-40.5 -17h-263v384h133l20 160h-153v101q0 37 16 56t61 19h83v138q-46 6 -128.5 6t-137 -53.5t-54.5 -150.5v-116h-128v-160h128v-384h-487q-23 0 -40 16.5t-17 40.5v910q0 23 16.5 40t40.5 17h910z" />
    <glyph glyph-name="uniE0B2" unicode="&#xe0b2;" 
d="M967 832q23 0 40 -16.5t17 -40.5v-910q0 -23 -16.5 -40t-40.5 -17h-910q-23 0 -40 16.5t-17 40.5v910q0 23 16.5 40t40.5 17h910zM187 516q0 -85 65 -129q-35 1 -66 19v-2q0 -63 47 -107q29 -28 70 -36q-19 -5 -35.5 -5t-30.5 3q19 -60 77 -88q28 -13 59 -13
q-79 -62 -181 -63q-17 0 -34 3q102 -65 223 -66q78 0 145 25q124 45 196 155.5t72 233.5v19q43 31 73 75q-40 -18 -84 -23q47 28 64 81q-43 -26 -92 -36q-43 46 -105 46t-104.5 -42.5t-42.5 -102.5q0 -17 4 -33q-120 6 -217 74q-46 33 -83 78q-20 -34 -20 -66z" />
    <glyph glyph-name="uniE0B3" unicode="&#xe0b3;" 
d="M277 168q37 31 112 39q22 3 40 3q9 0 16 -1q54 -38 79 -64q24 -27 24 -68t-35.5 -70t-107.5 -29t-116.5 33t-44.5 80.5t33 76.5zM430 623q22 -17 36 -46q29 -58 29 -108t-18 -77q-25 -26 -59 -27h-2q-59 0 -91 59q-35 63 -35 113q0 40 22 72q26 31 66 31q29 0 52 -17z
M967 832q23 0 40 -16.5t17 -40.5v-910q0 -23 -16.5 -40t-40.5 -17h-910q-23 0 -40 16.5t-17 40.5v910q0 23 16.5 40t40.5 17h910zM391 302q0 -29 28 -66q-112 -3 -181 -43q-44 -26 -60 -59t-16 -60q0 -55 50 -94q50 -42 151 -44q121 2 184 57t63 126q-1 50 -23 80t-53 55
l-33 27q-7 7 -15 16.5t-8 28t25 44.5q34 30 53.5 57.5t19.5 67.5q0 2 1 4q0 37 -10 65q-10 30 -28.5 49t-27.5 24h59l60 35h-193q-38 0 -82 -9.5t-85 -43.5q-60 -58 -60 -123t42 -109q40 -48 117 -49q15 0 31 2q-9 -27 -9 -38zM896 320v64h-96v96h-64v-96h-96v-64h96v-96h64
v96h96z" />
    <glyph glyph-name="uniE0B4" unicode="&#xe0b4;" 
d="M967 832q23 0 40 -16.5t17 -40.5v-910q0 -23 -16.5 -40t-40.5 -17h-910q-23 0 -40 16.5t-17 40.5v910q0 23 16.5 40t40.5 17h910zM160 320q0 -103 54.5 -188t143.5 -129l-168 460q-30 -68 -30 -143zM413 -18q49 -14 104 -14t112 20q-2 3 -3 5l-108 296zM561 485l127 -378
l35 117q27 86 27 125t-35 94q-12 19 -14 23.5t-4.5 9.5t-3.5 8t-4 11.5t-3 28t17 38t42 18.5h5q-101 92 -238 92q-91 0 -168.5 -42.5t-125.5 -115.5q13 0 23 -1l93 5q14 1 15.5 -13.5t-12.5 -15.5q-19 -2 -41 -4l129 -381l77 231l-55 150l-37 4q-9 1 -12 8t1 14t13 7
q58 -4 93 -5l94 5q14 1 15 -13.5t-13 -15.5q-19 -3 -40 -4zM689 16q80 47 127.5 127.5t47.5 173.5t-43 172q2 -18 2 -36q0 -59 -26 -126z" />
    <glyph glyph-name="uniE09A" unicode="&#xe09a;" 
d="M225 470q23 11 48 12h67q7 0 7 6v1q-1 57 -1 74.5t10 35.5l-1 -1l-130 -127v-1zM369 561l1 -73q0 -11 -8 -18.5t-19 -7.5h-67q-37 0 -50 -17t-13 -37t4 -49t16.5 -91.5t23.5 -85t30.5 -31t64 -18.5t74.5 -14q21 -5 38 -5h5q18 1 26 18q19 44 19 101q0 2 1.5 2t1.5 -1.5
v-7.5v-3q0 -59 36 -72q24 -9 87 -16q27 -3 40.5 -21.5t13.5 -57.5t-5.5 -50t-18 -15t-35 -4t-37.5 0.5t-21 8.5t-6 18t0.5 13.5t3 6t4 4.5t5.5 3l6 1.5t7 1t7 0.5h7.5h8t3.5 2t-0.5 8.5t-1.5 13.5t2 13.5t3 8.5q1 4 -5 4h-16q-37 0 -51 -4q-16 -5 -25 -14q-19 -18 -19 -72
t26.5 -71.5t104.5 -17.5t98 23q52 61 70 256q2 19 2 49v18q0 37 -3 87q-6 109 -13.5 146.5t-35.5 47.5t-81 16q-45 5 -95 5h-16q-5 33 -40 46q-21 8 -63 9h-13q-31 0 -38 -4q-44 -12 -44 -53zM706 275q-25 11 -53 11q-11 0 -22 -2q5 42 37 42h2q36 -1 36 -51zM1024 754v-911
q0 -23 -16.5 -39.5t-40.5 -16.5h-910q-23 0 -40 16.5t-17 39.5v911q0 23 16.5 40t40.5 17h910q23 0 40 -17t17 -40z" />
    <glyph glyph-name="uniE09B" unicode="&#xe09b;" 
d="M967 811q23 0 40 -16.5t17 -40.5v-911q0 -23 -16.5 -39.5t-40.5 -16.5h-910q-33 0 -49 28q-8 13 -8 28v911q0 23 16.5 40t40.5 17h910zM661 555v85h-298v-85h42q31 0 37 -12.5t6 -30.5v-427q0 -33 -18 -39q-9 -3 -25 -3h-42v-86h298v86h-42q-40 0 -43 29v13v427
q0 33 18 39q9 3 25 4h42z" />
    <glyph glyph-name="uniE04E" unicode="&#xe04e;" 
d="M334 640h612q32 0 55 -23t23 -55v-527q0 -32 -23 -55t-55 -23h-612q-32 0 -69.5 17.5t-58.5 42.5l-185 222q-21 25 -21 60t21 59l185 222q21 25 58.5 42.5t69.5 17.5zM281 238q25 -25 54.5 -25t48.5 12q42 25 43 74q0 35 -25 60t-60.5 25t-60.5 -25t-25 -60.5t25 -60.5z
" />
    <glyph glyph-name="uniE072" unicode="&#xe072;" 
d="M51 -171l-13 20q302 213 302 483q0 34 -5 68q-34 -31 -91 -41q-21 -4 -37 -4q-85 0 -146 61.5t-61 145.5t61 145.5t140 61.5q150 0 209.5 -92.5t59.5 -254.5q0 -240 -180 -421q-99 -101 -239 -172zM605 -171l-12 20q302 213 302 483q0 34 -5 68q-25 -23 -63.5 -34
t-65.5 -11q-85 0 -146 61.5t-61 145.5t61 145.5t140 61.5q150 0 209.5 -92.5t59.5 -254.5q0 -240 -180 -421q-99 -101 -239 -172z" />
    <glyph glyph-name="uniE073" unicode="&#xe073;" 
d="M973 769l13 -19q-302 -213 -302 -484q0 -34 5 -68q25 23 63 34.5t65 11.5q85 0 146 -62t61 -145.5t-61 -145.5t-140 -62q-150 0 -209.5 92.5t-59.5 255.5q0 240 180 421q99 100 239 171zM419 769l12 -19q-302 -213 -302 -484q0 -34 5 -68q25 23 63.5 34.5t65.5 11.5
q85 0 146 -62t61 -145.5t-61 -145.5t-140 -62q-150 0 -209.5 92.5t-59.5 245.5t61 269t154.5 196.5t203.5 136.5z" />
    <glyph glyph-name="uniE09C" unicode="&#xe09c;" 
d="M0 -85v768l597 128v-1024zM128 469v-337l73 -4v246l178 -259l90 -4v376l-86 -5v-250l-169 242zM1010 597q6 0 10 -4t4 -10v-185q0 -6 -4 -10t-10 -4h-71v-469h-299v170h213v43h-213v85h213v43h-213v85h213v43h-213v85h213v43h-213v171h299v-86h71zM981 -43v171h43v-171
h-43zM981 171v170h43v-170h-43z" />
    <glyph glyph-name="uniE074" unicode="&#xe074;" 
d="M814 600q59 -59 92 -137t33 -164.5t-33 -164.5t-92 -137t-137 -92t-165 -33t-165 33t-137 92t-92 137t-33 164.5t33 164.5t92 137t137 92t165 33t165 -33t137 -92zM753.5 57.5q47.5 47.5 73.5 109.5t26 132q0 46 -12 90t-34 82t-54 69q-47 47 -109.5 73.5t-131.5 26.5
t-131.5 -26.5t-110 -73.5t-73.5 -109.5t-26 -132t26 -131.5t73.5 -109.5t110 -74t131.5 -26.5t131.5 26.5t110 74z" />
    <glyph glyph-name="uniE075" unicode="&#xe075;" 
d="M939 298.5q0 -86.5 -33 -164.5t-92 -137t-137 -92t-165 -33t-165 33t-137 92t-92 137t-33 164.5t33 164.5t92 137t137 92t165 33t165 -33t137 -92t92 -137t33 -164.5z" />
    <glyph glyph-name="uniE076" unicode="&#xe076;" 
d="M1024 341v-85h-87q-15 -151 -123 -259t-259 -123v-87h-86v87q-151 15 -259 123t-123 259h-87v85h87q15 151 123 259t259 123v88h86v-88q151 -15 259 -122.5t123 -259.5h87zM753.5 57.5q47.5 47.5 73.5 109.5t26 131.5t-26 132t-73.5 109.5t-110 73.5t-131.5 26.5
t-131.5 -26.5t-110 -73.5t-73.5 -109.5t-26 -132t26 -131.5t73.5 -109.5t110 -74t131.5 -26.5t131.5 26.5t110 74z" />
    <glyph glyph-name="uniE077" unicode="&#xe077;" 
d="M725 298.5q0 -88.5 -62.5 -151t-150.5 -62.5t-150.5 62.5t-62.5 151t62.5 151t150.5 62.5t150.5 -62.5t62.5 -151z" />
    <glyph glyph-name="uniE078" unicode="&#xe078;" 
d="M846 725q39 0 66 -27t27 -66v-667q0 -39 -27.5 -66t-65.5 -27h-668q-39 0 -66 27.5t-27 65.5v667q0 39 27.5 66t65.5 27h668zM427 -43l298 384h-213l85 299l-298 -384h213z" />
    <glyph glyph-name="uniE079" unicode="&#xe079;" 
d="M512 768q95 0 182 -37t150 -100t100 -150t37 -182.5t-37 -182.5t-100 -149.5t-150 -100t-182 -37.5t-182 37.5t-150 100t-100 149.5t-37 182.5t37 182.5t100 150t150 100t182 37zM512 -85q78 0 149 30t122.5 81.5t82 123t30.5 149.5q0 104 -51.5 192.5t-140 140
t-192.5 51.5t-192.5 -51.5t-140 -140t-51.5 -193t51.5 -193t140 -139.5t192.5 -51zM555 597l-43 -256h171l-214 -341l43 256h-171z" />
    <glyph glyph-name="uniE07A" unicode="&#xe07a;" 
d="M512 768q95 0 182 -37t150 -100t100 -150t37 -182.5t-37 -182.5t-100 -149.5t-150 -100t-182 -37.5t-182 37.5t-150 100t-100 149.5t-37 182.5t37 182.5t100 150t150 100t182 37zM427 -43l298 384h-213l85 299l-298 -384h213z" />
    <glyph glyph-name="uniE07B" unicode="&#xe07b;" 
d="M900 725q22 0 33 -19q5 -9 6 -19v-776q0 -16 -11.5 -27.5t-27.5 -11.5h-776q-16 0 -27.5 11.5t-11.5 27.5v776q0 22 20 33q9 5 19 5h776zM853 -23v644q0 8 -5.5 13.5t-13.5 5.5h-644q-8 0 -13.5 -5.5t-5.5 -13.5v-644q0 -8 5.5 -14t13.5 -6h644q8 0 13.5 6t5.5 14z
M587 630l-75 -289h213l-287 -373l74 288h-213z" />
    <glyph glyph-name="uniE07C" unicode="&#xe07c;" 
d="M505 539q3 6 10 6q9 -1 25 -11q28 -18 32 -28t-5.5 -10.5t-20.5 8.5q5 -19 -3 -20.5t-20 0.5t-19 2q1 8 23 6q-6 14 -32 30.5t-26 17.5q-1 5 6.5 9t16.5 2t13 -12zM434 585q0 19 49 19h5q18 0 25 -5q-2 -15 -31.5 -23.5t-37.5 -8.5q0 5 8 7.5t11.5 4.5t3 4t-3.5 3t-6.5 0
t-7 -2.5t-8 -3.5t-6.5 -2q-1 4 -1 7zM695 514q2 8 -5 5q-3 -1 -4 2t10.5 14t15.5 1.5t-3.5 -18t-13.5 -4.5zM581 383l3 11q4 12 10 14q-1 -4 -1 -8v-6q6 3 13.5 0.5t6.5 -8.5q-7 -7 -11.5 -3.5t-10 0.5t-10.5 0zM415 542h-3h-11q-36 0 -36 10h1q0 10 9.5 5t10.5 0
q-28 15 -6 17h6q25 0 29 -32zM641 470h-3q-25 0 -38 44q-5 18 -15.5 26.5t-33 14t-38.5 15.5q7 11 36 30t53 21.5t27 -4.5q17 -31 33 -42.5t15 -17.5t-18.5 -9t-17.5 -6t5 -8.5t0.5 -13.5t-6 -25t0.5 -25zM503 204q2 1 5 1.5t4 1t-1 4.5q15 -4 31 -6q-18 -5 -27.5 -5
t-11.5 4zM780 485q11 -11 -13 -27q-4 0 -2.5 9t-1 14t-21.5 9q-12 2 -8 20q1 -1 20.5 -10t25.5 -15zM741 484q9 -3 10 -14t-1 -13q-13 13 -13 16q5 3 4 11zM210 525q3 1 38 33q34 31 52 31q14 0 15 -23q0 -5 -1 -12q5 4 16.5 4t33 -23.5t39 -23.5t31.5 13q-16 8 -3 19.5
t23 8.5q-9 -10 -9 -21.5t7 -25.5q0 3 10 12.5t15 2.5q2 -4 -15 -16t-34.5 -26.5t-18 -22.5t16.5 -17.5t32 -19t13 -16.5q17 14 17 32v8q-4 22 8 22h4q25 0 47 -13t25 -20t-4 -15q6 2 14.5 1.5t10.5 -3.5q-4 -2 -34 -16t-39 -28q18 11 25.5 8t13.5 -8.5t10 -2.5
q0 -11 -14 -14q-5 -1 -5.5 1.5t4.5 7.5q-7 -1 -34 -18t-29 -19q-16 -4 -17.5 -39t-9.5 -42h-1q-6 0 -35 34q-4 4 -12.5 -2t-15.5 -3.5t-16 2.5t-16 -11.5t-7 -20.5t6 -19.5t15.5 -10.5t18.5 4t12.5 2t0 -10.5t4 -11.5t13.5 -4t11 -2.5t11 -15t25.5 -13.5t40.5 16
q2 -3 -0.5 -9t5.5 -7q6 12 21 12t34 -6q45 -14 51 -35q3 -8 -2 -15q24 3 47.5 3t45.5 -4t20 -10q-7 -12 -19.5 -39.5t-23 -37t-26 -15.5t-21.5 -15t-28.5 -24t-25.5 -3q-3 -12 -31.5 -33.5t-39.5 -21.5t-11 13.5t8.5 34t8.5 30t-4.5 18.5t-24.5 23.5t-27.5 23.5t-9.5 21v5
q0 13 7 29q8 20 8 26q0 12 -51.5 28t-61 20t-25 16.5t-30.5 33t-25.5 45t-14.5 23.5q0 -1 7.5 -18.5t7.5 -24.5t-2 -11q-3 10 -21 47.5t-18 57.5t10 36.5t10 41.5l-1 26q0 19 2 35q-11 -1 -12 1t2 12.5t0 12.5t-5.5 4t0.5 10q-28 -13 -43 -13zM439 225q5 5 14 5q14 0 37 -12
q8 -4 12 -7q-10 -8 -17 -4q-31 18 -38 18h-8zM512 768q95 0 182 -37t150 -100t100 -150t37 -182.5t-37 -182.5t-100 -149.5t-150 -100t-182 -37.5t-182 37.5t-150 100t-100 149.5t-37 182.5t37 182.5t100 150t150 100t182 37zM512 -85q143 0 251 93t129 233
q-11 -13 -30 -26.5t-29.5 -11.5t-17.5 12.5t-11 26.5t-8.5 24.5t-4.5 28t13 55.5q22 60 51 72q7 -30 21 0q-7 20 -16 40q-18 5 -22 8q2 -6 9 -14.5t7 -19.5q-16 16 -24 5t-10 -31t-10.5 -27.5t-23.5 16.5q-8 10 2 15q3 2 8 4.5t8.5 6t-2.5 8.5t-16 9t-11 6q3 6 12 15t13 17
t-5 20.5t-9 18.5q7 -11 19 -10q-1 11 7 29q-24 30 -30 34q-4 5 -17.5 13t-16.5 6q7 -4 29 -32.5t22 -32.5v-5q-13 8 -21 8.5t-13 5.5t-8.5 11.5t-10.5 17.5t-18.5 30t-5.5 26q-94 62 -204 62h-3q-108 0 -196 -51t-139.5 -139.5t-51.5 -193t51.5 -193t140 -139.5t192.5 -51z
" />
    <glyph glyph-name="uniE07D" unicode="&#xe07d;" 
d="M1024 299q0 -104 -40.5 -199t-109.5 -163.5t-163.5 -109t-199 -40.5t-199 40.5t-163 109t-109 163.5t-40.5 199t40.5 199t109 163.5t163 109t199 40.5t199 -40.5t163.5 -109t109.5 -163.5t40.5 -199zM493 51q8 -8 18.5 -8t18.5 8l230 230q4 4 6 8.5t2 9.5t-2 10t-6 8
l-49 50q-8 8 -18.5 7.5t-18.5 -7.5l-30 -30l-74 -81v273q0 11 -7.5 18.5t-18.5 7.5h-65q-11 0 -18 -7.5t-7 -18.5v-274l-76 82l-29 29q-5 5 -11.5 7t-13.5 0t-12 -7l-49 -49q-8 -8 -7.5 -18.5t7.5 -17.5z" />
    <glyph glyph-name="uniE05C" unicode="&#xe05c;" 
d="M919 725q8 0 14 -5.5t6 -13.5v-47q0 -8 -6 -13.5t-14 -5.5h-814q-8 0 -14 5.5t-6 13.5v47q0 8 6 13.5t14 5.5h236v24q0 8 6 13.5t14 5.5h302q8 0 14 -5.5t6 -13.5v-24h236zM834 597q8 0 13.5 -5.5t5.5 -13.5v-644q0 -26 -18 -44t-44 -18h-558q-26 0 -44 18t-18 44v644
q0 8 5.5 13.5t13.5 5.5h644zM384 -0v469q0 18 -12.5 30.5t-30 12.5t-30 -12.5t-12.5 -30.5v-469q0 -18 12.5 -30.5t30 -12.5t30 12.5t12.5 30.5zM555 -0v469q0 18 -12.5 30.5t-30.5 12.5t-30.5 -12.5t-12.5 -30.5v-469q0 -18 12.5 -30.5t30.5 -12.5t30.5 12.5t12.5 30.5z
M725 -0v469q0 18 -12.5 30.5t-30 12.5t-30 -12.5t-12.5 -30.5v-469q0 -18 12.5 -30.5t30 -12.5t30 12.5t12.5 30.5z" />
    <glyph glyph-name="uniE05D" unicode="&#xe05d;" 
d="M933 567q6 -6 6 -14t-6 -13l-46 -47l-181 181l47 46q6 6 13.5 6t13.5 -6zM85 53l591 590l180 -180l-590 -591h-181v181zM176 23l515 515l-30 30l-515 -515z" />
    <glyph glyph-name="uniE05E" unicode="&#xe05e;" 
d="M959 41q23 -41 23 -74q0 -24 -12 -45q-28 -50 -109 -50h-698q-79 0 -109 50q-12 20 -12 45q1 35 23 74l351 615q40 70 96 70t96 -70zM472 512q-19 0 -31 -13q-10 -11 -10 -27v-5l23 -247q2 -19 16.5 -32t33.5 -13h17q19 0 33.5 13t15.5 32l23 247v5q2 14 -10 27t-31 13
h-80zM573.5 -18.5q23.5 24.5 23.5 62t-24 62t-61.5 24.5t-61 -24.5t-23.5 -62t23.5 -62t61.5 -24.5t61.5 24.5z" />
    <glyph glyph-name="uniE05F" unicode="&#xe05f;" 
d="M512 768q95 0 182 -37t150 -100t100 -150t37 -182.5t-37 -182.5t-100 -149.5t-150 -100t-182 -37.5t-182 37.5t-150 100t-100 149.5t-37 182.5t37 182.5t100 150t150 100t182 37zM128 299q0 -134 83 -239l651 397q-46 101 -140.5 163.5t-204 62.5t-198 -51.5t-140 -140
t-51.5 -192.5zM803 48q93 108 93 251q0 38 -7 75l-615 -376q11 -9 22 -17l328 201l3 -12q28 -16 64 -30q87 -34 112 -92zM422 219q-34 35 -37 92q-10 -7 -13 2t-9.5 22t-7.5 28t-7 37q3 9 13 9q-5 10 -10 35q-2 11 -2 21q0 13 3 24q14 65 66 76q25 32 98 32h4q77 0 116 -42
q40 -43 40 -93q0 -19 -6 -38q-2 -8 -5 -15q12 3 12 -8q0 -4 -1 -9q-4 -14 -4 -21z" />
    <glyph glyph-name="uniE09D" unicode="&#xe09d;" 
d="M357 204q-39 52 -39 92q0 18 5 30t8 22q-17 -2 -33 -2h-10q-106 0 -163 67q-58 61 -58 141v3q0 99 83 180q57 47 118 60.5t115 13.5h267l-82 -49h-83q54 -34 83 -113q9 -30 9 -68q-1 -72 -28.5 -110.5t-74.5 -80.5q-34 -36 -34 -61.5t11 -39t21 -23.5l46 -37
q42 -35 74 -77q30 -43 31 -111q0 -98 -87.5 -174.5t-255.5 -79.5q-141 1 -210 60q-70 55 -70 132q0 37 22.5 83t83.5 82q96 56 251 60zM504 78q-35 36 -110 88q-12 1 -27 1q-23 0 -55 -3q-96 -9 -152 -54q-46 -41 -46 -107t64 -112q61 -46 166 -48q95 1 144 41.5t49 98
t-33 95.5zM438 421q25 37 25 107t-40 151q-19 39 -50 63q-32 23 -73 24q-54 -1 -91 -44q-29 -44 -29 -96v-4q0 -73 43 -152q21 -37 53 -62.5t74 -25.5q53 3 88 39zM896 384h128v-85h-128v-128h-85v128h-128v85h128v128h85v-128z" />
    <glyph glyph-name="uniE0B5" unicode="&#xe0b5;" 
d="M306 334q-6 -6 -6 -14t6 -14l259 -268q11 -11 11 -27.5t-11 -27.5l-36 -35q-11 -11 -27 -11.5t-28 11.5l-335 345q-12 12 -11 28t11 26l335 346q11 11 27.5 11t27.5 -11l36 -36q11 -11 11 -27t-11 -27zM626 334q-6 -6 -6 -14t6 -14l259 -268q11 -11 11 -27.5t-11 -27.5
l-36 -35q-11 -11 -27 -11.5t-28 11.5l-335 345q-12 12 -11 28t11 26l335 346q11 11 27.5 11t27.5 -11l36 -36q11 -11 11 -27t-11 -27z" />
    <glyph glyph-name="uniE0B6" unicode="&#xe0b6;" 
d="M718 334l-259 269q-11 11 -11 27t11 27l36 36q11 11 27 11t28 -11l335 -346q10 -10 11 -26t-11 -28l-335 -345q-11 -11 -27.5 -11.5t-27.5 11.5l-36 35q-11 11 -11 27.5t11 27.5l259 268q6 6 6 14t-6 14zM398 334l-259 269q-11 11 -11 27t11 27l36 36q11 11 27 11t28 -11
l335 -346q10 -10 11 -26t-11 -28l-335 -345q-11 -11 -27.5 -11.5t-27.5 11.5l-36 35q-11 11 -11 27.5t11 27.5l259 268q6 6 6 14t-6 14z" />
    <glyph glyph-name="uniE0B7" unicode="&#xe0b7;" 
d="M985 384q16 0 27.5 -11.5t11.5 -27.5v-50q0 -16 -11.5 -27.5t-27.5 -11.5h-62q-14 -88 -62 -162.5t-122.5 -122.5t-162.5 -62v-62q0 -16 -11.5 -27.5t-27.5 -11.5h-50q-16 0 -27.5 11.5t-11.5 27.5v62q-134 21 -230 117t-117 230h-62q-22 0 -34 20q-5 9 -5 19v50
q0 16 11.5 27.5t27.5 11.5h62q21 134 117 230.5t230 116.5v62q0 22 19 34q9 5 20 5h50q16 0 27.5 -11.5t11.5 -27.5v-62q88 -14 162.5 -62t122.5 -122.5t62 -162.5h62zM512 32q119 0 203.5 84.5t84.5 204t-84.5 203.5t-203.5 84t-203.5 -84t-84.5 -203.5t84.5 -204
t203.5 -84.5z" />
    <glyph glyph-name="uniE0B8" unicode="&#xe0b8;" 
d="M704 320q0 -80 -56 -136t-136 -56t-136 56t-56 136t56 136t136 56t136 -56t56 -136z" />
    <glyph glyph-name="uniE0B9" unicode="&#xe0b9;" 
d="M889 544h-657q-22 0 -34 20q-5 9 -5 19v51q0 16 11.5 27t27.5 11h657q16 0 27 -11t11 -27v-51q0 -16 -11 -27.5t-27 -11.5zM90 544h-51q-16 0 -27.5 11.5t-11.5 27.5v51q0 16 11.5 27t27.5 11h51q16 0 27.5 -11t11.5 -27v-51q0 -16 -11.5 -27.5t-27.5 -11.5zM985 256
h-752q-16 0 -27.5 11.5t-11.5 27.5v50q0 16 11.5 27.5t27.5 11.5h752q22 0 34 -19q5 -9 5 -20v-50q0 -16 -11.5 -27.5t-27.5 -11.5zM90 256h-51q-16 0 -27 11.5t-11 27.5v50q0 16 11 27.5t27 11.5h51q22 0 34 -19q5 -9 5 -20v-50q0 -16 -11.5 -27.5t-27.5 -11.5zM889 -32
h-656q-16 0 -27.5 11.5t-11.5 27.5v50q0 16 11.5 27.5t27.5 11.5h656q16 0 27.5 -11.5t11.5 -27.5v-50q0 -16 -11.5 -27.5t-27.5 -11.5zM90 -32h-51q-16 0 -27 11.5t-11 27.5v50q0 22 19 34q9 5 19 5h51q16 0 27.5 -11.5t11.5 -27.5v-50q0 -16 -11.5 -27.5t-27.5 -11.5z" />
    <glyph glyph-name="uniE07E" unicode="&#xe07e;" 
d="M597 554.5q0 -35.5 -25 -60.5t-60 -25t-60 25t-25 60.5t25 60.5t60 25t60 -25t25 -60.5zM512 384q35 0 60 -25t25 -60.5t-25 -60.5t-60 -25t-60 25t-25 60.5t25 60.5t60 25zM512 128q35 0 60 -25t25 -60.5t-25 -60.5t-60 -25t-60 25t-25 60.5t25 60.5t60 25z" />
    <glyph glyph-name="uniE07F" unicode="&#xe07f;" 
d="M384 618.5q0 106.5 106.5 106.5t106.5 -106.5t-106.5 -106.5t-106.5 106.5zM384 -21.5q0 106.5 106.5 106.5t106.5 -106.5t-106.5 -106.5t-106.5 106.5zM384 298.5q0 106.5 106.5 106.5t106.5 -106.5t-106.5 -106.5t-106.5 106.5z" />
    <glyph glyph-name="uniE080" unicode="&#xe080;" 
d="M171 640h853v-853h-853v853zM939 -128v683h-683v-683h683zM85 725v-597h43v-85h-128v768h768v-128h-85v42h-598zM811 427v-86h-427v86h427zM811 85v-85h-427v85h427zM811 256v-85h-427v85h427z" />
    <glyph glyph-name="uniE081" unicode="&#xe081;" 
d="M234 20.5q-19 18.5 -19 45t19 45.5l465 466q19 19 44 19h1q27 -1 46 -19.5t19 -45t-19 -45.5l-465 -465q-19 -19 -45.5 -19t-45.5 18.5zM550 186l74 -75q19 -19 19 -45.5t-19 -44.5l-151 -151q-81 -81 -196 -81t-196 81t-81 196t81 196l151 151q19 19 45.5 19t45.5 -19
l76 -77l-91 -90l-31 31l-105 -105q-44 -44 -44 -106t43.5 -105.5t105.5 -43.5t106 43l106 106l-30 29zM943 729q81 -81 81 -196t-81 -196l-151 -151q-19 -19 -45.5 -19t-45.5 19l-75 75l90 91l31 -30l105 105q44 44 44 106t-43.5 105.5t-105.5 43.5t-106 -44l-106 -105
l30 -30l-90 -91l-75 75q-19 19 -19 45.5t19 45.5l151 151q81 81 196 81t196 -81z" />
    <glyph glyph-name="uniE082" unicode="&#xe082;" 
d="M801 528l-229 -229l229 -229l-60 -61l-229 229l-229 -229l-60 61l229 229l-229 229l60 60l229 -229l229 229z" />
    <glyph glyph-name="uniE083" unicode="&#xe083;" 
d="M513 358l-60 -61l-197 197v-195h-85v341h341v-85h-196zM768 299h85v-342h-341v86h196l-197 197l60 60l197 -197v196z" />
    <glyph glyph-name="uniE084" unicode="&#xe084;" 
d="M940 -69l-60 -60l-240 239v-195h-85v341h341v-85h-196zM384 487v196h85v-342h-341v86h196l-240 239l60 61z" />
    <glyph glyph-name="uniE085" unicode="&#xe085;" 
d="M658 213l239 -239l-60 -61l-240 240v-196h-85v312l30 30h311v-86h-195zM512 328l-30 -29h-311v85h195l-239 240l60 60l240 -240v196h85v-312z" />
    <glyph glyph-name="uniE086" unicode="&#xe086;" 
d="M0 85v86h1024v-86h-1024zM0 256v85h1024v-85h-1024zM0 427v85h1024v-85h-1024z" />
    <glyph glyph-name="uniE0A1" unicode="&#xe0a1;" 
d="M683 341q18 0 30 -12.5t12 -30t-12.5 -30t-29.5 -12.5h-171q-18 0 -30.5 12.5t-12.5 30.5v170q0 18 12.5 30.5t30.5 12.5t30.5 -12.5t12.5 -30.5v-128h128zM340.5 594.5q78.5 45.5 159.5 45.5t144.5 -27t109 -72.5t72.5 -109t27 -144.5t-45.5 -159.5t-124 -124.5
t-171.5 -46t-171.5 46t-124 124.5t-45.5 171t45.5 171.5t124 124.5zM512 43q106 0 181 75t75 181t-75 181t-181 75t-181 -75t-75 -181t75 -181t181 -75z" />
    <glyph glyph-name="uniE0A0" unicode="&#xe0a0;" 
d="M427 -43v683h170v-683h-170zM683 -43v512h170v-512h-170zM171 -43v342h170v-342h-170z" />
    <glyph glyph-name="uniE0A2" unicode="&#xe0a2;" 
d="M725 469v-341h128l-170 -171l-171 171h128v341h-128l171 171l170 -171h-128zM235 640h128l64 -64v-235h-86v43h-85v-43h-85v235zM341 469v86h-85v-86h85zM171 171v85h256v-85l-150 -128h150v-86h-256v86l149 128h-149z" />
    <glyph glyph-name="uniE0A3" unicode="&#xe0a3;" 
d="M171 512v85h682v-85h-682zM171 -0v85h682v-85h-682zM171 256v85h682v-85h-682z" />
    <glyph glyph-name="uniE0A4" unicode="&#xe0a4;" 
d="M768 640h128v-683h-768v683h128v-171h171v171h170v-171h171v171zM811 43v341h-598v-341h598zM725 683v-171h-85v171h85zM384 683v-171h-85v171h85z" />
    <glyph glyph-name="uniE0A5" unicode="&#xe0a5;" 
d="M85 -43v683h384v-683h-384zM555 -43v683h384v-683h-384z" />
    <glyph glyph-name="uniE0A6" unicode="&#xe0a6;" 
d="M85 469v171h384v-171h-384zM555 469v171h384v-171h-384zM85 -43v86h384v-86h-384zM555 -43v86h384v-86h-384zM85 128v85h384v-85h-384zM555 128v85h384v-85h-384zM85 299v85h384v-85h-384zM555 299v85h384v-85h-384z" />
    <glyph glyph-name="uniE0A7" unicode="&#xe0a7;" 
d="M384 341v342h256v-342h-256zM384 -43v299h256v-299h-256zM725 341v299h256v-299h-256zM725 -43v299h256v-299h-256zM43 341v299h256v-299h-256zM43 -43v299h256v-299h-256z" />
    <glyph glyph-name="uniE0A8" unicode="&#xe0a8;" 
d="M384 555v85h597v-85h-597zM384 384v85h597v-85h-597zM43 384v256h256v-256h-256zM384 128v85h597v-85h-597zM384 -43v86h597v-86h-597zM43 -43v256h256v-256h-256z" />
    <glyph glyph-name="uniE0A9" unicode="&#xe0a9;" 
d="M427 -43v214h170v-214h-170zM683 -43v299h170v-299h-170zM171 -43v128h170v-128h-170zM597 640h256v-256h-85v107l-235 -235l-128 128l-192 -192l-64 64l256 256l128 -128l171 171h-107v85z" />
    <glyph glyph-name="uniE087" unicode="&#xe087;" 
d="M512 427q71 0 121 -50t50 -121t-50 -121t-121 -50t-121 50t-50 121t50 121t121 50zM931 640q38 0 65.5 -27.5t27.5 -65.5v-582q0 -38 -27.5 -65.5t-65.5 -27.5h-838q-38 0 -65.5 27.5t-27.5 65.5v582q0 38 27.5 65.5t65.5 27.5h163q3 36 30 60.5t63 24.5h326
q36 0 63 -24.5t30 -60.5h163zM512 -0q106 0 181 75t75 181t-75 181t-181 75t-181 -75t-75 -181t75 -181t181 -75zM853.5 405q26.5 0 45 19t18.5 41t-8 36q-19 32 -50.5 32t-50.5 -18.5t-19 -45t19 -45.5t45.5 -19z" />
    <glyph glyph-name="uniE088" unicode="&#xe088;" 
d="M1014 517q10 -89 10 -177v-83q0 -79 -7 -152l-3 -24q-4 -29 -15.5 -61.5t-22.5 -44.5t-20.5 -20t-32.5 -18q-45 -21 -399 -22h-12q-267 3 -348 11q-1 0 -21 2.5t-31 5.5q-60 16 -83 74q-14 34 -19 73q-10 89 -10 176v83q0 79 7 152l3 25q4 29 15.5 61.5t22.5 44t20.5 20
t32.5 18.5q45 21 388 22h23q216 0 359 -11q1 0 9 -1q110 -11 131 -134zM384 85l384 214l-384 213v-427z" />
    <glyph glyph-name="uniE089" unicode="&#xe089;" 
d="M768 -43l-533 342l533 341v-683z" />
    <glyph glyph-name="uniE08A" unicode="&#xe08a;" 
d="M256 -43v683l533 -341z" />
    <glyph glyph-name="uniE043" unicode="&#xe043;" 
d="M965 469q24 0 37 -15t13 -26.5t-1 -16.5l-38 -225q-4 -24 -24 -41t-45 -17h-499q-201 -1 -276 -39q-34 -17 -56 -44q2 8 16 83h-33q-24 0 -37 15t-13 26.5t1 16.5l38 225q4 24 24 41t45 17h848z" />
    <glyph glyph-name="uniE047" unicode="&#xe047;" 
d="M829 525l-226 -226l226 -227l-91 -90l-226 226l-226 -226l-91 90l226 227l-226 226l91 90l226 -226l226 226z" />
    <glyph glyph-name="uniE08B" unicode="&#xe08b;" 
d="M767 284q17 -1 30 -15t13 -32t-6.5 -39.5t-22 -31.5t-23 -13t-11.5 -1t-3 7q19 54 23 125zM419.5 390.5q42.5 7.5 106 7.5t117.5 -16.5t54 -40t-54 -40.5t-131 -17t-131 17t-54 40q0 15 25 28.5t67.5 21zM512 811q104 0 199 -40.5t163.5 -109.5t109 -163.5t40.5 -199
t-40.5 -199t-109 -163t-163.5 -109t-199 -40.5t-199 40.5t-163.5 109t-109 163t-40.5 199t40.5 199t109 163.5t163.5 109.5t199 40.5zM370 539q51 75 146 75q26 0 54 -10q56 -20 87 -70l40 26q-30 46 -79 73.5t-105 27.5t-104 -25.5t-78 -69.5zM618 508q-17 27 -45 43
t-60.5 16t-60 -15t-44.5 -40l38 -27q24 36 67.5 36t66.5 -38zM717 102q44 0 90 31.5t46 105.5q0 40 -29 64t-56 24q0 53 -75 90.5t-181 37.5t-181 -37.5t-75 -90.5q0 -327 256 -327q141 0 205 102z" />
    <glyph glyph-name="uniE0BC" unicode="&#xe0bc;" 
d="M998 384q11 0 18.5 -7.5t7.5 -18.5v-119q0 -15 -9.5 -20.5t-16.5 -5.5h-68q-16 -81 -62 -150l48 -48q8 -8 8 -18.5t-8 -17.5l-84 -84q-8 -8 -18.5 -8t-18.5 8l-48 48q-69 -46 -150 -62v-68q0 -11 -7.5 -18.5t-18.5 -7.5h-118q-11 0 -18.5 7.5t-7.5 18.5v68
q-81 16 -150 62l-48 -48q-8 -8 -18.5 -8t-18.5 8l-84 84q-8 8 -8 18.5t8 17.5l48 48q-46 69 -62 150h-68q-11 0 -18.5 7.5t-7.5 18.5v119q0 11 7.5 18.5t18.5 7.5h68q16 81 62 150l-48 48q-8 8 -8 18.5t8 18.5l84 84q8 8 18.5 7.5t18.5 -7.5l48 -48q69 46 150 62v68
q0 11 7.5 18.5t18.5 7.5h118q11 0 18.5 -7.5t7.5 -18.5v-68q81 -16 150 -62l48 48q8 8 18.5 7.5t18.5 -7.5l84 -84q8 -8 8 -18.5t-8 -18.5l-48 -48q46 -69 62 -150h68zM512 -0q124 0 211.5 87.5t87.5 211.5q0 61 -24 116t-64 95t-95 63.5t-116 23.5q-124 0 -211.5 -87.5
t-87.5 -211t87.5 -211t211.5 -87.5z" />
    <glyph glyph-name="uniE08C" unicode="&#xe08c;" horiz-adv-x="1323" 
d="M555 469v-128h128v-85h-128v-128h-86v128h-128v85h128v128h86zM725 469v64l171 25v-515h-85v426h-86zM853 768q95 0 182.5 -37t150 -100t100 -150t37.5 -173q0 -244 -191 -387q-122 -92 -279 -92h-384q-95 0 -182 37.5t-150 100t-100 149.5t-37 182.5t37 182.5t100 150
t150 100t182 37h384zM1237 299q0 104 -51 192.5t-139.5 140t-193.5 51.5h-384q-104 0 -192.5 -51.5t-140 -140t-51.5 -193t51.5 -193t140 -139.5t192.5 -51h384q78 0 149.5 30t123 81.5t81.5 123t30 149.5z" />
    <glyph glyph-name="uniE08D" unicode="&#xe08d;" horiz-adv-x="1323" 
d="M853 768q95 0 182.5 -37t150 -100t100 -150t37.5 -173q0 -244 -191 -387q-122 -92 -279 -92h-384q-95 0 -182 37.5t-150 100t-100 149.5t-37 182.5t37 182.5t100 150t150 100t182 37h384zM683 256v85h-128v128h-86v-128h-128v-85h128v-128h86v128h128zM896 43v515
l-171 -25v-64h86v-426h85z" />
    <glyph glyph-name="uniE08E" unicode="&#xe08e;" horiz-adv-x="1152" 
d="M725 725q86 0 165.5 -34t136.5 -91t91 -136t34 -165q0 -115 -57.5 -213.5t-155.5 -156t-214 -57.5h-298q-115 0 -213.5 57.5t-156 155.5t-57.5 213.5t57.5 214t155.5 155.5t214 57h298zM1067 298.5q0 92.5 -46 171.5t-124.5 124.5t-171.5 45.5h-298q-93 0 -171.5 -45.5
t-124.5 -124.5t-46 -171.5t46 -171t124.5 -124.5t171.5 -46h298q93 0 171.5 46t124.5 124.5t46 171zM469 427v-86h86v-85h-86v-85h-85v85h-85v85h85v86h85zM597 427v64l171 24v-430h-85v342h-86z" />
    <glyph glyph-name="uniE08F" unicode="&#xe08f;" horiz-adv-x="1152" 
d="M725 725q86 0 165.5 -34t136.5 -91t91 -136t34 -165q0 -115 -57.5 -213.5t-155.5 -156t-214 -57.5h-298q-115 0 -213.5 57.5t-156 155.5t-57.5 213.5t57.5 214t155.5 155.5t214 57h298zM555 256v85h-86v86h-85v-86h-85v-85h85v-85h85v85h86zM768 85v430l-171 -24v-64h86
v-342h85z" />
    <glyph glyph-name="uniE0D0" unicode="&#xe0d0;" 
d="M110 700q25 25 54.5 25t49.5 -11q42 -25 42 -74q0 -35 -25 -60t-60.5 -25t-60.5 25t-25 60t25 60zM512 725q35 0 60 -25t25 -60t-25 -60t-60 -25t-60 25t-25 60t25 60t60 25zM853.5 555q-35.5 0 -60.5 25t-25 60t25 60t60.5 25t60.5 -25t25 -60t-25 -60t-60.5 -25z
M170.5 384q35.5 0 60.5 -25t25 -60.5t-25 -60.5t-60.5 -25t-60.5 25t-25 60.5t25 60.5t60.5 25zM512 384q35 0 60 -25t25 -60.5t-25 -60.5t-60 -25t-60 25t-25 60.5t25 60.5t60 25zM853.5 384q35.5 0 60.5 -25t25 -54.5t-12 -48.5q-25 -42 -74 -43q-35 0 -60 25t-25 60.5
t25 60.5t60.5 25zM170.5 43q35.5 0 60.5 -25t25 -54.5t-11 -49.5q-25 -42 -74 -42q-35 0 -60.5 25t-25.5 60.5t25 60.5t60.5 25zM512 43q35 0 60 -25t25 -60.5t-25 -60.5t-60 -25t-60 25t-25 60.5t25 60.5t60 25zM853.5 43q35.5 0 60.5 -25t25 -60.5t-25 -60.5t-60.5 -25
t-60.5 25t-25 60.5t25 60.5t60.5 25z" />
    <glyph glyph-name="uniE0D2" unicode="&#xe0d2;" 
d="M110 700q25 25 54.5 25t49.5 -11q42 -25 42 -74q0 -35 -25 -60t-60.5 -25t-60.5 25t-25 60t25 60zM512 725q35 0 60 -25t25 -60t-25 -60t-60 -25t-60 25t-25 60t25 60t60 25zM853.5 555q-35.5 0 -60.5 25t-25 60t25 60t60.5 25t60.5 -25t25 -60t-25 -60t-60.5 -25z
M170.5 384q35.5 0 60.5 -25t25 -60.5t-25 -60.5t-60.5 -25t-60.5 25t-25 60.5t25 60.5t60.5 25zM512 384q35 0 60 -25t25 -60.5t-25 -60.5t-60 -25t-60 25t-25 60.5t25 60.5t60 25zM853.5 384q35.5 0 60.5 -25t25 -54.5t-12 -48.5q-25 -42 -74 -43q-35 0 -60 25t-25 60.5
t25 60.5t60.5 25zM170.5 43q35.5 0 60.5 -25t25 -54.5t-11 -49.5q-25 -42 -74 -42q-35 0 -60.5 25t-25.5 60.5t25 60.5t60.5 25zM853.5 43q35.5 0 60.5 -25t25 -60.5t-25 -60.5t-60.5 -25t-60.5 25t-25 60.5t25 60.5t60.5 25z" />
    <glyph glyph-name="uniE0D3" unicode="&#xe0d3;" 
d="M110 700q25 25 54.5 25t49.5 -11q42 -25 42 -74q0 -35 -25 -60t-60.5 -25t-60.5 25t-25 60t25 60zM512 725q35 0 60 -25t25 -60t-25 -60t-60 -25t-60 25t-25 60t25 60t60 25zM853.5 555q-35.5 0 -60.5 25t-25 60t25 60t60.5 25t60.5 -25t25 -60t-25 -60t-60.5 -25z
M170.5 384q35.5 0 60.5 -25t25 -60.5t-25 -60.5t-60.5 -25t-60.5 25t-25 60.5t25 60.5t60.5 25zM512 384q35 0 60 -25t25 -60.5t-25 -60.5t-60 -25t-60 25t-25 60.5t25 60.5t60 25zM853.5 384q35.5 0 60.5 -25t25 -54.5t-12 -48.5q-25 -42 -74 -43q-35 0 -60 25t-25 60.5
t25 60.5t60.5 25zM170.5 43q35.5 0 60.5 -25t25 -54.5t-11 -49.5q-25 -42 -74 -42q-35 0 -60.5 25t-25.5 60.5t25 60.5t60.5 25zM512 43q35 0 60 -25t25 -60.5t-25 -60.5t-60 -25t-60 25t-25 60.5t25 60.5t60 25z" />
    <glyph glyph-name="uniE0D4" unicode="&#xe0d4;" 
d="M853.5 555q-35.5 0 -60.5 25t-25 60t25 60t60.5 25t60.5 -25t25 -60t-25 -60t-60.5 -25zM170.5 384q35.5 0 60.5 -25t25 -60.5t-25 -60.5t-60.5 -25t-60.5 25t-25 60.5t25 60.5t60.5 25zM512 384q35 0 60 -25t25 -60.5t-25 -60.5t-60 -25t-60 25t-25 60.5t25 60.5t60 25z
M853.5 43q35.5 0 60.5 -25t25 -60.5t-25 -60.5t-60.5 -25t-60.5 25t-25 60.5t25 60.5t60.5 25z" />
    <glyph glyph-name="uniE0D5" unicode="&#xe0d5;" 
d="M512 725q35 0 60 -25t25 -60t-25 -60t-60 -25t-60 25t-25 60t25 60t60 25zM170.5 384q35.5 0 60.5 -25t25 -60.5t-25 -60.5t-60.5 -25t-60.5 25t-25 60.5t25 60.5t60.5 25zM512 384q35 0 60 -25t25 -60.5t-25 -60.5t-60 -25t-60 25t-25 60.5t25 60.5t60 25zM853.5 384
q35.5 0 60.5 -25t25 -54.5t-12 -48.5q-25 -42 -74 -43q-35 0 -60 25t-25 60.5t25 60.5t60.5 25zM512 43q35 0 60 -25t25 -60.5t-25 -60.5t-60 -25t-60 25t-25 60.5t25 60.5t60 25z" />
    <glyph glyph-name="uniE0D6" unicode="&#xe0d6;" 
d="M170.5 384q35.5 0 60.5 -25t25 -60.5t-25 -60.5t-60.5 -25t-60.5 25t-25 60.5t25 60.5t60.5 25zM512 384q35 0 60 -25t25 -60.5t-25 -60.5t-60 -25t-60 25t-25 60.5t25 60.5t60 25zM853.5 384q35.5 0 60.5 -25t25 -54.5t-12 -48.5q-25 -42 -74 -43q-35 0 -60 25t-25 60.5
t25 60.5t60.5 25z" />
    <glyph glyph-name="uniE0E2" unicode="&#xe0e2;" 
d="M853 683l43 -43v-683l-73 -30l-311 311l-311 -311l-73 30v683l43 43h682zM811 60v537h-598v-537l269 269h60z" />
    <glyph glyph-name="uniE0E3" unicode="&#xe0e3;" 
d="M171 683h682v-86h-682v86zM171 256v85h682v-85h-682zM171 -85v85h341v-85h-341z" />
    <glyph glyph-name="uniE0E4" unicode="&#xe0e4;" 
d="M884 610l-312 -311l312 -311l-61 -61l-329 329h-323v85h323l329 329z" />
    <glyph glyph-name="uniE0E5" unicode="&#xe0e5;" 
d="M853 341v-85h-298v-299h-86v299h-298v85h298v299h86v-299h298z" />
    <glyph glyph-name="uniE0E6" unicode="&#xe0e6;" 
d="M171 256v85h682v-85h-682z" />
    <glyph glyph-name="uniE0C0" unicode="&#xe0c0;" 
d="M746 555q27 0 46 -19t19 -46v-383q0 -27 -19 -45.5t-46 -18.5h-149l-85 -86l-85 86h-149q-27 0 -46 19t-19 45v383q0 27 19 46t46 19h468zM640 171v85h-256v-85h256zM683 341v86h-342v-86h342z" />
    <glyph glyph-name="uniE0C1" unicode="&#xe0c1;" 
d="M299 597h426v-597l-213 128l-213 -128v597zM640 384v85h-256v-85h256z" />
    <glyph glyph-name="uniE0C2" unicode="&#xe0c2;" 
d="M587 195q22 19 54 19h1q33 -1 58 -26t25 -60t-25 -60t-60 -25t-60 25t-25 60q0 12 3 24l-121 80q-23 -19 -55.5 -19t-57.5 25t-25 60.5t25 60.5t57.5 25t55.5 -19l121 81q-3 12 -3 23q0 35 25 60.5t60 25.5t60 -25t25 -60.5t-25 -60.5t-57.5 -25t-55.5 19l-121 -81
q3 -12 3 -23.5t-3 -23.5z" />
    <glyph glyph-name="uniE0C3" unicode="&#xe0c3;" 
d="M556 522q0 -63 44 -97q19 -14 41 -30.5t41 -31.5q43 -33 43 -96v-3v-137q0 -19 -12.5 -38.5t-34.5 -32.5t-45 -13h-267q-25 0 -35 23q-3 7 -2.5 18t10.5 21.5t25 11.5h-28q-15 0 -26 11t-11 26.5t10 26t25 11.5q-15 1 -25 11.5t-10 26t11 26.5t26 11h28q-15 1 -25 11.5
t-10 23t5 21.5q10 18 30 18h2h144q-8 26 -30 78t-22 69l-1 54q0 24 13.5 39.5t36 15.5t36 -16t13.5 -39v-20z" />
    <glyph glyph-name="uniE0C4" unicode="&#xe0c4;" 
d="M527 485q0 -50 31 -81q14 -14 46.5 -37t47.5 -38q31 -31 31 -82q0 -13 -1 -126q0 -27 -26 -52.5t-59 -25.5h-231q-25 0 -35 23q-3 7 -2.5 18t10.5 21.5t25 11.5h-28q-15 0 -26 11t-11 26.5t10 26t25 11.5q-15 1 -25 11.5t-10 23t5 21.5q11 19 32 19h28q-20 1 -31 19
q-5 8 -4.5 18t5.5 19q10 18 30 18h2h110q-6 17 -23 56.5t-17 56.5l-1 49q0 22 12.5 37t33.5 15t33.5 -15t12.5 -37v-18z" />
    <glyph glyph-name="uniE04F" unicode="&#xe04f;" 
d="M601 408q-11 23 -11 46t3 35q13 66 61 76q24 33 96.5 33t109.5 -43t37 -93q0 -26 -6 -44l-4 -10q15 5 10 -18q-3 -14 -4 -27t-4.5 -21t-6.5 -15t-5.5 -16t-12.5 -2q-1 -34 -12.5 -59.5t-37.5 -48.5q28 -11 32 -18t5 -16q27 -26 62.5 -41t73 -47t37.5 -82v-40h-363v42
q0 78 -64 138q23 14 39 30q1 17 11 22.5t27 11.5q-26 23 -37.5 48.5t-12.5 59.5q-10 -7 -12.5 2t-8.5 22t-7.5 28t-6.5 38q1 10 12 9zM146 437q-12 24 -12 49.5t4 37.5q14 70 65 81q26 35 95 35h1q42 0 74 -12.5t49 -32.5q31 -36 35.5 -61.5t4.5 -46.5t-7 -38l-4 -12
q16 5 11 -18q-4 -15 -5 -29t-4 -22.5t-6.5 -16t-6.5 -17t-13 -1.5q-2 -36 -13.5 -63.5t-39.5 -52.5q30 -12 34.5 -19.5t4.5 -16.5q29 -28 66.5 -44t77.5 -50t40 -88v-42h-597v42q0 68 82 119q18 11 43.5 22t50.5 33l8 8q1 18 11.5 23.5t28.5 12.5q-28 25 -40 52t-13 64
q-10 -8 -13 1.5t-9.5 23.5t-8 30t-6 34.5t7.5 15.5z" />
    <glyph glyph-name="uniE0F0" unicode="&#xe0f0;" 
d="M512 811q104 0 199 -40.5t163.5 -109.5t109 -163.5t40.5 -199t-40.5 -199t-109 -163t-163.5 -109t-199 -40.5t-199 40.5t-163.5 109t-109 163t-40.5 199t40.5 199t109 163.5t163.5 109.5t199 40.5zM512 -43q93 0 171.5 46t124 124.5t45.5 171t-45.5 171.5t-124 124.5
t-171.5 45.5t-171.5 -45.5t-124 -124.5t-45.5 -171.5t45.5 -171t124 -124.5t171.5 -46z" />
    <glyph glyph-name="uniE0F1" unicode="&#xe0f1;" 
d="M512 811q104 0 199 -40.5t163.5 -109.5t109 -163.5t40.5 -199t-40.5 -199t-109 -163t-163.5 -109t-199 -40.5t-199 40.5t-163.5 109t-109 163t-40.5 199t40.5 199t109 163.5t163.5 109.5t199 40.5zM512 -43q93 0 171.5 46t124 124.5t45.5 171t-45.5 171.5t-124 124.5
t-171.5 45.5t-171.5 -45.5t-124 -124.5t-45.5 -171.5t45.5 -171t124 -124.5t171.5 -46zM512 512q88 0 150.5 -62.5t62.5 -151t-62.5 -151t-150.5 -62.5t-150.5 62.5t-62.5 151t62.5 151t150.5 62.5z" />
    <glyph glyph-name="uniE0F2" unicode="&#xe0f2;" 
d="M512 811q104 0 199 -40.5t163.5 -109.5t109 -163.5t40.5 -199t-40.5 -199t-109 -163t-163.5 -109t-199 -40.5t-199 40.5t-163.5 109t-109 163t-40.5 199t40.5 199t109 163.5t163.5 109.5t199 40.5zM512 -128q116 0 214 57t155.5 155.5t57.5 214.5q0 87 -34 165.5t-91 136
t-136 91t-166 33.5q-116 0 -214 -57t-155.5 -155t-57.5 -214t57.5 -214.5t155.5 -155.5t214 -57z" />
    <glyph glyph-name="uniE0F3" unicode="&#xe0f3;" 
d="M895 811q54 0 91.5 -38t37.5 -92v-765q0 -54 -38 -91.5t-91 -37.5h-766q-54 0 -91.5 37.5t-37.5 91.5v765q0 54 38 92t91 38h766zM939 -83v763q0 19 -13.5 32t-32.5 13h-762q-19 0 -32.5 -13t-13.5 -32v-763q0 -19 13.5 -32t32.5 -13h762q19 0 32.5 13t13.5 32z" />
    <glyph glyph-name="uniE0F4" unicode="&#xe0f4;" 
d="M895 811q54 0 91.5 -38t37.5 -92v-765q0 -54 -38 -91.5t-91 -37.5h-766q-54 0 -91.5 37.5t-37.5 91.5v765q0 54 38 92t91 38h766z" />
    <glyph glyph-name="uniE0F5" unicode="&#xe0f5;" 
d="M895 811q54 0 91.5 -38t37.5 -92v-765q0 -54 -38 -91.5t-91 -37.5h-766q-54 0 -91.5 37.5t-37.5 91.5v765q0 54 38 92t91 38h766zM463 28l433 433l-108 108l-325 -324l-145 144l-108 -108z" />
    <glyph glyph-name="uniE0F6" unicode="&#xe0f6;" 
d="M1024 410l-295 -234l95 -367l-312 209l-312 -209l95 367l-295 234l378 22l134 356l134 -356zM512 125l179 -128l-63 213l173 129l-218 8l-71 202l-71 -202l-218 -8l173 -129l-63 -213z" />
    <glyph glyph-name="uniE0F7" unicode="&#xe0f7;" 
d="M512 788l134 -356l378 -22l-295 -234l95 -367l-312 209l-312 -209l95 367l-295 234l378 22z" />
    <glyph glyph-name="uniE0F8" unicode="&#xe0f8;" 
d="M1003 405l-283 -224l91 -352l-299 200l-299 -200l91 352l-283 224l363 22l128 341l128 -341zM512 132l173 -121l-62 203l166 123l-209 8l-68 194l-68 -194l-209 -8l166 -123l-62 -203z" />
    <glyph glyph-name="uniE0F9" unicode="&#xe0f9;" 
d="M727 683q105 0 179.5 -74.5t74.5 -180.5q0 -82 -48.5 -147.5t-100.5 -120.5t-156 -161.5t-164 -169.5q-70 74 -206 213.5t-183 196.5t-63.5 99.5t-16.5 89.5q0 105 74.5 180t179.5 75q67 0 124 -32.5t91 -86.5q34 54 91 86.5t124 32.5z" />
    <glyph glyph-name="uniE0FA" unicode="&#xe0fa;" 
d="M727 683q105 0 179.5 -74.5t74.5 -180.5q0 -82 -48.5 -147.5t-100.5 -120.5t-156 -161.5t-164 -169.5q-70 74 -206 213.5t-183 196.5t-63.5 99.5t-16.5 89.5q0 105 74.5 180t179.5 75q67 0 124 -32.5t91 -86.5q34 54 91 86.5t124 32.5zM887.5 376q8.5 25 8.5 52
q0 70 -49.5 119.5t-122.5 49.5t-137 -66q-28 -29 -75 -99q-46 69 -74 99q-65 67 -137.5 67t-122.5 -50t-50 -111.5t41 -117.5t169 -187t174 -179q125 127 215 220.5t121 135.5t39.5 67z" />
    <glyph glyph-name="uniE0FC" unicode="&#xe0fc;" 
d="M612 690q62 35 136 35t138 -37t101 -101t37 -142.5t-62 -180.5q-24 -40 -85.5 -108t-107 -114t-132 -131t-125.5 -124q-38 37 -115.5 113.5t-117 116t-97.5 101t-82.5 95t-52.5 78.5t-37.5 81.5t-9.5 75.5q0 115 81 196t196 81q73 0 135 -35t100 -94q38 59 100 94z" />
    <glyph glyph-name="uniE0BD" unicode="&#xe0bd;" 
d="M987 469q19 0 29.5 -13t6.5 -31l-127 -594q-4 -18 -20 -31t-34 -13h-660q-26 0 -43 22q-8 10 -11 22l-127 594q-4 18 6.5 31t29.5 13h219v86q0 106 75 181t181 75t181 -75t75 -181v-86h219zM341 555v-86h342v86q0 71 -50 120.5t-121 49.5t-121 -49.5t-50 -120.5z" />
  </font>
</defs>
</svg>
