<svg><defs><font horiz-adv-x="1024"><font-face font-family="pr-ui-icons" font-weight="400" units-per-em="1024" panose-1="5 3 1 2 1 0 0 0 0 0" ascent="820" descent="-204" bbox="-85 -218 1214 832" underline-thickness="50" underline-position="-100" unicode-range="U+E001-E0B4"/><glyph glyph-name="uniE001" unicode="" d="M0 819h1024V-205H0V819z"/><glyph glyph-name="uniE00E" unicode="" d="M85-128v853h512v-853H85zm768 853h86v-853h-86v853zM683-128v853h85v-853h-85z"/><glyph glyph-name="uniE00F" unicode="" d="M512 213v-85H341v85h171zm171 256V299H341v170h342zM85 725h854v-853H85v853zM853-43v683H171V-43h682z"/><glyph glyph-name="uniE00D" unicode="" d="M512 768q95 0 182-37t150-100 100-150 37-182.5T944 116 844-33.5t-150-100T512-171t-182 37.5-150 100T80 116 43 298.5 80 481t100 150 150 100 182 37zm0-853q104 0 192.5 51t140 139.5 51.5 193-51.5 193-140 140T512 683t-192.5-51.5-140-140-51.5-193 51.5-193T319.5-34 512-85zm85 640V299h128L512 0 298 299h129v256h170z"/><glyph glyph-name="uniE00C" unicode="" d="M512 726q79 0 144-19.5t110-52 80-72 60-83 43.5-81.5 38-71 36.5-48q-17-16-36.5-49.5t-38-71.5T906 96.5 846 14t-79.5-71.5-110-51.5T512-128q-78 0-143.5 19t-110 51.5-80 72-60.5 83-44 81-38 71T0 299q17 15 36 48.5t38 71 44 81.5 60 83 80 71.5 110 52T512 726zm0-683q106 0 181 75t75 181-75 181-181 75q-68 0-126-34l54-117q33 22 72 23 53 0 90.5-37.5T640 299t-37.5-90.5T512 171t-90.5 37.5T384 299q0 39 22 72l-117 54q-33-59-33-126 0-106 75-181t181-75z"/><glyph glyph-name="uniE00B" unicode="" d="M448 43v128h128V43H448zm197 486q20-20 29-43.5t9-43.5q0-33-9-54.5t-21.5-37T624 324t-29-21q-14-11-25-25t-14-34v-27h-93v32q2 30 11 49.5t22 34 26.5 25 25.5 21 19 23 7 30.5q0 32-16 47.5T515 495q-19 0-32.5-7.5t-22-19.5-13-28.5T443 405H341q1 37 13 68t34 54 53 36 69 13q49 0 82-13.5t53-33.5zM512 768q95 0 182-37t150-100 100-150 37-182.5T944 116 844-33.5t-150-100T512-171t-182 37.5-150 100T80 116 43 298.5 80 481t100 150 150 100 182 37zm0-853q104 0 192.5 51t140 139.5 51.5 193-51.5 193-140 140T512 683t-192.5-51.5-140-140-51.5-193 51.5-193T319.5-34 512-85z"/><glyph glyph-name="uniE00A" unicode="" d="M955 384q11 0 18.5-7.5T981 358V239q0-11-7.5-18.5T955 213h-69q-14-64-49-119l49-49q8-8 7.5-18.5T886 9l-84-84q-8-8-18.5-8T765-75l-49 49q-55-35-119-50v-69q0-11-7.5-18.5T571-171H453q-7 0-13 3.5t-9.5 9.5-3.5 13v69q-64 14-119 50l-49-49q-8-8-18.5-8T222-75L138 9q-8 8-7.5 18.5T138 45l49 49q-35 55-49 119H69q-7 0-13 3.5t-9.5 9.5-3.5 13v119q0 11 7.5 18.5T69 384h69q14 64 49 119l-49 49q-8 8-7.5 18.5T138 588l84 85q8 8 18.5 7.5T259 673l49-49q55 35 119 49v69q0 11 7.5 18.5T453 768h118q11 0 18.5-7.5T597 742v-69q64-14 119-49l49 49q8 8 18.5 7.5T802 673l84-85q8-8 7.5-18.5T886 552l-49-49q35-55 49-119h69zM512 43q106 0 181 75t75 181-75 181-181 75-181-75-75-181 75-181 181-75z"/><glyph glyph-name="uniE009" unicode="" d="M171 811h682V-213L512 43 171-213V811zm512-512v85H341v-85h342zm0 170v86H341v-86h342z"/><glyph glyph-name="uniE008" unicode="" d="M555 768v-64h-86v64h86zM85 683h854V85H85v598zm598-427v85H341v-85h342zm85 171v85H256v-85h512zM469-171V64h86v-235h-86z"/><glyph glyph-name="uniE007" unicode="" d="M0 725h1024v-853H0v853zm939-170v85H85v-85l427-342z"/><glyph glyph-name="uniE006" unicode="" d="M597 811V299H427v512h170zm86-75q133-52 215.5-171T981 299q0-95-37-182.5t-100-150-150-100T512-171t-182 37.5-150 100T80 116 43 299q0 147 82.5 266T341 736v-93q-96-48-154.5-140.5T128 299q0-104 51.5-193t140-140T512-85q78 0 149 30t122.5 81.5 82 123T896 299q0 111-58.5 203.5T683 643v93z"/><glyph glyph-name="uniE005" unicode="" d="M512 768q95 0 182-37t150-100 100-150 37-182.5T944 116 844-33.5t-150-100T512-171t-182 37.5-150 100T80 116 43 298.5 80 481t100 150 150 100 182 37zm152-216q-45 124-117 151h-1V534q61 4 118 18zm-19 130q42-45 72-114 36 13 67 31-61 56-139 83zM469 535v164q-67-32-109-148 52-12 109-16zm0-64q-65 4-127 21-19-75-21-160h148v139zm0-215H321q4-79 21-149 62 17 127 21v128zm0-192q-57-4-109-16 42-117 109-150V64zm77 192V129q70-4 136-22 17 70 21 149H546zm0 76h157q-3 85-21 160-66-19-136-22V332zM307 568q30 69 72 114-78-27-139-83 31-18 67-31zm-20-57q-47 18-89 44-80-97-90-223h149q4 95 30 179zm-30-255H109q12-119 88-212 42 26 89 44-24 79-29 168zm50-225q-36-13-69-31 62-57 141-84-42 45-72 115zm239-136h1q73 27 118 152-57 14-119 18v-170zM717 31q-30-70-72-115 79 27 141 84-33 18-69 31zm21 57q47-18 89-44 76 93 88 212H767q-5-89-29-168zm29 244h149q-10 125-90 223-42-25-89-44 26-84 30-179z"/><glyph glyph-name="uniE004" unicode="" d="M939-128H85v56q0 24 8.5 46.5t23 40.5 31 33.5T184 76t36 20.5 32 14.5q25 10 49 21t36 17l11 7q1 24 20 33 12 6 37 15-40 33-56 68-17 37-20 86-15-10-20 6-3 10-8 19.5t-9 20.5q-5 12-8 42-1 7-8 39-1 5 0 8.5t4 4.5 6.5 1 5.5-1h2q-1 2-2.5 5.5T286 519t-6 25-2 31.5 4 37.5q20 93 94 108 37 47 136 47 35 0 66-6t53-16 40-24 30-28 21-29.5 14-28.5q5-14 6-23 3-27 3-42 0-8-1-17-1-23-8-41l-6-15q1 0 2.5.5t5 .5 6.5-1 4.5-4-.5-9q-8-32-8-39-3-31-8-42-4-10-9-20t-8-20q-5-16-20-6-2-49-20-86-16-35-56-68 25-9 37-15 8-4 13-12.5t6-14.5l1-6q41-23 96-45 25-10 50-24.5t53.5-37 46-54.5T939-72v-56z"/><glyph glyph-name="uniE003" unicode="" d="M740 768l284-939H829L774 43H506l-55-214H256l280 939h204zM549 213h182l-59 235q-9 35-17.5 87T642 610h-3q-4-19-8.5-41.5t-7.5-39-7.5-38.5-8.5-43zM297 109l-39 126H120L82 107H0l140 469h102l98-323zM133 299h112l-34 122q-2 6-22 91h-2q-2-10-9-42.5T167 421z"/><glyph glyph-name="uniE002" unicode="" d="M740 768l284-939H829L774 43H506l-55-214H256l280 939h204zM549 213h182l-59 235q-9 35-17.5 87T642 610h-3q-4-19-8.5-41.5t-7.5-39-7.5-38.5-8.5-43zM341 789v-64H128v64h213zm19-467q-46 33-80 78t-45 91q-16-62-71.5-120.5T43 284L0 363q15 2 36.5 10t50 26.5 52 43.5 41.5 65.5 20 88.5H43v86h384v-86H269q6-127 115-195z"/><glyph glyph-name="uniE010" unicode="" d="M669 461q9 9 18 0l72-72q9-9 0-19L521 132q-9-9-18 0L265 370q-9 9 0 19l72 72q9 9 18 0l157-157z"/><glyph glyph-name="uniE011" unicode="" d="M669 136L512 293 355 136q-9-9-18 0l-72 73q-9 9 0 18l238 238q9 9 18 0l238-238q9-9 0-18l-72-73q-9-9-18 0z"/><glyph glyph-name="uniE012" unicode="" d="M171 384h682L512 43z"/><glyph glyph-name="uniE014" unicode="" d="M768 43v85l85 85V-43H85v683h363l-85-85H171V43h597zM292 192q0 103 52.5 187T481 509t180 46h22v170l341-257-341-255v171q-78 0-139-13.5T438 330t-77.5-59.5T299 192q-3-2-7 0z"/><glyph glyph-name="uniE015" unicode="" d="M900 597q8 0 15-3t12.5-8 8.5-12.5 3-14.5v-51q0-16-11.5-27.5T900 469H124q-16 0-27.5 11.5T85 508v51q0 16 11.5 27t27.5 11h776zm0-256q8 0 15-3t12.5-8 8.5-12.5 3-14.5v-51q0-16-11.5-27.5T900 213H124q-16 0-27.5 11.5T85 252v51q0 16 11.5 27t27.5 11h776zm0-256q8 0 15-3t12.5-8 8.5-12.5 3-14.5V-4q0-16-11.5-27.5T900-43H124q-16 0-27.5 11.5T85-4v51q0 16 11.5 27T124 85h776z"/><glyph glyph-name="uniE016" unicode="" d="M384 299l410-411q11-11 11.5-27T794-166l-35-36q-11-11-27.5-11T704-202L242 260l-11 11q-2 2-3 4-9 11-8 26t11 25l473 473q11 11 27 11.5t28-11.5l35-35q11-11 11.5-27.5T794 709z"/><glyph glyph-name="uniE017" unicode="" d="M512 789l134-356 378-23-295-234 95-367L512 17 200-191l95 367L0 410l378 23z"/><glyph glyph-name="uniE018" unicode="" d="M213 469l278 256h21v-853h-21L213 128H65q-13 0-25 5t-21 14-14 21-5 25v211q0 27 19 46t46 19h148zm555-170.5q0-76.5-41-139T619 66l-29 46q56 23 90.5 73.5t34.5 113T680 412t-90 74l29 45q67-31 108-93.5t41-139zM758 748q121-66 193.5-186t72.5-263-72.5-263T758-150l-29 45Q839-46 905 62t66 237-66 237-176 167zm138-449.5q0-109.5-56.5-201T689-42L660 3q54 27 95 71.5T819.5 177 843 299q0 96-50.5 175T660 594l29 46q94-49 150.5-140.5t56.5-201z"/><glyph glyph-name="uniE019" unicode="" d="M811 213q88 0 150.5-62.5T1024 0t-62.5-150.5T811-213q-58 0-107.5 28.5t-78 77.5T597 0q0 31 9 61l-146 83q-36-47-89.5-74T256 43q-106 0-181 75T0 299t75 181 181 75q61 0 114.5-27t89.5-74l146 82q-9 30-9 61 0 88 62.5 151t151 63 151-62.5 62.5-151-62.5-151T811 384q-32 0-62.5 9.5t-55.5 26-45 39.5l-146-88q10-35 10-72.5T502 226l146-88q20 23 45 40t55.5 26 62.5 9zm-.5 470q-35.5 0-60.5-25t-25-61q0-23 11.5-42.5t31-31T811 512q35 0 60 25t25 60.5-25 60.5-60.5 25zM256 192q44 0 75.5 31t31.5 75.5-31.5 75.5-75.5 31-75.5-31-31.5-75.5 31.5-75.5 75.5-31zM810.5-85Q846-85 871-60t25 60-25 60-60.5 25T750 60 725 0t25-60 60.5-25z"/><glyph glyph-name="uniE01A" unicode="" d="M900 725q6 0 12-2t11-5.5 8.5-8T937 699t2-12V-89q0-16-11.5-27.5T900-128H124q-16 0-27.5 11.5T85-89v776q0 16 11.5 27t27.5 11h89v-86q0-35 25-59.5t59-24.5h3q35 0 59.5 24.5T384 639v86h256v-86q0-35 24.5-59.5T724 555h3q10 0 19 2t17.5 6 15.5 10 13 13 10 15.5 6.5 18T811 639v86h89zM853-23v473q0 8-5.5 13.5T834 469H190q-8 0-13.5-5.5T171 450V-23q0-8 5.5-14t13.5-6h644q8 0 13.5 6t5.5 14zM298.5 597q-17.5 0-30 12.5T256 640v128q0 18 12.5 30.5t30 12.5 30-12.5T341 768V640q0-18-12.5-30.5t-30-12.5zm427 0q-17.5 0-30 12.5T683 640v128q0 18 12.5 30.5t30 12.5 30-12.5T768 768V640q0-18-12.5-30.5t-30-12.5z"/><glyph glyph-name="uniE01B" unicode="" d="M358 43h27q11 0 54-12t73-47q51 59 154 59 56 0 108.5-13.5T853 3v397l86 88V-83q-3-11-12.5-16.5T906-102q-53 33-113 46T691-43q-128 0-179-64-51 64-179 64-43 0-103-13t-112-46q-11-3-20.5 2.5T85-83v674q46 53 110.5 83T315 704h54q14 0 63.5-17t79.5-47q64 64 186 64 39 0 88-14l-74-74q-20 3-27 3h-10q-12-1-25.5-1t-42.5-8q-57-17-95-55-64 64-162.5 64T171 555V3q26 13 78 26.5T358 43zm632 658q9-9 12-20t-3-16l-30-31 14-14-386-387-98-36-22 22 36 99 385 388 14-15 30 30q5 5 12 5 10 0 25-13z"/><glyph glyph-name="uniE01C" unicode="" d="M919-9q19-19 19-46l1-1q0-26-20-46l-7-7q-19-19-46-19t-46 19L616 94q-20 20-20 46 0 6 1 10l-36 36q-79-58-177-58-124 0-211.5 87.5T85 426.5t87.5 211T384 725t211.5-87.5T683 427q0-98-58-177l37-37q5 1 9 1 28-3 44-20zM171 426.5q0-88.5 62.5-151T384 213t150.5 62.5 62.5 151-62.5 151T384 640t-150.5-62.5-62.5-151z"/><glyph glyph-name="uniE020" unicode="" d="M512 811q104 0 199-40.5T874.5 661t109-163.5 40.5-199-40.5-199-109-163-163.5-109T512-213t-199 40.5-163.5 109-109 163T0 298.5t40.5 199 109 163.5T313 770.5 512 811zm202.5-435.5Q725 401 725 440q0 24-10 51-11 27-36.5 50.5T612 581t-103 16q-48 0-86-15t-65.5-42-42.5-63q-16-39-16-93h128q0 36 4.5 53t15.5 32q9 12 28 22 16 8 41 8 36 0 54-17 19-18 19-53v-8q1-14-8-29t-24-27-32-24.5-33-28.5q-20-22-29-40-14-29-14-57v-23h128v18q0 24 13 40 12 15 26 25 4 3 11 8t13 10 12 9q20 13 36 30.5t26.5 43zM512 128q-35 0-60-25t-25-60.5T452-18t60-25 60 25 25 60.5-25 60.5-60 25z"/><glyph glyph-name="uniE01D" unicode="" d="M512 768q95 0 182-37t150-100 100-150 37-182.5T944 116 844-33.5t-150-100T512-171t-182 37.5-150 100T80 116 43 298.5 80 481t100 150 150 100 182 37zm0-853q78 0 149 30t122.5 81.5 82 123T896 299q0 104-51.5 192.5t-140 140T512 683t-192.5-51.5-140-140-51.5-193 51.5-193T319.5-34 512-85zm151 489l59-59q9-9 0-18L521 127q-9-9-18 0L302 327q-9 9 0 18l59 59q9 9 19 0l132-132 132 132q10 9 19 0z"/><glyph glyph-name="uniE01E" unicode="" d="M512-171q-95 0-182 37.5t-150 100T80 116 43 298.5 80 481t100 150 150 100 182 37 182-37 150-100 100-150 37-182.5T944 116 844-33.5t-150-100T512-171zm0 854q-104 0-192.5-51.5t-140-140-51.5-193 51.5-193T319.5-34 512-85q78 0 149 30t122.5 81.5 82 123T896 299q0 104-51.5 192.5t-140 140T512 683zm151-490q-9-9-19 0L512 325 380 193q-9-9-19 0l-59 59q-9 9 0 18l201 201q9 9 18 0l201-201q9-9 0-18z"/><glyph glyph-name="uniE01F" unicode="" d="M512 811q104 0 199-40.5T874.5 661t109-163.5 40.5-199-40.5-199-109-163-163.5-109T512-213t-199 40.5-163.5 109-109 163T0 298.5t40.5 199 109 163.5T313 770.5 512 811zm299-555v85H213v-85h598z"/><glyph glyph-name="uniE021" unicode="" d="M639 105q0 46-30 76t-100 55q-114 39-170.5 93.5T282 478q0 89 54.5 147T484 693v118h86V692q92-14 144-79t52-172H636q0 68-30.5 107.5T523 588q-55 0-82.5-29.5T413 480q0-47 28.5-76T545 348q114-41 169.5-94.5T770 106q0-93-56.5-148.5T559-108v-105h-86v104q-98 10-159 69-60 58-60 169v7l1 3h128q0-77 37-110t93-33q60 0 93 29.5t33 79.5z"/><glyph glyph-name="uniE040" unicode="" d="M395 305q0 10-16 18-17 8-17 23t11 24q12 10 28 10 17 0 25-6l-6-17q-8 5-21 5t-13-12q0-7 17-16t17-25-12-25-30-9q-19 0-29 7l7 17q11-6 25-6t14 12zm-72 57q-12 0-12-12 0-6 17-16 15-8 16-25 1-15-12-25-12-9-30-9t-28 7l6 17q12-6 26-6 12 0 13 12 1 7-16 17-15 8-16 24-1 14 11 24 13 11 28 10 17-1 25-6l-6-17q-9 5-22 5zm-47-11q0-33-62-33h-4q0-6 5-16 4-8 19-8t27 6l3-17q-16-8-36-8-21 0-31 11t-10 28q0 18 7 32t20 24 29 10 24.5-8 8.5-21zm-35 11q-7 0-13-4-3-2-10-10-4-5-5-12 40 0 41 15 0 11-13 11zm-58-6q-25 0-32-39l-7-40h-24l11 62q2 9 6 38h20q-1-14-2-21h1q12 23 31 24h3l2-1-4-23h-5zM64 275q-19 0-26 4l-9-43H5l20 104q2 13 6 38h21l-2-17q14 18 29.5 18.5t22.5-5 10.5-13.5 3.5-27-16.5-39T64 275zm-7.5 18q9.5 0 17.5 7t12.5 18 4.5 23q0 19-16 19-6 0-12-4.5t-11-13-7-19.5l-4-25q6-5 15.5-5zm623.5 4q-13 0-12.5 16t10.5 29 19.5 13 12.5-1l-4-23q-3-16-10.5-25t-15.5-9zm-66 59q10 0 10-9 0-14-35-14 2 9 8.5 16t16.5 7zm262 0q10 0 10-9 0-14-35-14 2 9 8.5 16t16.5 7zm115 71q14 0 22-10 6-8 6-18v-5l-22-127q-2-13-13.5-22.5T958 235H678q-73 0-118-9.5T491 188q1 6 9 47h-19q-14-1-22 9-6 7-6 16 0 3 1 7l21 127q1 9 7 16.5t14.5 12T514 427h477zm-424-56q-17 0-27-20h-1q1 6 2 18h-18q-3-25-4-33l-10-54h20l7 35q6 34 28 34h4l4 20h-5zm44.5 0q-17.5 0-31.5-17t-14-33 4-24 12-12.5 23-4.5 28 7l-2 15q-11-6-24-5.5t-17 7.5-3 14h4q53 0 53 29 0 11-7.5 17.5t-25 6.5zm88.5 0q-21 0-37.5-18.5t-16.5-37 7-27 22.5-8.5 27.5 22q-1-15-1-20h19v6q0 16 4 34l9 45q-13 4-34 4zm91 0q-23 0-38.5-17.5T737 317t7-28 22.5-9 26.5 18l-1-16h19q1 15 4 31l18 96h-21l-7-40q-6 2-14 2zm82 0q-17 0-31-17t-14-35.5 9-28.5 26.5-10 31.5 7l-2 15q-11-6-24-5.5t-17 7.5-3 14h4q53 0 53 29 0 11-8 17.5t-25 6.5zm92 0q-17 0-27-20h-1q1 6 2 18h-18q-3-25-5-33l-10-54h21l7 35q6 34 27 34h4l4 20h-4zm-193-74q-14 0-14 14.5t4 23.5 11.5 14.5T789 355t12-3l-5-27q-2-13-9.5-20.5T772 297z"/><glyph glyph-name="uniE022" unicode="" d="M768 384q36-3 60.5-30t24.5-63V-35q0-39-27-66t-66-27H264q-39 0-66 27.5T171-35v326q0 36 24.5 63t60.5 30v85q0 106 75 181t181 75 181-75 75-181v-85zM555 97q13 7 22.5 18.5T592 141t5 30q0 35-25 60t-60 25-60-25-25-60q0-16 5-30t15-25.5T469 97V43q0-18 12.5-30.5T512 0t30.5 12.5T555 43v54zm128 287v85q0 71-50 121t-121 50q-46 0-85.5-23T364 555t-23-86v-85h342z"/><glyph glyph-name="uniE023" unicode="" d="M512 768q95 0 182-37t150-100 100-150 37-182.5T944 116 844-33.5t-150-100T512-171t-182 37.5-150 100T80 116 43 298.5 80 481t100 150 150 100 182 37zm0-853q104 0 192.5 51t140 139.5 51.5 193-51.5 193-140 140T512 683t-192.5-51.5-140-140-51.5-193 51.5-193T319.5-34 512-85zm43 426h256V213H427v384h128V341z"/><glyph glyph-name="uniE024" unicode="" d="M512 740q-26 0-51.5-5T412 720.5 368.5 697t-38-31.5T300 628l-58 40q45 66 116 104.5T512 811q85 0 158-41t118-110l-59-39q-23 36-56 63t-74.5 41.5T512 740zM357 587q26 38 66.5 60.5T512 670q49 0 91-23.5t67-63.5l-57-38q-16 26-42.5 41.5T512 602q-31 0-57-15t-42-39zm539-267q17 0 37-7.5t41.5-23T1010 245t14-67q0-41-14-74.5T974 48t-49.5-37.5-54-22T820-18q-96-152-308-153-71 0-128.5 17.5t-97 46-69 70-46 83.5-27 93-13.5 93-3 88q0 52 51.5 96.5t140 70T512 512t192.5-25.5 140-70T896 320zm-384-64q115 0 196 25t81 60.5-81 60.5-196 25q-75 0-139-11.5t-101-31-37-43 37-43 101-31T512 256zM909 73q22 15 36 45t14 60q0 33-19.5 54.5T894 255q-6-107-34-188-1-7 4.5-10t14.5 1q15 5 30 15z"/><glyph glyph-name="uniE025" unicode="" d="M959 41q23-41 23-74 0-24-12-45-28-50-109-50H163q-79 0-109 50-12 20-12 45 1 35 23 74l351 615q40 70 96 70t96-70zM478 512q-20 0-34-15-12-13-12-31v-5l22-235q2-21 18.5-36t37.5-15h5q10 0 20 4t17.5 11 12.5 16.5 6 19.5l22 234q1 10-2.5 20t-10 17-15.5 11-19 4h-68zm95.5-530.5Q597 6 597 43.5t-24 62-61 24.5-61-24.5T427 43q0-37 24-61.5T512-43q38 0 61.5 24.5z"/><glyph glyph-name="uniE026" unicode="" d="M895 811q54 0 91.5-38t37.5-92V-84q0-54-38-91.5T895-213H129q-54 0-91.5 37.5T0-84v765q0 54 38 92t91 38h766z"/><glyph glyph-name="uniE027" unicode="" d="M895 811q54 0 91.5-38t37.5-92V-84q0-54-38-91.5T895-213H129q-54 0-91.5 37.5T0-84v765q0 54 38 92t91 38h766zM463 28l433 433-108 108-325-324-145 144-108-108z"/><glyph glyph-name="uniE028" unicode="" d="M512 811q104 0 199-40.5T874.5 661t109-163.5 40.5-199-40.5-199-109-163-163.5-109T512-213t-199 40.5-163.5 109-109 163T0 298.5t40.5 199 109 163.5T313 770.5 512 811zm0-854q93 0 171.5 46t124 124.5 45.5 171T807.5 470t-124 124.5T512 640t-171.5-45.5-124-124.5T171 298.5t45.5-171T340.5 3 512-43z"/><glyph glyph-name="uniE029" unicode="" d="M512 811q104 0 199-40.5T874.5 661t109-163.5 40.5-199-40.5-199-109-163-163.5-109T512-213t-199 40.5-163.5 109-109 163T0 298.5t40.5 199 109 163.5T313 770.5 512 811zm0-854q93 0 171.5 46t124 124.5 45.5 171T807.5 470t-124 124.5T512 640t-171.5-45.5-124-124.5T171 298.5t45.5-171T340.5 3 512-43zm0 555q88 0 150.5-62.5t62.5-151-62.5-151T512 85t-150.5 62.5-62.5 151 62.5 151T512 512z"/><glyph glyph-name="uniE02A" unicode="" d="M512-128L341 171h342zm0 853l171-298H341z"/><glyph glyph-name="uniE02B" unicode="" d="M998 384q11 0 18.5-7.5t7.5-18.5V239q0-7-3.5-13t-9.5-9.5-13-3.5h-68q-16-81-62-150l48-48q8-8 8-18.5T916-21l-84-84q-8-8-18.5-8t-18.5 8l-48 48q-69-46-150-62v-68q0-11-7.5-18.5T571-213H453q-11 0-18.5 7.5T427-187v68q-81 16-150 62l-48-48q-8-8-18.5-8t-18.5 8l-84 84q-8 8-8 18.5t8 17.5l48 48q-46 69-62 150H26q-11 0-18.5 7.5T0 239v119q0 11 7.5 18.5T26 384h68q16 81 62 150l-48 48q-8 8-8 18.5t8 18.5l84 84q8 8 18.5 7.5T229 703l48-48q69 46 150 62v68q0 11 7.5 18.5T453 811h118q11 0 18.5-7.5T597 785v-68q81-16 150-62l48 48q8 8 18.5 7.5T832 703l84-84q8-8 8-18.5t-8-18.5l-48-48q46-69 62-150h68zM512 43q106 0 181 75t75 181-75 181-181 75-181-75-75-181 75-181 181-75z"/><glyph glyph-name="uniE02C" unicode="" d="M512 811q104 0 199-40.5T874.5 661t109-163.5 40.5-199-40.5-199-109-163-163.5-109T512-213t-199 40.5-163.5 109-109 163T0 298.5t40.5 199 109 163.5T313 770.5 512 811zm85-854v171H427V-43h170zm117.5 418.5Q725 401 725 440q0 24-10 51-11 27-36.5 50.5T612 581t-103 16q-48 0-86-15t-65.5-42-42.5-63q-16-39-16-93h128q0 36 4.5 53t15.5 32q9 12 28 22 16 8 41 8 36 0 54-17 19-18 19-53v-8q1-14-8-29t-24-27-32-24.5-33-28.5q-20-22-29-40-14-29-14-57v-23h128v18q0 24 13 40 12 15 26 25 4 3 11 8t13 10 12 9q20 13 36 30.5t26.5 43z"/><glyph glyph-name="uniE02D" unicode="" d="M193 85q-9 0-15.5 6.5T171 108v703h682V108q0-9-6.5-16T831 85H193zm106 555v-85h426v85H299zm0-171v-85h426v85H299zm0-170v-86h426v86H299zm660 0q27 0 46-19t19-46v-383q0-27-19-45.5T959-213H65q-27 0-46 19T0-149v383q0 27 19 46t46 19h63V81q0-16 11.5-27T167 43h690q16 0 27.5 11T896 81v218h63zm-20-401v33q0 11-7.5 18.5T913-43H794q-11 0-18.5-7.5T768-69v-33q0-7 3.5-13t9.5-9.5 13-3.5h119q11 0 18.5 7.5T939-102z"/><glyph glyph-name="uniE02E" unicode="" d="M890 744q18 0 31.5-13t13.5-32v-22q0-18-13-31t-32-13H134q-18 0-31.5 13T89 677v22q0 18 13 31.5t32 13.5h244q-9 0-15.5 6.5T356 766v22q0 8 16.5 15.5T401 811h267q7 0 17-3t18.5-8.5T712 788v-22q0-9-6.5-15.5T690 744h200zm-22-156q9 0 15.5-6.5T890 566v-668q0-46-32.5-78.5T779-213H245q-46 0-78.5 32.5T134-102v668q0 9 6.5 15.5T156 588h712zM312-57v489q0 9-6.5 15.5T289 454h-22q-9 0-15.5-6.5T245 432V-57q0-9 6.5-16t15.5-7h22q5 0 9 2t7 5 5 7 2 9zm155 0v489q0 9-6.5 15.5T445 454h-22q-9 0-15.5-6.5T401 432V-57q0-9 6.5-16t15.5-7h22q5 0 9 2t7 5 4.5 7 1.5 9zm156 0v489q0 9-6.5 15.5T601 454h-22q-9 0-15.5-6.5T557 432V-57q0-9 6.5-16t15.5-7h22q9 0 15.5 7t6.5 16zm156 0v489q0 9-6.5 15.5T757 454h-22q-9 0-16-6.5t-7-15.5V-57q0-9 6.5-16t16.5-7h22q6 0 11 3t8 8.5 3 11.5z"/><glyph glyph-name="uniE02F" unicode="" d="M895 811q54 0 91.5-38t37.5-92V87q0-54-38-92t-91-38H683L512-213 341-43H129Q75-43 37.5-5T0 87v594q0 54 38 92t91 38h766zM683 341v86H555v128h-86V427H341v-86h128V213h86v128h128z"/><glyph glyph-name="uniE030" unicode="" d="M396-103q23 0 39-16t16-39q0-15-7.5-28t-20-20.5T396-214H193q-15 0-28 7.5T144.5-186t-7.5 28q0 11 4.5 21.5t12 18T171-107t22 4h203zm189 774q0-52 17-93t44.5-68 60.5-50.5 66.5-47.5 61-51.5T879 291t17-95q-1-27-1-252 0-54-52-106-53-52-117-52H480q13 26 13 56 0 28-12 52 26 17 41.5 44.5T538-2q0 33-17 61l4 38q14 26 14 56 0 34-18 64-8 62-28 128t-39.5 110.5T419 543t-15 66l-2 99q0 44 25 73.5t66.5 29.5 66.5-29.5 25-73.5v-37zM148 98q-23 0-39 16t-16 39 16 39.5 39 16.5h292q23 0 39.5-16.5T496 153t-16.5-39T440 98H148zm292-45q23 0 39.5-16T496-2.5 479.5-42 440-58H148q-23 0-39 16T93-2q0 11 4 21.5T108.5 37t18 11.5T148 53h292zM193 253q-23 0-39.5 16.5T137 309q0 11 4.5 21.5t12 18 17.5 12 22 4.5h203q23 0 39-16.5t16-39.5-16-39.5-39-16.5H193z"/><glyph glyph-name="uniE031" unicode="" d="M629 700q-23 0-39.5 16.5T573 756t16.5 39 39.5 16h203q23 0 39-16t16-39-16-39.5-39-16.5H629zm-45-156q-23 0-39 16.5T529 600t16 39 39 16h292q11 0 21.5-4t18-11.5 12-18T932 600q0-23-16.5-39.5T876 544H584zm-81-163q8-62 28-128.5t39.5-111 35-87.5T621-12l1-99q0-44-24.5-73T531-213q-28 0-48.5 13.5t-31.5 37-11 51.5v37q0 46-13.5 83.5t-35.5 62-50 48-57 41.5-57 42-50 49.5-35.5 64T128 402q1 27 1 251 0 54 52 106 49 49 117 52 24 1 86 1t161-1q-13-26-13-55 0-28 11-53-26-17-41-44t-15-59q0-33 16-62l-4-38q-13-24-13-52v-4q0-34 17-63zm373 119q23 0 39.5-16.5T932 444t-16.5-39.5T876 388H584q-15 0-27.5 7.5t-20 20.5-7.5 28q0 23 16 39.5t39 16.5h292zm-44-156q23 0 39-16.5t16-39.5q0-15-7.5-28t-20-20.5T832 232H629q-23 0-39.5 16.5T573 288t16.5 39.5T629 344h203z"/><glyph glyph-name="uniE032" unicode="" d="M668 677H356q-18 0-31-13t-13-31H111v-45h201v-66H111v-45h201v-67H111v-45h201v-66H111v-45h201v-66H111v-45h201V-35H22q-9 0-15.5 6.5T0-13v801q0 9 6.5 16t15.5 7h624q9 0 15.5-6.5T668 788V677zm334-44q9 0 15.5-6.5t6.5-16.5v-801q0-9-6.5-15.5T1002-213H378q-9 0-15.5 6.5T356-191v801q0 9 6.5 16t15.5 7h624zM913-35v45H467v-45h446zm0 111v45H467V76h446zm0 111v45H467v-45h446zm0 111v46H467v-46h446zm0 112v45H467v-45h446z"/><glyph glyph-name="uniE033" unicode="" d="M236-119l559 559 47-47-566-567-23-9H75l-44 2-1 43V40l9 22 567 567 47-47L95 23q-8-8 0-16l3-4-1-97v-22q12-1 22 0 28 2 97 2l4-5q8-8 16 0zm-71 55l-15 16q-14 14-23 40l558 558 79-79L206-86q-27 8-41 22zm473 724l47 48 236-237-47-47-55 55-16 16zm338-55q18-18 18-37v-7q0-17-10-27l-32-31-236 236 32 32q10 10 26 10 5-1 8-1 19 0 37-17z"/><glyph glyph-name="uniE034" unicode="" d="M935 423q47-5 79.5-40.5t32.5-84-32.5-84T935 175V9q0-46-32.5-78.5T824-102H200q-46 0-78.5 32.5T89 9v166q-47 5-79.5 40T-23 298.5t32.5 84T89 423v165q0 46 32.5 78.5T200 699h624q46 0 78.5-32.5T935 588V423zm-13-191q28 0 47.5 19.5T989 299q0 14-5 26t-14 21-21.5 14-26.5 5q-34 0-54-28v207q0 37-26 63t-63 26H245q-37 0-63-26.5T156 544V337q-20 28-54 28-18 0-33.5-9T44 332t-9-33q0-28 19.5-47.5T102 232q34 0 54 28V54q0-37 26-63t63-26h534q37 0 63 26t26 63v206q20-28 54-28zm-276 89q9 0 15.5-6.5T668 299v-23q0-9-6.5-15.5T646 254H534V143q0-9-6.5-15.5T512 121h-22q-9 0-16 6.5t-7 15.5v111H356q-9 0-15.5 6.5T334 276v23q0 6 3 11t8 8 11 3h111v111q0 6 3 11.5t8.5 8T490 454h22q5 0 9-1.5t7-4.5 4.5-7 1.5-9V321h112z"/><glyph glyph-name="uniE035" unicode="" d="M-2 300l561 422V417h34q213 0 323-127.5T1026-90q0-1-2-2t-5-.5-3 2.5q-5 20-11.5 38.5t-22 47-35.5 53-53.5 50-74 43.5-99 29.5T593 183h-34v-307z"/><glyph glyph-name="uniE036" unicode="" d="M267 388q37 0 63-26t26-63q0-24-12-45t-32.5-32.5T267 210q-37 0-63 26t-26 63 26 63 63 26zm245 0q37 0 63-26t26-63-26-63-63-26q-24 0-44.5 11.5t-32.5 32-12 45.5q0 37 26 63t63 26zm245 0q37 0 63-26t26-63-26-63-63-26-63 26-26 63q0 24 12 44.5t32.5 32.5 44.5 12z"/><glyph glyph-name="uniE037" unicode="" d="M-85 768h554v-939H-85v939zm640 0h554v-939H555v939z"/><glyph glyph-name="uniE038" unicode="" d="M-85 768h554V512H-85v256zm0-341h554v-86H-85v86zm0-171h554v-85H-85v85zm0-171h554V0H-85v85zm0-170h554v-86H-85v86zm640 853h554V512H555v256zm0-341h554v-86H555v86zm0-171h554v-85H555v85zm0-171h554V0H555v85zm0-170h554v-86H555v86z"/><glyph glyph-name="uniE039" unicode="" d="M939 384V213H597v-341H427v341H85v171h342v341h170V384h342z"/><glyph glyph-name="uniE050" unicode="" d="M471 724q8 0 14-5.5t6-13.5v-814q0-8-6-13.5t-14-5.5H19q-8 0-13.5 5.5T0-109v814q0 8 5.5 13.5T19 724h452zM405 0v43H85V0h320zm0 107v42H85v-42h320zm0 106v43H85v-43h320zm0 107v43H85v-43h320zm0 107v42H85v-42h320zm0 106v43H85v-43h320zm600 191q8 0 13.5-5.5t5.5-13.5v-814q0-8-5.5-13.5T1005-128H553q-5 0-9.5 2.5t-7.5 7-3 9.5v814q0 8 6 13.5t14 5.5h452zM939 0v43H619V0h320zm0 107v256H619V107h320zm0 320v42H619v-42h320zm0 106v43H619v-43h320z"/><glyph glyph-name="uniE051" unicode="" d="M43 640v85h426v-85H43zm0-128v64h426v-64H43zm0-128v64h426v-64H43zm0-128v64h426v-64H43zm0-128v64h426v-64H43zM43 0v64h426V0H43zm0-128v64h426v-64H43zm512 640v64h426v-64H555zm0-128v64h426v-64H555zm0-384v320h426V0H555zm0-128v64h426v-64H555zm0 768v85h426v-85H555z"/><glyph glyph-name="uniE052" unicode="" d="M275 128q-8 0-13.5 5.5T256 147v559q0 8 5.5 13.5T275 725h474q8 0 13.5-5.5T768 706V147q0-8-5.5-13.5T749 128H275zm66 449v-43h342v43H341zm0-107v-42h342v42H341zm0-106v-43h342v43H341zm559-65q8 0 15-3t12.5-8.5T936 275t3-15V-89q0-16-11.5-27.5T900-128h-47v-8q0-3-1-5.5t-2.5-4-4-2.5-5.5-1h-59q-4 0-7 1.5t-4.5 4.5-1.5 7v8H256v-8q0-5-4-9t-9-4h-59q-5 0-9 3.5t-4 9.5v8h-47q-16 0-27.5 11.5T85-89v349q0 16 11.5 27.5T124 299h89V124q0-16 11.5-27.5T252 85h520q11 0 19.5 5.5t14 14.5 5.5 19v175h89zM853-30v17q0 5-3.5 9T840 0h-59q-5 0-9-4t-4-9v-17q0-3 1-5t3-4 4-3 5-1h59q5 0 9 4t4 9z"/><glyph glyph-name="uniE053" unicode="" d="M853 299q0-73-26-140T754.5 41 646-42L617 3q83 41 133 120.5t50 175-50 175T617 594l29 46q94-49 150.5-140T853 299zm-128-.5q0-76.5-41-139T576 66l-29 46q27 11 50 30t39.5 43 26 53.5T672 299q0 41-16 78.5T612 443t-65 43l29 45q67-31 108-93.5t41-139zM715 748q121-66 193.5-186T981 299 908.5 36 715-150l-29 45Q796-46 862 62t66 237q0 86-30.5 164.5t-85 139.5T686 703zM64 427h139l287 297v-852L203 171H64q-5 0-9.5 1.5t-7.5 5-5 8-2 9.5v208q0 10 7 17t17 7z"/><glyph glyph-name="uniE054" unicode="" d="M213 725h598v-896L512 85 213-171v896zm470-362v64H341v-64h342zm0 128v64H341v-64h342z"/><glyph glyph-name="uniE055" unicode="" d="M762 725l262-853H865L796 85H531l-63-213H317l258 853h187zM560 213h210l-65 228q-11 36-41 159h-2q-2-8-16-68.5T624 441zM341 747v-64H128v64h213zm77-406l-25-83q-56 33-100.5 84.5T235 448q-16-62-71.5-120.5T43 241L0 320q15 2 36.5 10t50 26.5 52 43.5 41.5 65.5 20 89.5H21v85h427v-85H269q7-146 149-214z"/><glyph glyph-name="uniE056" unicode="" d="M768 213q71 0 121-50t50-120.5T889-78t-121-50-121 50-50 121q0 26 8 50l-136 77q-30-39-74.5-62T299 85q-88 0-151 62.5t-63 151 62.5 151T299 512q51 0 95.5-22.5T469 428l136 76q-8 24-8 51 0 71 50 120.5T768 725t121-50 50-120.5T889 434t-121-50q-77 0-128 57l-137-82q9-30 9-60.5t-9-60.5l137-82q51 57 128 57zm0 406q-27 0-45.5-19T704 554.5t18.5-45T768 491t45.5 18.5 18.5 45-18.5 45.5-45.5 19zM299 213q35 0 60 25t25 60.5-25 60.5-60.5 25-60.5-25-25-60q0-17 7-33t18.5-27.5T266 220t33-7zM768-21q27 0 45.5 18.5t18.5 45T813.5 88 768 107t-45.5-19T704 42.5t18.5-45T768-21z"/><glyph glyph-name="uniE057" unicode="" d="M502 21H224q-22 0-37.5 15.5T171 74v1q0 22 15.5 37.5T224 128h278q22 0 37.5-15.5T555 75v-1q0-22-15.5-37.5T502 21zM224 171q-14 0-26.5 7T178 197t-7 27q0 23 15.5 38t37.5 15h278q22 0 37.5-15.5T555 224q0-23-15.5-38T502 171H224zm42 149q-22 0-37.5 15.5T213 373v1q0 22 15.5 37.5T266 427h193q22 0 37.5-15.5T512 374v-1q0-22-15.5-37.5T459 320H266zM459-21q22 0 37.5-15.5T512-74v-1q0-22-15.5-37.5T459-128H266q-22 0-37.5 15.5T213-75v1q0 22 15.5 37.5T266-21h193zm437 268V17q0-50-48-97.5T740-128H539q16 24 16 53v1q0 33-21 58 28 10 45.5 35T597 74v1q0 46-35 74 35 28 35 73v2q0 30-16 53.5T539 312l-2 6q17 25 18 55v1q0 33-20.5 58.5T483 466q-2 5-7 15l-19.5 46.5-14.5 39-11.5 41L427 640v77q0 40 24 67t63 27q38 0 60.5-27t22.5-67v-34q0-42 13-76.5t34-57 48-44 55-38 54.5-38.5 47.5-45 34-58.5 13-78.5z"/><glyph glyph-name="uniE058" unicode="" d="M565 619q-22 0-37.5 15.5T512 672q0 23 15.5 38t37.5 15h193q11 0 20.5-4t16.5-11 11.5-17 4.5-21q0-23-15.5-38T758 619H565zm193-342q22 0 37.5-15.5T811 224q0-23-15.5-38T758 171H565q-22 0-37.5 15.5T512 224q0 23 15.5 38t37.5 15h193zm42 150q22 0 37.5-15.5T853 374v-1q0-22-15.5-37.5T800 320H522q-22 0-37.5 15.5T469 373v1q0 22 15.5 37.5T522 427h278zm0 149q22 0 37.5-15.5T853 523v-1q0-11-4-20.5T838 485t-17-11.5-21-4.5H522q-22 0-37.5 15.5T469 522v1q0 22 15.5 37.5T522 576h278zM469 224q0-33 20.5-59t51.5-34q2-5 7-15l25.5-61.5 16-49L597-43v-76q0-40-24-67t-63-27q-38 0-60.5 26.5T427-119v34q0 47-16.5 84.5t-43 62.5-58.5 46.5-63.5 43.5-58 47-43 63.5T128 350v231q0 32 21 65t58 56 77 23h202q-16-24-17-53 0-33 21-59-28-10-45.5-34.5T427 523v-1q0-46 35-74-35-28-35-72v-3q0-29 16-53t42-35l2-6q-18-24-18-55z"/><glyph glyph-name="uniE059" unicode="" d="M919 596q8 0 14-5.5t6-13.5v-686q0-8-6-13.5t-14-5.5H403q-8 0-13.5 5.5T384-109v686q0 8 5.5 13.5T403 596h516zM853 0v43H469V0h384zm0 107v42H469v-42h384zm0 106v43H469v-43h384zm0 107v43H469v-43h384zm0 107v42H469v-42h384zM640 640H403q-10 0-19.5-3t-17-9-13.5-13.5-9-17.5H171v-42h170v-64H171v-43h170v-64H171v-43h170v-64H171v-42h170v-64H171v-43h170V0H105q-8 0-14 5.5T85 19v686q0 8 6 13.5t14 5.5h516q8 0 13.5-5.5T640 705v-65z"/><glyph glyph-name="uniE05A" unicode="" d="M848 725q37 0 64-26.5t27-63.5V48q0-37-26.5-64T848-43H619L512-171 405-43H176q-37 0-64 26.5T85 48v587q0 25 12.5 45.5t33 32.5 45.5 12h672zM683 299v85H555v128h-86V384H341v-85h128V171h86v128h128z"/><glyph glyph-name="uniE03A" unicode="" d="M926 329q12-12 12-31 1 0 1-1 0-17-13-29L541-115q-13-13-30.5-13T480-115l-60 60q-13 12-13 30t13 30l178 177 34 31H128q-18 0-30.5 12.5T85 256v85q0 18 12.5 30.5T128 384h504l-34 31-178 177q-13 12-13 30t13 30l60 61q12 13 29 13h1q18-1 31-13z"/><glyph glyph-name="uniE03B" unicode="" horiz-adv-x="1214" d="M1202 329q12-12 12-30.5t-12-30.5L816-115q-13-13-30.5-13T756-115l-61 60q-13 12-13 29v1q1 18 13 30l178 177 128 117-128 116-178 177q-13 12-13 29v1q1 18 13 30l61 61q12 13 29 13h1q18-1 30-13zm-647 51q19-7 30.5-23.5T597 319V22q0-27-19-46t-45-19H65q-27 0-46 19T0 22v297q0 21 12 37.5T43 380v19q0 100 75 170.5T299 640t181-70.5T555 399v-19zM341 128v85q0 18-12.5 30.5t-30 12.5-30-12.5T256 213v-85q0-18 12.5-30.5t30-12.5 30 12.5T341 128zm107 256v20q0 53-44 91t-105.5 38T193 495t-44-91v-20h299z"/><glyph glyph-name="uniE03D" unicode="" d="M926 329q12-12 12-31 1 0 1-1 0-17-13-29L626-30q-13-13-30.5-13T566-30l-61 60q-8 8-11 19t0 22 11 20l93 91 99 91q12 11 12 26t-12 26l-99 90-93 92q-13 12-13 28v1q1 18 13 31l61 60q12 13 30 13t30-13zm-384 0q12-12 12-31 1 0 1-1 0-17-13-29L242-30q-13-13-30.5-13T182-30l-61 60q-13 12-13 29v1q1 18 13 31l93 91 99 91q12 11 12 26t-12 26l-99 90-93 92q-13 12-13 28v1q1 18 13 31l61 60q12 13 30 13t30-13z"/><glyph glyph-name="uniE044" unicode="" d="M768-43L235 299l533 341V-43z"/><glyph glyph-name="uniE045" unicode="" d="M256-43v683l533-341z"/><glyph glyph-name="uniE046" unicode="" d="M432 555l256-257L432 42l-91 90 166 166-166 166z"/><glyph glyph-name="uniE048" unicode="" d="M830 810q80 0 137-57t57-137V-19q0-80-57-137t-137-57H194q-80 0-137 56.5T0-19v635q0 80 57 137t137 57h636zm-22-699L620 299l188 187-109 108-187-187-187 187-109-108 188-187-188-188L325 3l187 187L699 3z"/><glyph glyph-name="uniE049" unicode="" d="M512-171q-15 0-27 6t-16 16h85q-2-6-8-11t-15-8-19-3zm85 214q9 0 15.5-6.5T619 21t-6.5-15T597 0H427q-9 0-15.5 6T405 21t6.5 15.5T427 43h170zm0-64q9 0 15.5-6.5T619-43t-6.5-15-15.5-6H427q-9 0-15.5 6T405-43t6.5 15.5T427-21h170zm0-64q9 0 15.5-6.5T619-107t-6.5-15-15.5-6H427q-9 0-15.5 6t-6.5 15 6.5 15.5T427-85h170zm-85 640q106 0 181-75t75-181q0-78-42.5-141.5T614 64h-81v152q28 7 46 30t18 53q0 35-25 60t-60 25q-23 0-42.5-11.5t-31-31T427 299q0-30 18-53t46-30V64h-81q-69 30-111.5 93.5T256 299q0 106 75 181t181 75zm43-256.5q0-17.5-12.5-30T512 256t-30.5 12.5-12.5 30 12.5 30T512 341t30.5-12.5 12.5-30zM533 811v-86h-42v86h42zM368 701l-39-16-33 79 40 16zm-233-55l30 30 60-61-30-30zM799-18l30 30 60-60-30-30zM126 482l-16-40-79 33 16 39zm772-366l16 39 79-33-16-39zM85 320v-43H0v43h85zm854-43v43h85v-43h-85zM31 122l79 33 16-39-79-33zm962 353l-79-33-16 40 79 32zM135-48l60 60 30-30-60-60zm664 663l60 61 30-30-60-61zm-71 149l-33-79-39 16 32 79z"/><glyph glyph-name="uniE04A" unicode="" d="M512-171q-15 0-27 6t-16 16h85q-2-6-8-11t-15-8-19-3zm85 214q9 0 15.5-6.5T619 21t-6.5-15T597 0H427q-9 0-15.5 6T405 21t6.5 15.5T427 43h170zm0-64q9 0 15.5-6.5T619-43t-6.5-15-15.5-6H427q-9 0-15.5 6T405-43t6.5 15.5T427-21h170zm0-64q9 0 15.5-6.5T619-107t-6.5-15-15.5-6H427q-9 0-15.5 6t-6.5 15 6.5 15.5T427-85h170zm-85 640q106 0 181-75t75-181q0-78-42.5-141.5T614 64h-81v152q28 7 46 30t18 53q0 35-25 60t-60 25q-23 0-42.5-11.5t-31-31T427 299q0-30 18-53t46-30V64h-81q-69 30-111.5 93.5T256 299q0 106 75 181t181 75zm43-256.5q0-17.5-12.5-30T512 256t-30.5 12.5-12.5 30 12.5 30T512 341t30.5-12.5 12.5-30z"/><glyph glyph-name="uniE04B" unicode="" d="M533 811v-86h-42v86h42zM368 701l-39-16-33 79 40 16zm-233-55l30 30 60-61-30-30zM799-18l30 30 60-60-30-30zM126 482l-16-40-79 33 16 39zm772-366l16 39 79-33-16-39zM85 320v-43H0v43h85zm854-43v43h85v-43h-85zM31 122l79 33 16-39-79-33zm962 353l-79-33-16 40 79 32zM135-48l60 60 30-30-60-60zm664 663l60 61 30-30-60-61zm-71 149l-33-79-39 16 32 79z"/><glyph glyph-name="uniE04C" unicode="" d="M512-171q-15 0-27 6t-16 16h85q-4-9-15.5-15.5T512-171zm85 214q9 0 15.5-6.5T619 21t-6.5-15T597 0H427q-9 0-15.5 6T405 21q0 6 3 11t8 8 11 3h170zm0-64q9 0 15.5-6.5T619-43t-6.5-15-15.5-6H427q-4 0-8.5 1.5t-7 4.5-4.5 7-2 8q0 9 6.5 15.5T427-21h170zm0-64q9 0 15.5-6.5T619-107t-6.5-15-15.5-6H427q-9 0-15.5 6t-6.5 15 6.5 15.5T427-85h170zm-85 640q106 0 181-75t75-181q0-78-42.5-141.5T614 64h-38q2 51 10.5 102t20.5 88 19.5 55.5T639 340l1 1-98-58-30 37-30-37-98 58 1-1q9-18 19.5-45.5t26-95.5T448 64h-38q-69 30-111.5 93.5T256 299q0 106 75 181t181 75zm58-299q-29-72-32-192h-52q-3 120-32 192l37-21 21 31 21-31z"/><glyph glyph-name="uniE060" unicode="" d="M1018 482q6-6 6-14t-6-14l-46-46-181 180 47 47q6 6 14 6t13-6zM171-32l590 590 181-180-591-591H171v181zm90-30l515 515-30 30L231-32zm507 873v-86H0v86h768zM597 640v-85H0v85h597zM427 469v-85H0v85h427zM256 299v-86H0v86h256z"/><glyph glyph-name="uniE061" unicode="" d="M749 85h-47q-8 0-13.5 6t-5.5 14v132q0 5 2.5 9.5t7 7 9.5 2.5h47q8 0 13.5-5.5T768 237V105q0-8-5.5-14T749 85zm62 0v64h213V-43q0-35-25-60t-60-25H85q-35 0-60 25T0-43v192h213V85q0-18 12.5-30T256 43h85q18 0 30.5 12.5T384 85v64h256V85q0-18 12.5-30T683 43h85q18 0 30.5 12T811 85zm128 554q35 0 60-25t25-60V192H811v64q0 18-12.5 30.5T768 299h-85q-18 0-30.5-12.5T640 256v-64H384v64q0 18-12.5 30.5T341 299h-85q-12 0-21.5-6T219 277.5t-6-21.5v-64H0v362q0 35 25 60t60 25h185q27 76 93 124t149 48q55 0 104-22t84.5-61 53.5-89h185zm-575 0h296q-22 39-61.5 62.5T512 725t-86.5-23.5T364 639zM322 85h-47q-5 0-9.5 3t-7 7-2.5 10v132q0 8 5.5 13.5T275 256h47q8 0 13.5-5.5T341 237V105q0-8-5.5-14T322 85z"/><glyph glyph-name="uniE062" unicode="" d="M427 43v341h-86v85l256 86V43H427zm512 767q35 0 60-25t25-61v-852q0-35-25-60t-60-25H85q-35 0-60 25T0-128v852q0 35 25 60.5T85 810h854zm0-938v853H85v-853h854z"/><glyph glyph-name="uniE063" unicode="" d="M512 811q104 0 199-40.5T874.5 661t109-163.5 40.5-199-40.5-199-109-163-163.5-109T512-213t-199 40.5-163.5 109-109 163T0 298.5t40.5 199 109 163.5T313 770.5 512 811zm445-541q1 15 1 29 0 158-100 281-6-6-6-7-113-113-258-180 17-35 33-70 1-1 1.5-4t1.5-3q43 6 87 6 118 0 226-46 6-2 14-6zM814 627q-61 56-138.5 87T512 745q-74 0-144-24 116-123 196-270 141 64 250 176zm-510 66q-87-46-147.5-125.5T75 390q73-13 148-13 145 0 280 49-82 146-199 267zM66 299q0-89 33-168.5T191-11q43 91 114 163 81 81 185 124 37 15 75 26-15 34-31 66-150-56-311-56-79 0-156 14-1-14-1-27zM241-56q120-91 271-91 80 0 154 27-12 187-77 361-117-30-209-108.5T241-56zm487-35q83 46 141 123t79 171q-107 54-227 54h-4q-32 0-63-4 59-166 74-344z"/><glyph glyph-name="uniE064" unicode="" d="M912-17q27-47 27-87 0-28-14-52-32-57-124-57H226q-94 0-127 57-14 24-14 52 0 39 27 87l229 401v427h342V384zM427 725V384h170v341H427zM384-43q18 0 30.5 12.5T427 0t-12.5 30.5T384 43q-12 0-21.5-6T347 21.5 341 0q0-18 12.5-30.5T384-43zm85.5 171q17.5 0 30 12.5T512 171q0 12-5.5 21.5t-15.5 15-22 5.5q-18 0-30-12.5t-12-30 12.5-30 30-12.5zm128-171Q633-43 658-18t25 60.5-25 60.5-61 25q-23 0-42.5-11.5t-31-31T512 43q0-35 25-60.5T597.5-43z"/><glyph glyph-name="uniE065" unicode="" d="M663 275q-29-124-91.5-202.5T443-18q-12-2-24-2-56 0-126 43-86 52-156 159-60 92-96 208-29 94-40 201-1 12-1 23 0 52 28 82 42 45 124 50h20q24 0 61-2 19-1 34-1 29 0 41 4 19 3 38 10t33.5 13.5 35.5 15 40 13.5q36 11 68 11 37 0 67-15 44-22 60-89 26-103 32-201 1-25 1-50 0-95-20-180zM397 495q0-3-1-7 0-28 36-29h3q48 0 106 36 41 25 41 43 0 5-3 9l-4 4q-13 9-34 15-18 5-38 5h-6q-24-1-45-8t-36.5-24.5T397 495zm-272-23q-4-5-4-10 0-16 40-27 35-10 68-11 25 0 48 6 40 9 40 32 0 8-5 18-15 29-43 39-17 6-34 6-11 0-21-2-28-6-53-20t-36-31zm285-299q42 7 73.5 32.5t49.5 59 26 74.5q1 7-1.5 8t-6.5-5q-60-70-156-87-22-4-43-4h-8q-67 0-125 33-6 3-8 1l-1-1q0-2 3-7 32-55 84-84 38-22 81-22h8zm307 23q-4-24-42-25-4 0-8 1 13 33 23 69 27-16 27-37v-8zM701 41q41-11 64-43.5T793-77q1-5-1-5.5t-5 3.5q-37 50-101 67-26 7-50 7-36 0-70-15-4-2-5.5-.5T562-15q25 34 61 51 22 10 46 10 16-1 32-5zm307 269q17-21 17-54 0-14-3-29Q993 73 918-40q-65-98-147-144-61-34-108-34-16 0-31 4-40 11-77 55T496-47q19 9 36 24 17-59 48-97t64-47q11-3 24-3 39 0 89 29 66 38 119 121 62 95 87 223 3 14 2 26 0 27-13 44-25 32-77 39-16 2-35 2.5t-34.5 1.5-30.5 5q-16 4-64 29 3 26 5 53 51-26 73-33 18-5 38-6t43-2 42-4q65-10 96-48zm-99-182q-3-10-34.5-10T814 129q-52 20-52 45 0 5 2 9 7 17 30 24 10 2 20 2 14 0 27-5 31-12 52-38 17-21 17-33 0-3-1-5z"/><glyph glyph-name="uniE066" unicode="" d="M384-85L0 299l149 149 235-235 491 512 149-151z"/><glyph glyph-name="uniE013" unicode="" d="M448 43v128h128V43H448zm64 725q95 0 182-37t150-100 100-150 37-182.5T944 116 844-33.5t-150-100T512-171t-182 37.5-150 100T80 116 43 298.5 80 481t100 150 150 100 182 37zm0-853q78 0 149 30t122.5 81.5 82 123T896 299q0 104-51.5 192.5t-140 140T512 683t-192.5-51.5-140-140-51.5-193 51.5-193T319.5-34 512-85zm-43 298l-42 342h170l-42-342h-86z"/><glyph glyph-name="uniE03E" unicode="" d="M85 213v171h86V213H85zm768 384h86V0h-86v597zM213 213v171l598 213V0L647 59q-20-45-62.5-73.5T491-43q-71 0-121 50t-50 121q0 23 6 45zm174-62q-3-12-3-23 0-44 31-75.5T491 21q12 0 24 3t22.5 8T557 44.5 573.5 61 586 80z"/><glyph glyph-name="uniE05B" unicode="" d="M256 725h683V43H640v384H256v298zM85-128v427h427v-427H85z"/><glyph glyph-name="uniE067" unicode="" horiz-adv-x="256" d="M85-213V811h43V-213H85z"/><glyph glyph-name="uniE068" unicode="" horiz-adv-x="512" d="M302 600q59-59 92-137t33-164.5T394 134 302-3l-38 38q52 52 80.5 120T373 299t-28.5 144T264 563zm-91-90q88-88 88-212 0-123-88-211l-38 38q72 72 72 173.5T173 472zM83 382l38 37q50-50 50-120.5T121 178l-38 38q34 34 34 83t-34 83z"/><glyph glyph-name="uniE069" unicode="" d="M512 811q104 0 199-40.5T874.5 661t109-163.5 40.5-199-40.5-199-109-163-163.5-109T512-213t-199 40.5-163.5 109-109 163T0 298.5t40.5 199 109 163.5T313 770.5 512 811zm299-555v85H555v256h-86V341H213v-85h256V0h86v256h256z"/><glyph glyph-name="uniE06A" unicode="" d="M512 811q104 0 199-40.5T874.5 661t109-163.5 40.5-199-40.5-199-109-163-163.5-109T512-213t-199 40.5-163.5 109-109 163T0 298.5t40.5 199 109 163.5T313 770.5 512 811zM445 43l408 407-109 109-299-300-145 145-108-109z"/><glyph glyph-name="uniE06B" unicode="" d="M512 725q116 0 214-57t155.5-155T939 299 881.5 84.5 726-71t-214-57-214 57T142.5 84.5 85 299t57.5 214T298 668t214 57zm256-469v85H555v214h-86V341H256v-85h213V43h86v213h213z"/><glyph glyph-name="uniE06C" unicode="" d="M512 725q116 0 214-57t155.5-155T939 299 881.5 84.5 726-71t-214-57-214 57T142.5 84.5 85 299q0 87 34 165.5t91 136 136 91T512 725zM469 85l339 338-94 95-245-245-118 118-94-94z"/><glyph glyph-name="uniE03F" unicode="" d="M512 811q104 0 199-40.5T874.5 661t109-163.5T1024 309t-26-172Q948-14 815.5-113.5T512-213q-104 0-199 40.5t-163.5 109-109 163T0 298.5t40.5 199 109 163.5T313 770.5 512 811zM804-38.5Q929 70 953 233q-19-22-38-33.5T889.5 188t-12.5 1.5-14 13-13 30.5-10 28-5 20 2.5 30.5 12.5 48 27 53 33 31.5q4-18 10-18t14 17q-8 24-19 48-21 6-25 9 2-7 10.5-17t7.5-22q-15 16-24 10t-12-24q-8-51-21-51-7 0-19 16t-1 23q3 2 9 5.5t10.5 7.5-3 9.5-19 10.5-12.5 6q3 7 14 18t15.5 20.5-6 24T828 558q8-12 23-11v2q0 12 8 30-23 28-50 52-20 14-25 11 8-5 35-39 25-32 25-42v-1q-11 7-21 8.5t-16 6-11.5 14-24.5 39-19 37v9.5q-110 70-250 70-1 0-1 1-139 0-253-87-116-87-160-219-23-67-23-137 1-2 1-4 0-72 22-140Q131 27 247-60t274-87T804-38.5zM416 634q0 23 64 23 21 0 29-6-2-21-67-34-11-2-14-3 0 6 10 8.5t13.5 5 3 5-3.5 3.5-7.5 0-9-3l-9-4-7.5-3q-2 4-2 8zm84-52q4 7 13 6.5t34.5-17.5 30.5-28.5-8-11.5q-10 0-22 9 3-12 2.5-17.5t-8-7-14.5-.5-16 2.5-13 1.5q1 9 26 8-7 14-37 34t-31 21q-1 5 8 10t20 3.5 15-13.5zm223-30q2 9-7 6-3-1-4 2t12 16.5 19-1.5q3-8-5-18t-15-5zM589 399l4 13q4 14 11 15-1-3-1-8v-7q7 3 16 .5t7-10.5q-8-9-13.5-3.5t-10.5 1-13-.5zm-2 188q-15 9-39 15.5T509 618q8 12 45.5 36t62.5 24 28-6q20-37 39-49.5t17.5-20-21.5-11-20.5-6.5 5-10 .5-16-6.5-29 .5-30q-15-2-21 5-17 16-26.5 44.5T587 587zm-91-390q-5-7-12.5-7t-23 12-25 12H423q6 7 18 6.5t24.5-7T485 203t11-6zm280 320q10-4 11.5-17t-1.5-15q-1 2-8 8.5t-7 10.5q6 4 5 13zm45 1q3-4 3.5-12T807 486q-5 0-3.5 10.5t.5 13.5-9 7.5-19.5 7T768 548q2-1 23.5-11.5T821 518zm-666 47q6 4 46 39.5t59 35.5q16 0 16-31v-10q7 6 16.5 5.5T315 591q42-42 69-42 16 0 33 15-18 8-4 22t27 10q-10-11-10-25t8-30q0 4 11.5 15t17.5 3q2-4-10-14t-27-20q-41-27-42-44 0-8 19.5-19t37.5-22 15-20q13 10 17.5 23.5t3 21.5-1.5 13q0 15 11 15 1 0 2 1 31 0 70-24 17-10 17-18.5t-5-14.5q7 3 16.5 2.5T603 435q-6-3-20.5-10t-35-17.5T517 384q16 10 22 10t11.5-2.5 12.5-9 11-2.5q0-12-10.5-15.5t-11 0 5.5 9.5q-9-1-41-21t-33-23q-15-4-18.5-23.5T461 265t-9-29q-4-3-21 16t-19 20q-7 8-17 1t-23-2.5-26.5-6T332 240t5-26q8-14 19.5-14t24 4.5 14.5.5-1-12.5 4.5-12 15-4.5 13-2.5T439 156t29.5-16 48.5 19q2-4-1-11t6-9q7 14 24.5 14t38.5-6q51-16 61-40 4-11-2-19 27 3 52 3 80 0 81-13 0-1-2-3.5t-20-41-29.5-49T696-33t-25-17-27.5-24T616-88t-8 7q-3-14-37-39.5T524-146t-13 22q0 7 10.5 29T532-58.5 526.5-33t-29 27.5-32.5 27T454.5 45t1.5 22.5 9.5 26T472 116q0 14-85 41-36 11-47 15.5t-29 19-35.5 38.5-29.5 53q-12 28-17 28 0-2 8.5-21.5T246 261t-3-14q-4 11-25 56t-21 67.5 12.5 42.5 12.5 52l-3 36q0 14 4 32-13-1-14 1.5t5 23.5q1 3-6 7.5t-3 14.5q-2-1-16.5-8t-33.5-7zm206 37q-18 10-18.5 15.5t13 5.5 17.5-2q17-7 22-37-2 1-17.5 0t-28 2.5T337 597q0 10 11.5 4.5t12.5.5zm136-413q2 2 8 2.5t2 5.5q18-5 36-7-22-6-33-6t-13 5z"/><glyph glyph-name="uniE041" unicode="" horiz-adv-x="768" d="M406 199q-73 0-73 79 0 38 28.5 73t71 35 55.5-30q4-9 4-21 0-59-108-59h-9q-2-14 6.5-28.5t35-14.5 48.5 12l4-32q-27-14-63-14zm45 136q-1 19-21 19h-1q-20 0-32-14-13-14-18-32h3q69 0 69 27zm-108 50l-9-42q-2 0-8 1-22 0-36.5-19.5T269 275l-13-72h-43l21 110q3 17 9 69h37q-2-25-4-38h1q21 41 56 42 2 0 5.5-.5t4.5-.5zm242-31q-32 0-32-21 0-13 23-25 37-20 37-48.5T592 215t-54-16-51 13l11 31q21-12 38-12 32 0 33 22 0 15-24 27-35 19-35 50.5t35 47.5q16 8 40 8h2q22 0 37-10l-11-30q-15 8-28 8zm-439 31q61 0 61-67 0-30-13-57.5T156.5 216t-50-17-39.5 8l-15-76H10l35 184q4 23 10 67h38l-4-30h1q24 33 56 33zm-2-126.5q18 26.5 18 59.5t-28 33q-17 0-32-18t-21-48l-8-44q11-9 32-9t39 26.5zM748 346q-15 8-31 8-30 0-30-21 0-13 23-25 37-20 37-48.5T726 215t-53.5-16-50.5 13l11 31q21-12 38-12 32 0 32 22 0 15-23 27-36 19-36 46v1q0 27 20 43t50 16 44-10z"/><glyph glyph-name="uniE042" unicode="" d="M577 239q-25 0-25 30t16 51.5 34.5 21.5 25.5-6l-9-47q-4-23-16.5-36.5T577 239zm154.5 92q11.5 12 29.5 12t18-16q0-23-55-23h-8q4 15 15.5 27zM412 239q-22 0-22 28.5t18 51.5 43 23q9 0 15-1l-8-41q-7-38-28-54-9-7-18-7zm553 230q24 0 37-15t13-26-1-17l-38-225q-4-24-24-41t-45-17H408q-130-1-209.5-17T76 45q2 9 16 83H59q-24 0-37 15T9 169.5t1 16.5l38 225q4 24 24 41t45 17h848zm-745-99l-8 1q-30 0-49-36h-1q2 11 4 32h-32q-5-45-8-59l-18-96h36l12 63q5 26 18 42.5t32 16.5h7zm128-43q0 44-55 44-20 0-41-15-41-29-41-81v-2q0-29 16-46.5t47-17.5 55 12l-4 27q-20-10-42.5-10t-30 13-5.5 25h8q93 0 93 51zm144-44l16 81q-22 7-47 7-51 0-80-33t-29-76q0-24 12.5-38.5T398 209q35 0 55 38h1q-3-26-3-35h34v21l7 50zm153-71q2 27 7 56l32 170h-37l-13-72q-10 4-24 5-42 0-69.5-31.5T513 274t13-49.5 34-15.5q33 0 53 31h1l-3-28h34zm67 64h8q94 0 94 51 0 20-13.5 32t-38 12-44.5-15q-42-30-42-83 0-29 16-46.5t47.5-17.5 54.5 12l-3 27q-20-10-42.5-10t-30 13-6.5 25zm215 94l-8 1q-30 0-49-36h-1q2 11 4 32h-32q-5-45-8-59l-18-96h37l11 63q5 26 18 42.5t32 16.5h7zm-661.5-39q11.5 12 29.5 12t18-16q0-23-55-23h-7q3 15 14.5 27z"/><glyph glyph-name="uniE06D" unicode="" d="M512 811q104 0 199-40.5T874.5 661t109-163.5 40.5-199-40.5-199-109-163-163.5-109T512-213t-199 40.5-163.5 109-109 163T0 298.5t40.5 199 109 163.5T313 770.5 512 811zm329-543q12 12 12 30.5T841 329L540 628q-13 13-30.5 13T479 628l-60-60q-13-13-13-30.5t13-29.5l93-93 34-31H213q-18 0-30-12.5T171 341v-85q0-18 12.5-30.5T213 213h333l-34-31-93-92q-8-8-11-19.5t0-22.5 11-19l60-60q12-13 30-13t31 13z"/><glyph glyph-name="uniE06E" unicode="" d="M512 811q104 0 199-40.5T874.5 661t109-163.5 40.5-199-40.5-199-109-163-163.5-109T512-213t-199 40.5-163.5 109-109 163T0 298.5t40.5 199 109 163.5T313 770.5 512 811zm248-531q8 8 8 18.5t-8 18.5L530 547q-4 4-8.5 6t-9.5 2-10-2-8-6l-50-49q-8-8-7.5-18.5T444 461l30-30 81-74H282q-11 0-18.5-7.5T256 331v-65q0-11 7.5-18t18.5-7h274l-82-76-29-29q-5-5-7-11.5t0-13.5 7-12l49-49q8-8 18.5-7.5T530 50z"/><glyph glyph-name="uniE03C" unicode="" d="M641 299L231 709q-12 11-11.5 27.5T231 764l35 35q12 12 28 11.5t27-11.5l473-473q10-10 11-25t-8-26q-1-2-3-4l-11-11-462-462q-11-11-27.5-11T266-202l-35 36q-12 11-11.5 27t11.5 27z"/><glyph glyph-name="uniE06F" unicode="" d="M56 438zm925 202q18 0 30.5-12.5T1024 597V43q0-18-12.5-30.5T981 0t-30 13Q822 144 697 207q28-45 28-96v-4q0-64-40-118T576.5-96.5 427-128q-124 0-211.5 68.5T128 107q0 84 68 149h-47q-47 0-93-54-10-10-23.5-10t-23 9.5T0 224v192q0 13 9.5 22.5t23 9.5T56 438q47-54 93-54h363q196 0 439 243 12 13 30 13zM426.5-43q88.5 0 151 44T640 106.5 577.5 212 427 256t-151-43.5T213 107 275.5 1t151-44zM56 202z"/><glyph glyph-name="uniE04D" unicode="" d="M1024 299q0-25-11-47.5T982.5 214 939 194V1q0-54-38-91.5T809-128H215q-54 0-92 38T85 1v193q-37 7-61 36.5t-24 68 24 68T85 403v193q0 54 38 91.5t92 37.5h594q54 0 92-37.5t38-91.5V403q37-7 61-36.5t24-67.5zM768 85v86H256V85h512zm0 171v85H256v-85h512zm0 171v85H256v-85h512z"/><glyph glyph-name="uniE070" unicode="" d="M512 811q104 0 199-40.5T874.5 661t109-163.5 40.5-199-40.5-199-109-163-163.5-109T512-213t-199 40.5-163.5 109-109 163T0 298.5t40.5 199 109 163.5T313 770.5 512 811zm256-708L572 299l196 196-60 60-196-196-196 196-60-60 196-196-196-196 60-61 196 196L708 42z"/><glyph glyph-name="uniE090" unicode="" d="M1024 616q-43-64-105-108 1-14 1-28 0-178-100-330Q711-17 532-82q-98-35-210-35-175 0-322 94 25-3 50-3 146 0 261 90-68 1-122 42t-74 104q20-4 44-4t51 7q-73 15-121 73T41 419v3q44-25 95-26-43 29-68 75T43 572.5 71 676q79-97 191.5-155T504 457q-5 23-5 48 0 87 61.5 148.5T711 715t151-67q71 14 134 51-24-75-93-116 64 7 121 33z"/><glyph glyph-name="uniE091" unicode="" d="M967 811q23 0 40-16.5t17-40.5v-911q0-23-16.5-39.5T967-213H704v405h139l21 149H704v96q0 37 16 56t61 19h72v137q-52 7-100 7-90 0-144-55t-54-153V341H427V192h128v-405H57q-33 0-49 28-8 13-8 28v911q0 23 16.5 40T57 811h910z"/><glyph glyph-name="uniE071" unicode="" d="M939 640h42V-43h-42v683zM811 384q18 0 30-12.5t12-30.5v-85q0-28-26-39-8-3-16-4H392l34-31 94-92q13-13 13-29l-1-1q0-18-12-31l-61-60q-12-13-29.5-13T399-31L98 268q-12 12-12 30 0 1-1 2 0 18 13 29l301 299q13 13 30.5 13t29.5-13l61-60q13-13 13-29l-1-1q0-18-12-30l-94-93-34-31h419z"/><glyph glyph-name="uniE092" unicode="" d="M906 129Q850 5 777-70q-44-45-92-45h-3q-26 0-67 19-42 19-84 20h-2q-43 0-87-19.5T370-115q-45 0-83 35T204.5 22.5 136 179q-18 70-18 131 0 18 2 34 6 76 34.5 119t60.5 70q65 53 137 53 37 0 92.5-19.5t82-19.5 79 19.5T696 586q108 0 183-93-45-25-72-64.5T776 345q-1-11-1-22 0-33 9-65 12-42 44-77t78-52zM640 652q-26-32-64-52-37-20-73-20h-4q-2 13-2 26 1 25 9 50 14 39 39 69.5t64 51.5 76 24q2-13 2-25 0-64-47-124z"/><glyph glyph-name="uniE093" unicode="" d="M822 501q21 0 35.5-15t14.5-35V226q0-33-30-46-9-4-25-4t-30.5 14.5T772 226v225q0 21 14.5 35.5T822 501zm-620 0q21 0 35.5-15t14.5-35V226q0-21-14.5-35.5T202 176t-35.5 14.5T152 226v225q0 21 14.5 35.5T202 501zm423 188q93-42 116-149l4-28H279q2 78 62 139 24 24 57 38l-40 56q-2 2 2.5 5t6.5 1l41-58q45 17 103.5 17T616 693l41 58q2 2 6-1t3-5zM409.5 586q11.5 0 20 8t8.5 19.5-8.5 20-20 8.5-19.5-8.5-8-20 8-19.5 19.5-8zm205 0q11.5 0 19.5 8t8 19.5-8 20-19.5 8.5-20-8.5-8.5-20 8.5-19.5 20-8zM277 88v397h470V88q0-12-8.5-20T719 60h-60V-65q0-21-15-35.5T608.5-115 573-100.5 558-65V60h-92V-65q0-21-15-35.5T415.5-115 380-100.5 365-65V60h-60q-12 0-20 8t-8 20z"/><glyph glyph-name="uniE094" unicode="" d="M475 650l451 62V311H475v339zm-33-339H98v287l344 48V311zm33-32h451v-394L475-57v336zm-33 0V-53L98-9v288h344z"/><glyph glyph-name="uniE095" unicode="" d="M305.5 637q24.5-23 24.5-48 0-46-31-76.5T189 482H49l38 178h135q59 0 83.5-23zM688 609q5-13 5-29 0-37-31-67.5T552 482H412l38 178h135q83-1 103-51zM256.5 370q24.5-23 24.5-48 0-45-31-76t-110-31H0l38 178h135q59 0 83.5-23zm363 0q24.5-23 24.5-60t-32.5-66T503 215H363l38 178h135q59 0 83.5-23zm380 108q24.5-23 24.5-48 0-46-31-76t-110-30H743l38 177h135q59 0 83.5-23zM972 146q0-42-33-71T831 46H690l39 177h134q84 0 104-50 5-13 5-27zM567.5 92Q592 69 592 32.5T559.5-33 451-62H311l38 177h135q59 0 83.5-23z"/><glyph glyph-name="uniE096" unicode="" d="M967 811q23 0 40-16.5t17-40.5v-911q0-23-16.5-39.5T967-213H57q-33 0-49 28-8 13-8 28v911q0 23 16.5 40T57 811h910zM171 299q0-100 52.5-182.5T363-9L200 438q-29-66-29-139zM416-29q47-14 100.5-14T625-23q-2 2-2 4L518 269zm143 488L682 92l34 114q26 83 26 121t-33 91q-12 19-13.5 23t-4.5 9-4 8l-2.5 7.5L682 477l-1 18 7 25q16 31 50 31l4-1q-98 90-230 90-88 0-163.5-41.5T227 486h22l91 4q14 1 15-12.5T339.5 462t-36.5-3L427 89l75 224-53 146-36 3q-9 1-12 8t1 14 13 6q56-4 90-4l91 4q14 1 15-12.5T598 462q-18-2-39-3zM684 4q77 45 123 123.5T853 296t-42 166q2-17 3-35 0-57-26-122z"/><glyph glyph-name="uniE097" unicode="" d="M379 609q56-2 85-59.5t29-106-18-74.5q-25-25-57-26h-2q-57 0-88 57-33 60-33 108 0 39 21 70 25 30 63 31zm-97-456q36 30 108 38 18 2 33 2 11 0 21-1 52-36 77-62 23-26 23-65.5T509.5-3t-104-28T293 .5t-43 78 32 74.5zm685 658q23 0 40-16.5t17-40.5v-911q0-23-16.5-39.5T967-213H57q-23 0-40 16.5T0-157v911q0 23 16.5 40T57 811h910zM392 282q0-28 27-64-108-3-174-41-43-25-58.5-57T171 62q0-53 48-92 48-41 146-41 117 2 178 55t61 121q-1 48-22.5 77.5T530 236l-31 26q-7 7-15 16t-8 27 24 43q33 29 52 55.5t19 65-9 67-27 47-27 23.5h57l58 34H437q-100 0-162-51-58-56-58-119t41-106q39-46 113-47 14 0 30 2-9-26-9-37zm504 29v57H796v101h-58V368h-97v-57h97v-98h58v98h100z"/><glyph glyph-name="uniE098" unicode="" d="M967 811q23 0 40-16.5t17-40.5v-911q0-23-16.5-39.5T967-213H57q-33 0-49 28-8 13-8 28v911q0 23 16.5 40T57 811h910zM783 438q41 30 70 72-38-17-80-22 46 27 61 78-42-25-88-34-42 44-101.5 44T544 535t-41-99q0-16 4-32-86 4-161 43T218 550q-19-33-19-69.5t17-67 46-50.5q-34 1-64 18v-2q0-50 32-88.5t80-48.5q-18-5-34-5t-29 2q14-42 50-69t81-28q-76-60-174-60-16 0-33 2 98-63 214-63 75 0 140 24 119 43 189 149.5T784 420q-1 8-1 18z"/><glyph glyph-name="uniE099" unicode="" d="M437 204v205l196-103zm530 607q23 0 40-16.5t17-40.5v-911q0-23-16.5-39.5T967-213H57q-33 0-49 28-8 13-8 28v911q0 23 16.5 40T57 811h910zm-92-540v55q0 52-5 102l-2 16q-13 92-88 101-62 8-227 9h-41q-258 0-295.5-16.5T164 476t-15-150v-55q0-52 5-101l2-16q13-90 89-101 58-8 247-10h20q256 0 299 17.5t54 80.5l3 13q7 58 7 117z"/><glyph glyph-name="uniE0B0" unicode="" d="M967 832q23 0 40-16.5t17-40.5v-910q0-23-16.5-40T967-192H57q-23 0-40 16.5T0-135v910q0 23 16.5 40T57 832h910zm-92-539v55q0 52-5 101l-2 16q-10 70-53 91-20 9-34 11-80 8-228 8h-41q-258 0-295.5-16T164 497.5 149 348v-55q0-153 36-190 23-24 73.5-30T463 65h49q256 0 299 17.5t54 79.5l3 13q7 59 7 118zm-459-99v250l241-126z"/><glyph glyph-name="uniE0B1" unicode="" d="M967 832q23 0 40-16.5t17-40.5v-910q0-23-16.5-40T967-192H704v384h133l20 160H704v101q0 37 16 56t61 19h83v138q-46 6-128.5 6t-137-53.5T544 468V352H416V192h128v-384H57q-23 0-40 16.5T0-135v910q0 23 16.5 40T57 832h910z"/><glyph glyph-name="uniE0B2" unicode="" d="M967 832q23 0 40-16.5t17-40.5v-910q0-23-16.5-40T967-192H57q-23 0-40 16.5T0-135v910q0 23 16.5 40T57 832h910zM187 516q0-85 65-129-35 1-66 19v-2q0-63 47-107 29-28 70-36-19-5-35.5-5t-30.5 3q19-60 77-88 28-13 59-13-79-62-181-63-17 0-34 3 102-65 223-66 78 0 145 25 124 45 196 155.5T794 446v19q43 31 73 75-40-18-84-23 47 28 64 81-43-26-92-36-43 46-105 46t-104.5-42.5T503 463q0-17 4-33-120 6-217 74-46 33-83 78-20-34-20-66z"/><glyph glyph-name="uniE0B3" unicode="" d="M277 168q37 31 112 39 22 3 40 3 9 0 16-1 54-38 79-64 24-27 24-68T512.5 7 405-22 288.5 11 244 91.5t33 76.5zm153 455q22-17 36-46 29-58 29-108t-18-77q-25-26-59-27h-2q-59 0-91 59-35 63-35 113 0 40 22 72 26 31 66 31 29 0 52-17zm537 209q23 0 40-16.5t17-40.5v-910q0-23-16.5-40T967-192H57q-23 0-40 16.5T0-135v910q0 23 16.5 40T57 832h910zM391 302q0-29 28-66-112-3-181-43-44-26-60-59t-16-60q0-55 50-94 50-42 151-44 121 2 184 57t63 126q-1 50-23 80t-53 55l-33 27q-7 7-15 16.5t-8 28 25 44.5q34 30 53.5 57.5T576 495q0 2 1 4 0 37-10 65-10 30-28.5 49T511 637h59l60 35H437q-38 0-82-9.5T270 619q-60-58-60-123t42-109q40-48 117-49 15 0 31 2-9-27-9-38zm505 18v64h-96v96h-64v-96h-96v-64h96v-96h64v96h96z"/><glyph glyph-name="uniE0B4" unicode="" d="M967 832q23 0 40-16.5t17-40.5v-910q0-23-16.5-40T967-192H57q-23 0-40 16.5T0-135v910q0 23 16.5 40T57 832h910zM160 320q0-103 54.5-188T358 3L190 463q-30-68-30-143zM413-18q49-14 104-14t112 20q-2 3-3 5L518 289zm148 503l127-378 35 117q27 86 27 125t-35 94q-12 19-14 23.5t-4.5 9.5-3.5 8-4 11.5-3 28 17 38 42 18.5h5q-101 92-238 92-91 0-168.5-42.5T218 514q13 0 23-1l93 5q14 1 15.5-13.5T337 489q-19-2-41-4l129-381 77 231-55 150-37 4q-9 1-12 8t1 14 13 7q58-4 93-5l94 5q14 1 15-13.5T601 489q-19-3-40-4zM689 16q80 47 127.5 127.5T864 317t-43 172q2-18 2-36 0-59-26-126z"/><glyph glyph-name="uniE09A" unicode="" d="M225 470q23 11 48 12h67q7 0 7 6v1q-1 57-1 74.5t10 35.5l-1-1-130-127v-1zm144 91l1-73q0-11-8-18.5t-19-7.5h-67q-37 0-50-17t-13-37 4-49 16.5-91.5 23.5-85 30.5-31 64-18.5 74.5-14q21-5 38-5h5q18 1 26 18 19 44 19 101 0 2 1.5 2t1.5-1.5V223q0-59 36-72 24-9 87-16 27-3 40.5-21.5T694 56t-5.5-50-18-15-35-4-37.5.5T577-4t-6 18 .5 13.5 3 6 4 4.5 5.5 3l6 1.5 7 1 7 .5h15.5l3.5 2-.5 8.5L621 68l2 13.5 3 8.5q1 4-5 4h-16q-37 0-51-4-16-5-25-14-19-18-19-72t26.5-71.5T641-85t98 23q52 61 70 256 2 19 2 49v18q0 37-3 87-6 109-13.5 146.5T759 542t-81 16q-45 5-95 5h-16q-5 33-40 46-21 8-63 9h-13q-31 0-38-4-44-12-44-53zm337-286q-25 11-53 11-11 0-22-2 5 42 37 42h2q36-1 36-51zm318 479v-911q0-23-16.5-39.5T967-213H57q-23 0-40 16.5T0-157v911q0 23 16.5 40T57 811h910q23 0 40-17t17-40z"/><glyph glyph-name="uniE09B" unicode="" d="M967 811q23 0 40-16.5t17-40.5v-911q0-23-16.5-39.5T967-213H57q-33 0-49 28-8 13-8 28v911q0 23 16.5 40T57 811h910zM661 555v85H363v-85h42q31 0 37-12.5t6-30.5V85q0-33-18-39-9-3-25-3h-42v-86h298v86h-42q-40 0-43 29v440q0 33 18 39 9 3 25 4h42z"/><glyph glyph-name="uniE04E" unicode="" d="M334 640h612q32 0 55-23t23-55V35q0-32-23-55t-55-23H334q-32 0-69.5 17.5T206 17L21 239Q0 264 0 299t21 59l185 222q21 25 58.5 42.5T334 640zm-53-402q25-25 54.5-25t48.5 12q42 25 43 74 0 35-25 60t-60.5 25-60.5-25-25-60.5 25-60.5z"/><glyph glyph-name="uniE072" unicode="" d="M51-171l-13 20Q340 62 340 332q0 34-5 68-34-31-91-41-21-4-37-4-85 0-146 61.5T0 562t61 145.5T201 769q150 0 209.5-92.5T470 422q0-240-180-421-99-101-239-172zm554 0l-12 20Q895 62 895 332q0 34-5 68-25-23-63.5-34T761 355q-85 0-146 61.5T554 562t61 145.5T755 769q150 0 209.5-92.5T1024 422q0-240-180-421-99-101-239-172z"/><glyph glyph-name="uniE073" unicode="" d="M973 769l13-19Q684 537 684 266q0-34 5-68 25 23 63 34.5t65 11.5q85 0 146-62t61-145.5T963-109t-140-62q-150 0-209.5 92.5T554 177q0 240 180 421 99 100 239 171zm-554 0l12-19Q129 537 129 266q0-34 5-68 25 23 63.5 34.5T263 244q85 0 146-62t61-145.5T409-109t-140-62q-150 0-209.5 92.5T0 167t61 269 154.5 196.5T419 769z"/><glyph glyph-name="uniE09C" unicode="" d="M0-85v768l597 128V-213zm128 554V132l73-4v246l178-259 90-4v376l-86-5V232L214 474zm882 128q6 0 10-4t4-10V398q0-6-4-10t-10-4h-71V-85H640V85h213v43H640v85h213v43H640v85h213v43H640v85h213v43H640v171h299v-86h71zM981-43v171h43V-43h-43zm0 214v170h43V171h-43z"/><glyph glyph-name="uniE074" unicode="" d="M814 600q59-59 92-137t33-164.5T906 134 814-3 677-95t-165-33-165 33T210-3t-92 137-33 164.5T118 463t92 137 137 92 165 33 165-33 137-92zM753.5 57.5Q801 105 827 167t26 132q0 46-12 90t-34 82-54 69q-47 47-109.5 73.5T512 640t-131.5-26.5-110-73.5T197 430.5t-26-132T197 167t73.5-109.5 110-74T512-43t131.5 26.5 110 74z"/><glyph glyph-name="uniE075" unicode="" d="M939 298.5q0-86.5-33-164.5T814-3 677-95t-165-33-165 33T210-3t-92 137-33 164.5T118 463t92 137 137 92 165 33 165-33 137-92 92-137 33-164.5z"/><glyph glyph-name="uniE076" unicode="" d="M1024 341v-85h-87Q922 105 814-3T555-126v-87h-86v87Q318-111 210-3T87 256H0v85h87q15 151 123 259t259 123v88h86v-88q151-15 259-122.5T937 341h87zM753.5 57.5Q801 105 827 167t26 131.5-26 132T753.5 540t-110 73.5T512 640t-131.5-26.5-110-73.5T197 430.5t-26-132T197 167t73.5-109.5 110-74T512-43t131.5 26.5 110 74z"/><glyph glyph-name="uniE077" unicode="" d="M768 299q0-106-75-181T512 43t-181 75-75 181 75 181 181 75 181-75 75-181z"/></font>
</defs>
</svg>
